pt-serif_caption-italic.sfdir

StartChar: exclam
Encoding: 33 33 4
Width: 358
Flags: W
LayerCount: 2
Fore
SplineSet
174 218 m 1,0,-1
 174 395 l 1,1,-1
 239 700 l 1,2,-1
 344 700 l 1,3,-1
 279 395 l 1,4,-1
 204 218 l 1,5,-1
 174 218 l 1,0,-1
80 58 m 0,6,7
 80 89 80 89 101 107 c 128,-1,8
 122 125 122 125 157 125 c 256,9,10
 192 125 192 125 214 107 c 128,-1,11
 236 89 236 89 236 58 c 0,12,13
 236 28 236 28 214 10 c 128,-1,14
 192 -8 192 -8 157 -8 c 256,15,16
 122 -8 122 -8 101 10 c 128,-1,17
 80 28 80 28 80 58 c 0,6,7
EndSplineSet
EndChar

StartChar: numbersign
Encoding: 35 35 6
Width: 600
Flags: W
LayerCount: 2
Fore
SplineSet
345 233 m 1,0,-1
 185 233 l 1,1,-1
 139 58 l 1,2,-1
 80 58 l 1,3,-1
 126 233 l 1,4,-1
 36 233 l 1,5,-1
 53 280 l 1,6,-1
 138 280 l 1,7,-1
 177 429 l 1,8,-1
 92 429 l 1,9,-1
 109 476 l 1,10,-1
 191 476 l 1,11,-1
 236 642 l 1,12,-1
 295 642 l 1,13,-1
 250 476 l 1,14,-1
 410 476 l 1,15,-1
 455 642 l 1,16,-1
 514 642 l 1,17,-1
 469 476 l 1,18,-1
 559 476 l 1,19,-1
 539 429 l 1,20,-1
 456 429 l 1,21,-1
 416 280 l 1,22,-1
 503 280 l 1,23,-1
 482 233 l 1,24,-1
 404 233 l 1,25,-1
 358 58 l 1,26,-1
 299 58 l 1,27,-1
 345 233 l 1,0,-1
198 280 m 1,28,-1
 357 280 l 1,29,-1
 396 429 l 1,30,-1
 237 429 l 1,31,-1
 198 280 l 1,28,-1
EndSplineSet
EndChar

StartChar: dollar
Encoding: 36 36 7
Width: 600
Flags: W
LayerCount: 2
Fore
SplineSet
429 710 m 1,0,1
 480 707 480 707 521.5 697 c 128,-1,2
 563 687 563 687 587 676 c 1,3,-1
 559 545 l 1,4,-1
 487 545 l 1,5,-1
 506 637 l 1,6,7
 494 645 494 645 470.5 649 c 128,-1,8
 447 653 447 653 418 655 c 1,9,-1
 363 397 l 1,10,11
 412 365 412 365 445 338.5 c 128,-1,12
 478 312 478 312 497.5 286.5 c 128,-1,13
 517 261 517 261 525 235.5 c 128,-1,14
 533 210 533 210 533 181 c 0,15,16
 533 145 533 145 518.5 112 c 128,-1,17
 504 79 504 79 473 52.5 c 128,-1,18
 442 26 442 26 393.5 9 c 128,-1,19
 345 -8 345 -8 276 -11 c 1,20,-1
 264 -70 l 1,21,-1
 205 -70 l 1,22,-1
 217 -11 l 1,23,24
 147 -6 147 -6 100.5 13.5 c 128,-1,25
 54 33 54 33 36 49 c 1,26,-1
 66 188 l 1,27,-1
 138 188 l 1,28,-1
 117 89 l 1,29,30
 127 75 127 75 156.5 62.5 c 128,-1,31
 186 50 186 50 229 45 c 1,32,-1
 288 324 l 1,33,34
 249 348 249 348 218.5 370 c 128,-1,35
 188 392 188 392 167 416 c 128,-1,36
 146 440 146 440 135.5 467.5 c 128,-1,37
 125 495 125 495 125 530 c 0,38,39
 125 567 125 567 139.5 599.5 c 128,-1,40
 154 632 154 632 184 656 c 128,-1,41
 214 680 214 680 260.5 694.5 c 128,-1,42
 307 709 307 709 370 711 c 1,43,-1
 381 760 l 1,44,-1
 440 760 l 1,45,-1
 429 710 l 1,0,1
429 166 m 0,46,47
 429 192 429 192 410.5 221.5 c 128,-1,48
 392 251 392 251 340 289 c 1,49,-1
 288 45 l 1,50,51
 328 49 328 49 355 60 c 128,-1,52
 382 71 382 71 398.5 87 c 128,-1,53
 415 103 415 103 422 123.5 c 128,-1,54
 429 144 429 144 429 166 c 0,46,47
229 546 m 0,55,56
 229 517 229 517 246 490 c 128,-1,57
 263 463 263 463 311 430 c 1,58,-1
 358 655 l 1,59,60
 288 650 288 650 258.5 622 c 128,-1,61
 229 594 229 594 229 546 c 0,55,56
EndSplineSet
EndChar

StartChar: ampersand
Encoding: 38 38 9
Width: 967
Flags: W
LayerCount: 2
Fore
SplineSet
533 123 m 1,0,1
 505 150 505 150 473.5 186.5 c 128,-1,2
 442 223 442 223 413 260.5 c 128,-1,3
 384 298 384 298 360 333 c 128,-1,4
 336 368 336 368 324 391 c 1,5,6
 284 362 284 362 259 333 c 128,-1,7
 234 304 234 304 220 276 c 128,-1,8
 206 248 206 248 201 223 c 128,-1,9
 196 198 196 198 196 177 c 0,10,11
 196 142 196 142 207.5 117 c 128,-1,12
 219 92 219 92 239.5 75 c 128,-1,13
 260 58 260 58 287.5 50 c 128,-1,14
 315 42 315 42 348 42 c 0,15,16
 397 42 397 42 447 62 c 128,-1,17
 497 82 497 82 533 123 c 1,0,1
344 569 m 0,18,19
 344 533 344 533 360 497 c 128,-1,20
 376 461 376 461 399 432 c 1,21,22
 423 447 423 447 444.5 465.5 c 128,-1,23
 466 484 466 484 482.5 506 c 128,-1,24
 499 528 499 528 509 552.5 c 128,-1,25
 519 577 519 577 519 604 c 0,26,27
 519 615 519 615 516 627 c 128,-1,28
 513 639 513 639 505 648.5 c 128,-1,29
 497 658 497 658 483.5 664 c 128,-1,30
 470 670 470 670 449 670 c 0,31,32
 421 670 421 670 401 660.5 c 128,-1,33
 381 651 381 651 368.5 636 c 128,-1,34
 356 621 356 621 350 603 c 128,-1,35
 344 585 344 585 344 569 c 0,18,19
682 0 m 1,36,37
 662 14 662 14 630.5 34.5 c 128,-1,38
 599 55 599 55 565 90 c 1,39,40
 546 72 546 72 518.5 54 c 128,-1,41
 491 36 491 36 456 21 c 128,-1,42
 421 6 421 6 380 -3 c 128,-1,43
 339 -12 339 -12 294 -12 c 0,44,45
 238 -12 238 -12 197.5 2 c 128,-1,46
 157 16 157 16 131 39 c 128,-1,47
 105 62 105 62 92.5 93 c 128,-1,48
 80 124 80 124 80 159 c 0,49,50
 80 207 80 207 99.5 247 c 128,-1,51
 119 287 119 287 150.5 320 c 128,-1,52
 182 353 182 353 221.5 378.5 c 128,-1,53
 261 404 261 404 302 424 c 1,54,55
 280 456 280 456 269 486.5 c 128,-1,56
 258 517 258 517 258 555 c 0,57,58
 258 582 258 582 269 609.5 c 128,-1,59
 280 637 280 637 304 660 c 128,-1,60
 328 683 328 683 365 697.5 c 128,-1,61
 402 712 402 712 453 712 c 0,62,63
 528 712 528 712 564 681.5 c 128,-1,64
 600 651 600 651 600 608 c 0,65,66
 600 574 600 574 584 545 c 128,-1,67
 568 516 568 516 542 490.5 c 128,-1,68
 516 465 516 465 483.5 444 c 128,-1,69
 451 423 451 423 418 406 c 1,70,71
 453 355 453 355 501.5 301.5 c 128,-1,72
 550 248 550 248 606 194 c 1,73,74
 617 205 617 205 636 231 c 128,-1,75
 655 257 655 257 674 292 c 128,-1,76
 693 327 693 327 708.5 368 c 128,-1,77
 724 409 724 409 729 450 c 1,78,-1
 663 450 l 1,79,-1
 674 500 l 1,80,-1
 904 500 l 1,81,-1
 893 450 l 1,82,-1
 818 450 l 1,83,84
 796 392 796 392 770.5 344 c 128,-1,85
 745 296 745 296 720.5 259.5 c 128,-1,86
 696 223 696 223 675.5 197.5 c 128,-1,87
 655 172 655 172 643 160 c 1,88,89
 679 129 679 129 714 102 c 128,-1,90
 749 75 749 75 794 50 c 1,91,-1
 855 50 l 1,92,-1
 844 0 l 1,93,-1
 682 0 l 1,36,37
EndSplineSet
EndChar

StartChar: quotesingle
Encoding: 39 39 10
Width: 304
Flags: W
LayerCount: 2
Fore
SplineSet
195 750 m 1,0,-1
 323 750 l 1,1,-1
 234 492 l 1,2,-1
 177 492 l 1,3,-1
 195 750 l 1,0,-1
EndSplineSet
Substitution2: "'c2sc' Capitals to Small Capitals lookup 12 subtable" uniF634
Substitution2: "'aalt' Access All Alternates lookup 0 subtable" uniF634
EndChar

StartChar: parenleft
Encoding: 40 40 11
Width: 379
Flags: W
LayerCount: 2
Fore
SplineSet
231 -210 m 1,0,1
 209 -193 209 -193 178.5 -163.5 c 128,-1,2
 148 -134 148 -134 120 -90 c 128,-1,3
 92 -46 92 -46 72.5 14 c 128,-1,4
 53 74 53 74 53 152 c 0,5,6
 53 234 53 234 80 311 c 128,-1,7
 107 388 107 388 156 458 c 128,-1,8
 205 528 205 528 274 589.5 c 128,-1,9
 343 651 343 651 428 702 c 1,10,-1
 449 672 l 1,11,12
 392 628 392 628 339 572.5 c 128,-1,13
 286 517 286 517 244.5 450.5 c 128,-1,14
 203 384 203 384 178.5 307.5 c 128,-1,15
 154 231 154 231 154 146 c 0,16,17
 154 81 154 81 163 32 c 128,-1,18
 172 -17 172 -17 187.5 -55.5 c 128,-1,19
 203 -94 203 -94 223.5 -123.5 c 128,-1,20
 244 -153 244 -153 267 -177 c 1,21,-1
 231 -210 l 1,0,1
EndSplineSet
Position2: "'case' Case-Sensitive Forms lookup 1 per glyph data 3" dx=0 dy=100 dh=0 dv=0
EndChar

StartChar: parenright
Encoding: 41 41 12
Width: 379
Flags: W
LayerCount: 2
Fore
SplineSet
158 702 m 1,0,1
 180 685 180 685 210.5 655.5 c 128,-1,2
 241 626 241 626 269 581.5 c 128,-1,3
 297 537 297 537 316.5 477.5 c 128,-1,4
 336 418 336 418 336 340 c 0,5,6
 336 257 336 257 309 180.5 c 128,-1,7
 282 104 282 104 233 34 c 128,-1,8
 184 -36 184 -36 115 -97.5 c 128,-1,9
 46 -159 46 -159 -39 -210 c 1,10,-1
 -60 -180 l 1,11,12
 -3 -137 -3 -137 50 -81 c 128,-1,13
 103 -25 103 -25 144.5 41.5 c 128,-1,14
 186 108 186 108 210.5 184.5 c 128,-1,15
 235 261 235 261 235 346 c 0,16,17
 235 410 235 410 226 459.5 c 128,-1,18
 217 509 217 509 201.5 547.5 c 128,-1,19
 186 586 186 586 165.5 615.5 c 128,-1,20
 145 645 145 645 122 669 c 1,21,-1
 158 702 l 1,0,1
EndSplineSet
Position2: "'case' Case-Sensitive Forms lookup 1 per glyph data 3" dx=0 dy=100 dh=0 dv=0
EndChar

StartChar: asterisk
Encoding: 42 42 13
Width: 522
Flags: W
LayerCount: 2
Fore
SplineSet
465 507 m 1,0,-1
 399 397 l 1,1,-1
 296 510 l 1,2,-1
 312 538 l 1,3,-1
 465 507 l 1,0,-1
398 695 m 1,4,-1
 464 586 l 1,5,-1
 313 556 l 1,6,-1
 295 581 l 1,7,-1
 398 695 l 1,4,-1
195 742 m 1,8,-1
 323 742 l 1,9,-1
 276 594 l 1,10,-1
 241 594 l 1,11,-1
 195 742 l 1,8,-1
60 583 m 1,12,-1
 124 693 l 1,13,-1
 224 582 l 1,14,-1
 208 556 l 1,15,-1
 60 583 l 1,12,-1
123 397 m 1,16,-1
 60 505 l 1,17,-1
 209 540 l 1,18,-1
 224 511 l 1,19,-1
 123 397 l 1,16,-1
326 349 m 1,20,-1
 199 349 l 1,21,-1
 243 497 l 1,22,-1
 278 497 l 1,23,-1
 326 349 l 1,20,-1
EndSplineSet
EndChar

StartChar: plus
Encoding: 43 43 14
Width: 600
Flags: W
LayerCount: 2
Fore
SplineSet
63 371 m 1,0,-1
 285 371 l 1,1,-1
 285 580 l 1,2,-1
 345 580 l 1,3,-1
 345 371 l 1,4,-1
 567 371 l 1,5,-1
 567 317 l 1,6,-1
 345 317 l 1,7,-1
 345 102 l 1,8,-1
 285 102 l 1,9,-1
 285 317 l 1,10,-1
 63 317 l 1,11,-1
 63 371 l 1,0,-1
EndSplineSet
EndChar

StartChar: comma
Encoding: 44 44 15
Width: 309
Flags: W
LayerCount: 2
Fore
SplineSet
-7 -144 m 1,0,1
 16 -137 16 -137 38 -121.5 c 128,-1,2
 60 -106 60 -106 77.5 -86 c 128,-1,3
 95 -66 95 -66 107 -43.5 c 128,-1,4
 119 -21 119 -21 122 0 c 1,5,-1
 52 0 l 1,6,7
 47 10 47 10 45.5 20 c 128,-1,8
 44 30 44 30 44 40 c 0,9,10
 44 63 44 63 53.5 84.5 c 128,-1,11
 63 106 63 106 77 120 c 1,12,-1
 203 120 l 1,13,14
 205 109 205 109 206 98 c 128,-1,15
 207 87 207 87 207 76 c 0,16,17
 207 25 207 25 189 -17.5 c 128,-1,18
 171 -60 171 -60 142.5 -93 c 128,-1,19
 114 -126 114 -126 77.5 -148 c 128,-1,20
 41 -170 41 -170 5 -179 c 1,21,-1
 -7 -144 l 1,0,1
EndSplineSet
EndChar

StartChar: hyphen
Encoding: 45 45 16
Width: 475
Flags: W
LayerCount: 2
Fore
SplineSet
96 314 m 1,0,-1
 412 314 l 1,1,-1
 399 250 l 1,2,-1
 83 250 l 1,3,-1
 96 314 l 1,0,-1
EndSplineSet
Position2: "'case' Case-Sensitive Forms lookup 1 per glyph data 2" dx=0 dy=80 dh=0 dv=0
EndChar

StartChar: period
Encoding: 46 46 17
Width: 304
Flags: W
LayerCount: 2
Fore
SplineSet
38 58 m 0,0,1
 38 89 38 89 59 107 c 128,-1,2
 80 125 80 125 115 125 c 256,3,4
 150 125 150 125 172 107 c 128,-1,5
 194 89 194 89 194 58 c 0,6,7
 194 28 194 28 172 10 c 128,-1,8
 150 -8 150 -8 115 -8 c 256,9,10
 80 -8 80 -8 59 10 c 128,-1,11
 38 28 38 28 38 58 c 0,0,1
EndSplineSet
EndChar

StartChar: slash
Encoding: 47 47 18
Width: 386
Flags: W
LayerCount: 2
Fore
SplineSet
366 713 m 1,0,-1
 415 694 l 1,1,-1
 5 -130 l 1,2,-1
 -43 -110 l 1,3,-1
 366 713 l 1,0,-1
EndSplineSet
EndChar

StartChar: zero
Encoding: 48 48 19
Width: 600
Flags: W
LayerCount: 2
Fore
SplineSet
58 211 m 0,0,1
 58 301 58 301 79 391 c 128,-1,2
 100 481 100 481 142 552 c 128,-1,3
 184 623 184 623 247 667.5 c 128,-1,4
 310 712 310 712 394 712 c 0,5,6
 431 712 431 712 466.5 701.5 c 128,-1,7
 502 691 502 691 530 666 c 128,-1,8
 558 641 558 641 575 599 c 128,-1,9
 592 557 592 557 592 495 c 0,10,11
 592 403 592 403 571 312.5 c 128,-1,12
 550 222 550 222 507 150 c 128,-1,13
 464 78 464 78 400 33 c 128,-1,14
 336 -12 336 -12 251 -12 c 0,15,16
 199 -12 199 -12 162.5 5.5 c 128,-1,17
 126 23 126 23 102.5 53 c 128,-1,18
 79 83 79 83 68.5 123.5 c 128,-1,19
 58 164 58 164 58 211 c 0,0,1
170 200 m 0,20,21
 170 146 170 146 179 113 c 128,-1,22
 188 80 188 80 201.5 61.5 c 128,-1,23
 215 43 215 43 232 36.5 c 128,-1,24
 249 30 249 30 266 30 c 0,25,26
 300 30 300 30 329 50.5 c 128,-1,27
 358 71 358 71 381.5 106 c 128,-1,28
 405 141 405 141 423.5 188.5 c 128,-1,29
 442 236 442 236 454.5 290 c 128,-1,30
 467 344 467 344 473.5 402 c 128,-1,31
 480 460 480 460 480 516 c 0,32,33
 480 597 480 597 458 633.5 c 128,-1,34
 436 670 436 670 390 670 c 0,35,36
 337 670 337 670 296 628.5 c 128,-1,37
 255 587 255 587 227 520 c 128,-1,38
 199 453 199 453 184.5 369 c 128,-1,39
 170 285 170 285 170 200 c 0,20,21
EndSplineSet
EndChar

StartChar: one
Encoding: 49 49 20
Width: 600
Flags: W
LayerCount: 2
Fore
SplineSet
422 0 m 1,0,-1
 91 0 l 1,1,-1
 105 64 l 1,2,-1
 219 64 l 1,3,-1
 339 628 l 1,4,-1
 215 565 l 1,5,-1
 191 615 l 1,6,-1
 354 700 l 1,7,-1
 459 700 l 1,8,-1
 324 64 l 1,9,-1
 436 64 l 1,10,-1
 422 0 l 1,0,-1
EndSplineSet
Substitution2: "'sups' Superscript lookup 13 subtable" onesuperior
Substitution2: "'sinf' Scientific Inferiors lookup 6 subtable" uni2081
Substitution2: "'subs' Subscript lookup 5 subtable" uni2081
Substitution2: "'numr' Numerators lookup 4 subtable" one.numerator
AlternateSubs2: "'aalt' Access All Alternates lookup 1 subtable" one.numerator uni2081 onesuperior
EndChar

StartChar: two
Encoding: 50 50 21
Width: 600
Flags: W
LayerCount: 2
Fore
SplineSet
235 533 m 1,0,-1
 139 533 l 1,1,-1
 163 644 l 1,2,3
 212 680 212 680 265.5 695 c 128,-1,4
 319 710 319 710 385 710 c 0,5,6
 439 710 439 710 475 698.5 c 128,-1,7
 511 687 511 687 532.5 668 c 128,-1,8
 554 649 554 649 563.5 624 c 128,-1,9
 573 599 573 599 573 572 c 0,10,11
 573 515 573 515 538.5 454 c 128,-1,12
 504 393 504 393 446.5 333 c 128,-1,13
 389 273 389 273 315 216 c 128,-1,14
 241 159 241 159 162 110 c 1,15,-1
 106 80 l 1,16,-1
 106 76 l 1,17,-1
 172 80 l 1,18,-1
 404 80 l 1,19,-1
 428 102 l 1,20,-1
 447 196 l 1,21,-1
 511 196 l 1,22,-1
 470 0 l 1,23,-1
 16 0 l 1,24,-1
 34 84 l 1,25,26
 67 102 67 102 111 132.5 c 128,-1,27
 155 163 155 163 202.5 201.5 c 128,-1,28
 250 240 250 240 296.5 284.5 c 128,-1,29
 343 329 343 329 379.5 377 c 128,-1,30
 416 425 416 425 438.5 474 c 128,-1,31
 461 523 461 523 461 569 c 0,32,33
 461 585 461 585 456.5 601 c 128,-1,34
 452 617 452 617 440.5 629 c 128,-1,35
 429 641 429 641 408.5 648.5 c 128,-1,36
 388 656 388 656 357 656 c 0,37,38
 324 656 324 656 302 651 c 128,-1,39
 280 646 280 646 258 638 c 1,40,-1
 235 533 l 1,0,-1
EndSplineSet
Substitution2: "'sups' Superscript lookup 13 subtable" twosuperior
Substitution2: "'sinf' Scientific Inferiors lookup 6 subtable" uni2082
Substitution2: "'subs' Subscript lookup 5 subtable" uni2082
AlternateSubs2: "'aalt' Access All Alternates lookup 1 subtable" uni2082 twosuperior
EndChar

StartChar: three
Encoding: 51 51 22
Width: 600
Flags: W
LayerCount: 2
Fore
SplineSet
227 44 m 0,0,1
 282 44 282 44 320 63 c 128,-1,2
 358 82 358 82 381.5 110.5 c 128,-1,3
 405 139 405 139 415.5 173.5 c 128,-1,4
 426 208 426 208 426 240 c 0,5,6
 426 292 426 292 393 315 c 128,-1,7
 360 338 360 338 291 338 c 2,8,-1
 219 338 l 1,9,-1
 233 406 l 1,10,-1
 498 624 l 1,11,-1
 498 628 l 1,12,-1
 438 620 l 1,13,-1
 243 620 l 1,14,-1
 219 600 l 1,15,-1
 201 520 l 1,16,-1
 137 520 l 1,17,-1
 176 700 l 1,18,-1
 608 700 l 1,19,-1
 591 622 l 1,20,-1
 374 444 l 1,21,-1
 309 402 l 1,22,-1
 309 400 l 1,23,-1
 347 407 l 1,24,25
 384 407 384 407 418.5 398.5 c 128,-1,26
 453 390 453 390 479.5 370.5 c 128,-1,27
 506 351 506 351 522 320 c 128,-1,28
 538 289 538 289 538 245 c 0,29,30
 538 195 538 195 520 149 c 128,-1,31
 502 103 502 103 463.5 67.5 c 128,-1,32
 425 32 425 32 364.5 11 c 128,-1,33
 304 -10 304 -10 218 -10 c 0,34,35
 192 -10 192 -10 163 -6 c 128,-1,36
 134 -2 134 -2 107.5 4.5 c 128,-1,37
 81 11 81 11 58.5 20.5 c 128,-1,38
 36 30 36 30 23 42 c 1,39,-1
 48 160 l 1,40,-1
 144 160 l 1,41,-1
 125 71 l 1,42,43
 136 61 136 61 164 52.5 c 128,-1,44
 192 44 192 44 227 44 c 0,0,1
EndSplineSet
Substitution2: "'sups' Superscript lookup 13 subtable" threesuperior
Substitution2: "'sinf' Scientific Inferiors lookup 6 subtable" uni2083
Substitution2: "'subs' Subscript lookup 5 subtable" uni2083
AlternateSubs2: "'aalt' Access All Alternates lookup 1 subtable" uni2083 threesuperior
EndChar

StartChar: four
Encoding: 52 52 23
Width: 600
Flags: W
LayerCount: 2
Fore
SplineSet
496 0 m 1,0,-1
 202 0 l 1,1,-1
 216 64 l 1,2,-1
 319 64 l 1,3,-1
 346 193 l 1,4,-1
 2 193 l 1,5,-1
 16 257 l 1,6,-1
 454 700 l 1,7,-1
 559 700 l 1,8,-1
 465 257 l 1,9,-1
 589 257 l 1,10,-1
 575 193 l 1,11,-1
 451 193 l 1,12,-1
 424 64 l 1,13,-1
 510 64 l 1,14,-1
 496 0 l 1,0,-1
422 549 m 1,15,-1
 444 621 l 1,16,-1
 441 621 l 1,17,-1
 391 549 l 1,18,-1
 128 283 l 1,19,-1
 84 250 l 1,20,-1
 158 257 l 1,21,-1
 360 257 l 1,22,-1
 422 549 l 1,15,-1
EndSplineSet
Substitution2: "'sinf' Scientific Inferiors lookup 6 subtable" uni2084
Substitution2: "'subs' Subscript lookup 5 subtable" uni2084
Substitution2: "'aalt' Access All Alternates lookup 0 subtable" uni2084
EndChar

StartChar: five
Encoding: 53 53 24
Width: 600
Flags: W
LayerCount: 2
Fore
SplineSet
556 750 m 1,0,-1
 620 750 l 1,1,-1
 592 620 l 1,2,-1
 287 620 l 1,3,-1
 247 430 l 1,4,-1
 306 430 l 2,5,6
 362 430 362 430 403 417.5 c 128,-1,7
 444 405 444 405 471 383 c 128,-1,8
 498 361 498 361 511 331 c 128,-1,9
 524 301 524 301 524 266 c 0,10,11
 524 207 524 207 506 156.5 c 128,-1,12
 488 106 488 106 449.5 69 c 128,-1,13
 411 32 411 32 350 11 c 128,-1,14
 289 -10 289 -10 204 -10 c 0,15,16
 158 -10 158 -10 116 0 c 128,-1,17
 74 10 74 10 47 33 c 1,18,-1
 70 140 l 1,19,-1
 166 140 l 1,20,-1
 147 53 l 1,21,22
 157 51 157 51 176 47.5 c 128,-1,23
 195 44 195 44 215 44 c 0,24,25
 272 44 272 44 310 62 c 128,-1,26
 348 80 348 80 370.5 109 c 128,-1,27
 393 138 393 138 402.5 174 c 128,-1,28
 412 210 412 210 412 245 c 0,29,30
 412 307 412 307 367 329.5 c 128,-1,31
 322 352 322 352 237 352 c 2,32,-1
 166 352 l 1,33,-1
 240 700 l 1,34,-1
 525 700 l 1,35,-1
 549 720 l 1,36,-1
 556 750 l 1,0,-1
EndSplineSet
EndChar

StartChar: six
Encoding: 54 54 25
Width: 600
Flags: W
LayerCount: 2
Fore
SplineSet
562 255 m 0,0,1
 562 207 562 207 544.5 159.5 c 128,-1,2
 527 112 527 112 491 73.5 c 128,-1,3
 455 35 455 35 399.5 11.5 c 128,-1,4
 344 -12 344 -12 269 -12 c 0,5,6
 206 -12 206 -12 165 8.5 c 128,-1,7
 124 29 124 29 100.5 60 c 128,-1,8
 77 91 77 91 68 127 c 128,-1,9
 59 163 59 163 59 195 c 0,10,11
 59 294 59 294 99.5 380.5 c 128,-1,12
 140 467 140 467 209.5 535 c 128,-1,13
 279 603 279 603 372.5 647.5 c 128,-1,14
 466 692 466 692 572 707 c 1,15,-1
 575 657 l 1,16,17
 512 645 512 645 452 618.5 c 128,-1,18
 392 592 392 592 342 552 c 128,-1,19
 292 512 292 512 253.5 460 c 128,-1,20
 215 408 215 408 194 345 c 1,21,22
 225 376 225 376 271.5 396.5 c 128,-1,23
 318 417 318 417 381 417 c 0,24,25
 428 417 428 417 462.5 403.5 c 128,-1,26
 497 390 497 390 519 367.5 c 128,-1,27
 541 345 541 345 551.5 315.5 c 128,-1,28
 562 286 562 286 562 255 c 0,0,1
450 254 m 0,29,30
 450 275 450 275 443 295 c 128,-1,31
 436 315 436 315 422.5 330.5 c 128,-1,32
 409 346 409 346 388 355 c 128,-1,33
 367 364 367 364 339 364 c 0,34,35
 286 364 286 364 244 340.5 c 128,-1,36
 202 317 202 317 179 288 c 1,37,38
 177 281 177 281 174 270 c 128,-1,39
 171 259 171 259 168.5 247 c 128,-1,40
 166 235 166 235 164.5 223 c 128,-1,41
 163 211 163 211 163 203 c 0,42,43
 163 171 163 171 168.5 140.5 c 128,-1,44
 174 110 174 110 187.5 86.5 c 128,-1,45
 201 63 201 63 225 49 c 128,-1,46
 249 35 249 35 286 35 c 0,47,48
 322 35 322 35 352.5 50 c 128,-1,49
 383 65 383 65 404.5 93.5 c 128,-1,50
 426 122 426 122 438 162.5 c 128,-1,51
 450 203 450 203 450 254 c 0,29,30
EndSplineSet
EndChar

StartChar: seven
Encoding: 55 55 26
Width: 600
Flags: W
LayerCount: 2
Fore
SplineSet
196 519 m 1,0,-1
 132 519 l 1,1,-1
 170 700 l 1,2,-1
 640 700 l 1,3,-1
 623 621 l 1,4,-1
 241 0 l 1,5,-1
 131 0 l 1,6,-1
 527 578 l 1,7,-1
 572 626 l 1,8,-1
 514 621 l 1,9,-1
 237 621 l 1,10,-1
 213 601 l 1,11,-1
 196 519 l 1,0,-1
EndSplineSet
EndChar

StartChar: eight
Encoding: 56 56 27
Width: 600
Flags: W
LayerCount: 2
Fore
SplineSet
46 147 m 0,0,1
 46 186 46 186 61 218 c 128,-1,2
 76 250 76 250 103.5 276.5 c 128,-1,3
 131 303 131 303 169.5 323.5 c 128,-1,4
 208 344 208 344 254 359 c 1,5,6
 239 368 239 368 221.5 382 c 128,-1,7
 204 396 204 396 189.5 415.5 c 128,-1,8
 175 435 175 435 165 461 c 128,-1,9
 155 487 155 487 155 521 c 0,10,11
 155 567 155 567 174 602.5 c 128,-1,12
 193 638 193 638 226.5 662.5 c 128,-1,13
 260 687 260 687 305.5 699.5 c 128,-1,14
 351 712 351 712 403 712 c 0,15,16
 453 712 453 712 488.5 700 c 128,-1,17
 524 688 524 688 547 668.5 c 128,-1,18
 570 649 570 649 581 624 c 128,-1,19
 592 599 592 599 592 572 c 0,20,21
 592 542 592 542 582 513 c 128,-1,22
 572 484 572 484 550.5 458 c 128,-1,23
 529 432 529 432 495.5 410.5 c 128,-1,24
 462 389 462 389 415 374 c 1,25,26
 450 354 450 354 474 335.5 c 128,-1,27
 498 317 498 317 513 296.5 c 128,-1,28
 528 276 528 276 534.5 252 c 128,-1,29
 541 228 541 228 541 198 c 0,30,31
 541 155 541 155 520.5 117 c 128,-1,32
 500 79 500 79 463 50.5 c 128,-1,33
 426 22 426 22 374.5 5 c 128,-1,34
 323 -12 323 -12 262 -12 c 0,35,36
 204 -12 204 -12 163 0 c 128,-1,37
 122 12 122 12 96 33.5 c 128,-1,38
 70 55 70 55 58 84 c 128,-1,39
 46 113 46 113 46 147 c 0,0,1
436 179 m 0,40,41
 436 206 436 206 425.5 227.5 c 128,-1,42
 415 249 415 249 396 267.5 c 128,-1,43
 377 286 377 286 350.5 302 c 128,-1,44
 324 318 324 318 292 335 c 1,45,46
 246 311 246 311 217.5 286.5 c 128,-1,47
 189 262 189 262 173.5 238 c 128,-1,48
 158 214 158 214 153 191 c 128,-1,49
 148 168 148 168 148 147 c 0,50,51
 148 98 148 98 179 66.5 c 128,-1,52
 210 35 210 35 272 35 c 0,53,54
 315 35 315 35 346 49.5 c 128,-1,55
 377 64 377 64 397 85.5 c 128,-1,56
 417 107 417 107 426.5 132 c 128,-1,57
 436 157 436 157 436 179 c 0,40,41
260 539 m 0,58,59
 260 513 260 513 270.5 491.5 c 128,-1,60
 281 470 281 470 297.5 452 c 128,-1,61
 314 434 314 434 335 419.5 c 128,-1,62
 356 405 356 405 377 394 c 1,63,64
 404 411 404 411 425.5 432.5 c 128,-1,65
 447 454 447 454 461 477 c 128,-1,66
 475 500 475 500 482.5 523.5 c 128,-1,67
 490 547 490 547 490 568 c 0,68,69
 490 665 490 665 390 665 c 0,70,71
 335 665 335 665 297.5 633 c 128,-1,72
 260 601 260 601 260 539 c 0,58,59
EndSplineSet
EndChar

StartChar: nine
Encoding: 57 57 28
Width: 600
Flags: W
LayerCount: 2
Fore
SplineSet
95 449 m 0,0,1
 95 498 95 498 112.5 545.5 c 128,-1,2
 130 593 130 593 166 630 c 128,-1,3
 202 667 202 667 257.5 689.5 c 128,-1,4
 313 712 313 712 388 712 c 0,5,6
 450 712 450 712 490.5 692.5 c 128,-1,7
 531 673 531 673 555 643 c 128,-1,8
 579 613 579 613 588.5 576.5 c 128,-1,9
 598 540 598 540 598 505 c 0,10,11
 598 406 598 406 557.5 319.5 c 128,-1,12
 517 233 517 233 447.5 165 c 128,-1,13
 378 97 378 97 284.5 52.5 c 128,-1,14
 191 8 191 8 85 -7 c 1,15,-1
 82 43 l 1,16,17
 145 55 145 55 204.5 81.5 c 128,-1,18
 264 108 264 108 314.5 148 c 128,-1,19
 365 188 365 188 403 240 c 128,-1,20
 441 292 441 292 462 355 c 1,21,22
 431 324 431 324 385 303.5 c 128,-1,23
 339 283 339 283 276 283 c 0,24,25
 229 283 229 283 194.5 297.5 c 128,-1,26
 160 312 160 312 138 335 c 128,-1,27
 116 358 116 358 105.5 388 c 128,-1,28
 95 418 95 418 95 449 c 0,0,1
207 449 m 0,29,30
 207 428 207 428 214 407.5 c 128,-1,31
 221 387 221 387 234.5 371 c 128,-1,32
 248 355 248 355 269 345.5 c 128,-1,33
 290 336 290 336 318 336 c 0,34,35
 371 336 371 336 412.5 359.5 c 128,-1,36
 454 383 454 383 477 412 c 1,37,38
 479 419 479 419 482 430 c 128,-1,39
 485 441 485 441 487.5 453 c 128,-1,40
 490 465 490 465 492 477 c 128,-1,41
 494 489 494 489 494 497 c 0,42,43
 494 532 494 532 488.5 562.5 c 128,-1,44
 483 593 483 593 469.5 616 c 128,-1,45
 456 639 456 639 432 652 c 128,-1,46
 408 665 408 665 371 665 c 0,47,48
 335 665 335 665 304.5 650 c 128,-1,49
 274 635 274 635 252.5 607.5 c 128,-1,50
 231 580 231 580 219 540 c 128,-1,51
 207 500 207 500 207 449 c 0,29,30
EndSplineSet
EndChar

StartChar: colon
Encoding: 58 58 29
Width: 358
Flags: W
LayerCount: 2
Fore
SplineSet
153 441 m 0,0,1
 153 472 153 472 174 490 c 128,-1,2
 195 508 195 508 230 508 c 256,3,4
 265 508 265 508 287 490 c 128,-1,5
 309 472 309 472 309 441 c 0,6,7
 309 411 309 411 287 393 c 128,-1,8
 265 375 265 375 230 375 c 256,9,10
 195 375 195 375 174 393 c 128,-1,11
 153 411 153 411 153 441 c 0,0,1
72 58 m 0,12,13
 72 89 72 89 93 107 c 128,-1,14
 114 125 114 125 149 125 c 256,15,16
 184 125 184 125 206 107 c 128,-1,17
 228 89 228 89 228 58 c 0,18,19
 228 28 228 28 206 10 c 128,-1,20
 184 -8 184 -8 149 -8 c 256,21,22
 114 -8 114 -8 93 10 c 128,-1,23
 72 28 72 28 72 58 c 0,12,13
EndSplineSet
EndChar

StartChar: semicolon
Encoding: 59 59 30
Width: 363
Flags: W
LayerCount: 2
Fore
SplineSet
154 441 m 0,0,1
 154 472 154 472 175 490 c 128,-1,2
 196 508 196 508 231 508 c 256,3,4
 266 508 266 508 288 490 c 128,-1,5
 310 472 310 472 310 441 c 0,6,7
 310 411 310 411 288 393 c 128,-1,8
 266 375 266 375 231 375 c 256,9,10
 196 375 196 375 175 393 c 128,-1,11
 154 411 154 411 154 441 c 0,0,1
28 -144 m 1,12,13
 51 -137 51 -137 73 -121.5 c 128,-1,14
 95 -106 95 -106 112.5 -86 c 128,-1,15
 130 -66 130 -66 142 -43.5 c 128,-1,16
 154 -21 154 -21 157 0 c 1,17,-1
 87 0 l 1,18,19
 82 10 82 10 80.5 20 c 128,-1,20
 79 30 79 30 79 40 c 0,21,22
 79 63 79 63 88.5 84.5 c 128,-1,23
 98 106 98 106 112 120 c 1,24,-1
 238 120 l 1,25,26
 240 109 240 109 241 98 c 128,-1,27
 242 87 242 87 242 76 c 0,28,29
 242 25 242 25 224 -17.5 c 128,-1,30
 206 -60 206 -60 177.5 -93 c 128,-1,31
 149 -126 149 -126 112.5 -148 c 128,-1,32
 76 -170 76 -170 40 -179 c 1,33,-1
 28 -144 l 1,12,13
EndSplineSet
EndChar

StartChar: less
Encoding: 60 60 31
Width: 600
Flags: W
LayerCount: 2
Fore
SplineSet
65 324 m 1,0,-1
 65 355 l 1,1,-1
 498 590 l 1,2,-1
 528 531 l 1,3,-1
 177 345 l 1,4,-1
 534 159 l 1,5,-1
 497 103 l 1,6,-1
 65 324 l 1,0,-1
EndSplineSet
EndChar

StartChar: equal
Encoding: 61 61 32
Width: 600
Flags: W
LayerCount: 2
Fore
SplineSet
63 452 m 1,0,-1
 567 452 l 1,1,-1
 567 398 l 1,2,-1
 63 398 l 1,3,-1
 63 452 l 1,0,-1
63 290 m 1,4,-1
 567 290 l 1,5,-1
 567 236 l 1,6,-1
 63 236 l 1,7,-1
 63 290 l 1,4,-1
EndSplineSet
EndChar

StartChar: greater
Encoding: 62 62 33
Width: 600
Flags: W
LayerCount: 2
Fore
SplineSet
565 369 m 1,0,-1
 565 338 l 1,1,-1
 132 103 l 1,2,-1
 99 159 l 1,3,-1
 453 352 l 1,4,-1
 96 534 l 1,5,-1
 133 590 l 1,6,-1
 565 369 l 1,0,-1
EndSplineSet
EndChar

StartChar: question
Encoding: 63 63 34
Width: 521
Flags: W
LayerCount: 2
Fore
SplineSet
233 548 m 1,0,-1
 137 548 l 1,1,-1
 162 669 l 1,2,3
 210 694 210 694 253 703 c 128,-1,4
 296 712 296 712 350 712 c 0,5,6
 447 712 447 712 498 671 c 128,-1,7
 549 630 549 630 549 549 c 0,8,9
 549 501 549 501 529.5 457 c 128,-1,10
 510 413 510 413 473.5 377.5 c 128,-1,11
 437 342 437 342 385 317 c 128,-1,12
 333 292 333 292 268 282 c 1,13,-1
 247 182 l 1,14,-1
 183 182 l 1,15,-1
 213 324 l 1,16,17
 437 375 437 375 437 553 c 0,18,19
 437 658 437 658 339 658 c 0,20,21
 304 658 304 658 283.5 652 c 128,-1,22
 263 646 263 646 252 641 c 1,23,-1
 233 548 l 1,0,-1
110 58 m 0,24,25
 110 89 110 89 131 107 c 128,-1,26
 152 125 152 125 187 125 c 256,27,28
 222 125 222 125 244 107 c 128,-1,29
 266 89 266 89 266 58 c 0,30,31
 266 28 266 28 244 10 c 128,-1,32
 222 -8 222 -8 187 -8 c 256,33,34
 152 -8 152 -8 131 10 c 128,-1,35
 110 28 110 28 110 58 c 0,24,25
EndSplineSet
EndChar

StartChar: at
Encoding: 64 64 35
Width: 1111
Flags: W
LayerCount: 2
Fore
SplineSet
792 490 m 1,0,-1
 735 205 l 1,1,-1
 735 57 l 1,2,-1
 748 57 l 2,3,4
 793 57 793 57 831.5 76.5 c 128,-1,5
 870 96 870 96 897.5 131.5 c 128,-1,6
 925 167 925 167 941 216.5 c 128,-1,7
 957 266 957 266 957 326 c 0,8,9
 957 402 957 402 926.5 463.5 c 128,-1,10
 896 525 896 525 844 568.5 c 128,-1,11
 792 612 792 612 721.5 635 c 128,-1,12
 651 658 651 658 572 658 c 0,13,14
 477 658 477 658 400 626 c 128,-1,15
 323 594 323 594 268.5 537.5 c 128,-1,16
 214 481 214 481 184 405 c 128,-1,17
 154 329 154 329 154 242 c 0,18,19
 154 153 154 153 189 84.5 c 128,-1,20
 224 16 224 16 282 -30.5 c 128,-1,21
 340 -77 340 -77 414.5 -101.5 c 128,-1,22
 489 -126 489 -126 568 -126 c 0,23,24
 600 -126 600 -126 641.5 -119 c 128,-1,25
 683 -112 683 -112 717 -98 c 1,26,-1
 735 -144 l 1,27,28
 695 -164 695 -164 648 -172 c 128,-1,29
 601 -180 601 -180 544 -180 c 0,30,31
 493 -180 493 -180 439 -168.5 c 128,-1,32
 385 -157 385 -157 334.5 -134 c 128,-1,33
 284 -111 284 -111 239.5 -76 c 128,-1,34
 195 -41 195 -41 162 5 c 128,-1,35
 129 51 129 51 109.5 109 c 128,-1,36
 90 167 90 167 90 236 c 0,37,38
 90 345 90 345 129 433 c 128,-1,39
 168 521 168 521 234.5 583 c 128,-1,40
 301 645 301 645 389.5 678.5 c 128,-1,41
 478 712 478 712 577 712 c 0,42,43
 671 712 671 712 752.5 685.5 c 128,-1,44
 834 659 834 659 893.5 609.5 c 128,-1,45
 953 560 953 560 987 488.5 c 128,-1,46
 1021 417 1021 417 1021 326 c 0,47,48
 1021 267 1021 267 1004.5 208.5 c 128,-1,49
 988 150 988 150 951.5 104 c 128,-1,50
 915 58 915 58 857 29.5 c 128,-1,51
 799 1 799 1 716 1 c 0,52,53
 699 1 699 1 682.5 2.5 c 128,-1,54
 666 4 666 4 647 6 c 1,55,-1
 647 182 l 1,56,-1
 641 182 l 1,57,58
 628 150 628 150 606.5 119 c 128,-1,59
 585 88 585 88 557 62.5 c 128,-1,60
 529 37 529 37 497.5 21.5 c 128,-1,61
 466 6 466 6 433 6 c 0,62,63
 366 6 366 6 329.5 47.5 c 128,-1,64
 293 89 293 89 293 158 c 0,65,66
 293 221 293 221 316.5 282 c 128,-1,67
 340 343 340 343 380.5 391 c 128,-1,68
 421 439 421 439 474.5 468 c 128,-1,69
 528 497 528 497 588 497 c 0,70,71
 628 497 628 497 653 490.5 c 128,-1,72
 678 484 678 484 704 473 c 1,73,-1
 792 490 l 1,0,-1
685 425 m 1,74,75
 668 435 668 435 649 439 c 128,-1,76
 630 443 630 443 603 443 c 0,77,78
 560 443 560 443 522.5 417 c 128,-1,79
 485 391 485 391 457 350.5 c 128,-1,80
 429 310 429 310 413 261.5 c 128,-1,81
 397 213 397 213 397 169 c 0,82,83
 397 121 397 121 413.5 95.5 c 128,-1,84
 430 70 430 70 475 70 c 0,85,86
 496 70 496 70 520.5 88 c 128,-1,87
 545 106 545 106 569 135 c 128,-1,88
 593 164 593 164 615.5 200.5 c 128,-1,89
 638 237 638 237 656 275 c 1,90,-1
 685 425 l 1,74,75
EndSplineSet
Position2: "'case' Case-Sensitive Forms lookup 1 per glyph data 0" dx=0 dy=51 dh=0 dv=0
EndChar

StartChar: A
Encoding: 65 65 36
Width: 745
Flags: W
LayerCount: 2
Fore
SplineSet
193 0 m 1,0,-1
 -50 0 l 1,1,-1
 -38 56 l 1,2,-1
 38 56 l 1,3,-1
 432 700 l 1,4,-1
 538 700 l 1,5,-1
 636 56 l 1,6,-1
 710 56 l 1,7,-1
 698 0 l 1,8,-1
 415 0 l 1,9,-1
 427 56 l 1,10,-1
 516 56 l 1,11,-1
 489 232 l 1,12,-1
 225 232 l 1,13,-1
 119 56 l 1,14,-1
 205 56 l 1,15,-1
 193 0 l 1,0,-1
260 288 m 1,16,-1
 484 288 l 1,17,-1
 453 519 l 2,18,19
 452 522 452 522 452 538.5 c 128,-1,20
 452 555 452 555 451 575 c 0,21,22
 450 597 450 597 450 625 c 1,23,-1
 446 625 l 1,24,-1
 392 517 l 1,25,-1
 260 288 l 1,16,-1
EndSplineSet
Position2: "'cpsp' Capital Spacing lookup 0 subtable" dx=40 dy=0 dh=80 dv=0
EndChar

StartChar: B
Encoding: 66 66 37
Width: 676
Flags: W
LayerCount: 2
Fore
SplineSet
-21 0 m 1,0,-1
 -10 56 l 1,1,-1
 81 56 l 1,2,-1
 206 644 l 1,3,-1
 115 644 l 1,4,-1
 127 700 l 1,5,-1
 256 700 l 2,6,7
 277 700 277 700 297 701 c 128,-1,8
 317 702 317 702 339 703 c 128,-1,9
 361 704 361 704 386 705 c 128,-1,10
 411 706 411 706 441 706 c 0,11,12
 486 706 486 706 526.5 698.5 c 128,-1,13
 567 691 567 691 597 674 c 128,-1,14
 627 657 627 657 644.5 629.5 c 128,-1,15
 662 602 662 602 662 562 c 0,16,17
 662 484 662 484 611 435.5 c 128,-1,18
 560 387 560 387 477 374 c 1,19,-1
 477 370 l 1,20,21
 502 368 502 368 528 359.5 c 128,-1,22
 554 351 554 351 576 333 c 128,-1,23
 598 315 598 315 612 287.5 c 128,-1,24
 626 260 626 260 626 221 c 0,25,26
 626 165 626 165 600 123 c 128,-1,27
 574 81 574 81 527.5 52 c 128,-1,28
 481 23 481 23 417 8.5 c 128,-1,29
 353 -6 353 -6 278 -6 c 0,30,31
 239 -6 239 -6 190 -3 c 128,-1,32
 141 0 141 0 96 0 c 2,33,-1
 -21 0 l 1,0,-1
298 50 m 0,34,35
 338 50 338 50 376 60.5 c 128,-1,36
 414 71 414 71 444 92.5 c 128,-1,37
 474 114 474 114 492 146 c 128,-1,38
 510 178 510 178 510 221 c 0,39,40
 510 283 510 283 463 306.5 c 128,-1,41
 416 330 416 330 334 330 c 2,42,-1
 251 330 l 1,43,-1
 194 59 l 1,44,45
 208 55 208 55 230 52.5 c 128,-1,46
 252 50 252 50 298 50 c 0,34,35
317 383 m 2,47,48
 337 383 337 383 362.5 384.5 c 128,-1,49
 388 386 388 386 405 388 c 1,50,51
 447 401 447 401 474 419.5 c 128,-1,52
 501 438 501 438 517 460 c 128,-1,53
 533 482 533 482 539.5 506.5 c 128,-1,54
 546 531 546 531 546 555 c 0,55,56
 546 596 546 596 517.5 623 c 128,-1,57
 489 650 489 650 418 650 c 0,58,59
 384 650 384 650 359.5 648.5 c 128,-1,60
 335 647 335 647 318 645 c 1,61,-1
 262 383 l 1,62,-1
 317 383 l 2,47,48
EndSplineSet
Position2: "'cpsp' Capital Spacing lookup 0 subtable" dx=40 dy=0 dh=80 dv=0
EndChar

StartChar: C
Encoding: 67 67 38
Width: 688
Flags: W
LayerCount: 2
Fore
SplineSet
559 184 m 1,0,-1
 623 184 l 1,1,-1
 590 27 l 1,2,3
 573 18 573 18 549.5 11 c 128,-1,4
 526 4 526 4 500 -1.5 c 128,-1,5
 474 -7 474 -7 447 -9.5 c 128,-1,6
 420 -12 420 -12 395 -12 c 0,7,8
 297 -12 297 -12 234.5 11 c 128,-1,9
 172 34 172 34 137 71.5 c 128,-1,10
 102 109 102 109 89 156 c 128,-1,11
 76 203 76 203 76 252 c 0,12,13
 76 352 76 352 106 436.5 c 128,-1,14
 136 521 136 521 192 582.5 c 128,-1,15
 248 644 248 644 328.5 678 c 128,-1,16
 409 712 409 712 511 712 c 0,17,18
 584 712 584 712 629.5 701.5 c 128,-1,19
 675 691 675 691 710 674 c 1,20,-1
 673 503 l 1,21,-1
 609 503 l 1,22,-1
 632 608 l 1,23,-1
 622 628 l 1,24,25
 611 633 611 633 585 640.5 c 128,-1,26
 559 648 559 648 507 648 c 0,27,28
 439 648 439 648 383 620 c 128,-1,29
 327 592 327 592 286.5 540.5 c 128,-1,30
 246 489 246 489 223.5 416.5 c 128,-1,31
 201 344 201 344 201 255 c 0,32,33
 201 212 201 212 212.5 175 c 128,-1,34
 224 138 224 138 249.5 110.5 c 128,-1,35
 275 83 275 83 315.5 67.5 c 128,-1,36
 356 52 356 52 413 52 c 0,37,38
 449 52 449 52 478.5 57.5 c 128,-1,39
 508 63 508 63 522 72 c 1,40,-1
 540 91 l 1,41,-1
 559 184 l 1,0,-1
EndSplineSet
Position2: "'cpsp' Capital Spacing lookup 0 subtable" dx=40 dy=0 dh=80 dv=0
EndChar

StartChar: D
Encoding: 68 68 39
Width: 774
Flags: W
LayerCount: 2
Fore
SplineSet
-21 0 m 1,0,-1
 -10 56 l 1,1,-1
 81 56 l 1,2,-1
 206 644 l 1,3,-1
 115 644 l 1,4,-1
 127 700 l 1,5,-1
 250 700 l 2,6,7
 269 700 269 700 295 701 c 128,-1,8
 321 702 321 702 348.5 703.5 c 128,-1,9
 376 705 376 705 401.5 706.5 c 128,-1,10
 427 708 427 708 444 708 c 0,11,12
 542 708 542 708 603 685.5 c 128,-1,13
 664 663 664 663 698 628 c 128,-1,14
 732 593 732 593 744 550 c 128,-1,15
 756 507 756 507 756 465 c 0,16,17
 756 360 756 360 726.5 272.5 c 128,-1,18
 697 185 697 185 639 122.5 c 128,-1,19
 581 60 581 60 495 25.5 c 128,-1,20
 409 -9 409 -9 296 -9 c 0,21,22
 280 -9 280 -9 256.5 -7.5 c 128,-1,23
 233 -6 233 -6 207 -4.5 c 128,-1,24
 181 -3 181 -3 155 -1.5 c 128,-1,25
 129 0 129 0 108 0 c 2,26,-1
 -21 0 l 1,0,-1
417 652 m 0,27,28
 389 652 389 652 362 651 c 128,-1,29
 335 650 335 650 319 647 c 1,30,-1
 193 51 l 1,31,32
 199 50 199 50 213 49.5 c 128,-1,33
 227 49 227 49 243.5 48.5 c 128,-1,34
 260 48 260 48 275 47.5 c 128,-1,35
 290 47 290 47 296 47 c 0,36,37
 392 47 392 47 456.5 84 c 128,-1,38
 521 121 521 121 559.5 180.5 c 128,-1,39
 598 240 598 240 614.5 316 c 128,-1,40
 631 392 631 392 631 470 c 0,41,42
 631 506 631 506 622.5 539 c 128,-1,43
 614 572 614 572 590 597 c 128,-1,44
 566 622 566 622 524.5 637 c 128,-1,45
 483 652 483 652 417 652 c 0,27,28
EndSplineSet
Position2: "'cpsp' Capital Spacing lookup 0 subtable" dx=40 dy=0 dh=80 dv=0
EndChar

StartChar: E
Encoding: 69 69 40
Width: 635
Flags: W
LayerCount: 2
Fore
SplineSet
659 700 m 1,0,-1
 624 536 l 1,1,-1
 560 536 l 1,2,-1
 579 622 l 1,3,-1
 563 644 l 1,4,-1
 318 644 l 1,5,-1
 263 385 l 1,6,-1
 432 385 l 1,7,-1
 450 400 l 1,8,-1
 459 442 l 1,9,-1
 523 442 l 1,10,-1
 487 271 l 1,11,-1
 423 271 l 1,12,-1
 432 313 l 1,13,-1
 420 329 l 1,14,-1
 251 329 l 1,15,-1
 193 56 l 1,16,-1
 455 56 l 1,17,-1
 479 76 l 1,18,-1
 500 174 l 1,19,-1
 564 174 l 1,20,-1
 527 0 l 1,21,-1
 -21 0 l 1,22,-1
 -10 56 l 1,23,-1
 81 56 l 1,24,-1
 206 644 l 1,25,-1
 115 644 l 1,26,-1
 127 700 l 1,27,-1
 659 700 l 1,0,-1
EndSplineSet
Position2: "'cpsp' Capital Spacing lookup 0 subtable" dx=40 dy=0 dh=80 dv=0
EndChar

StartChar: F
Encoding: 70 70 41
Width: 603
Flags: W
LayerCount: 2
Fore
SplineSet
183 56 m 1,0,-1
 290 56 l 1,1,-1
 278 0 l 1,2,-1
 -21 0 l 1,3,-1
 -10 56 l 1,4,-1
 71 56 l 1,5,-1
 196 644 l 1,6,-1
 115 644 l 1,7,-1
 127 700 l 1,8,-1
 658 700 l 1,9,-1
 623 536 l 1,10,-1
 559 536 l 1,11,-1
 578 622 l 1,12,-1
 562 644 l 1,13,-1
 308 644 l 1,14,-1
 250 370 l 1,15,-1
 431 370 l 1,16,-1
 449 385 l 1,17,-1
 459 433 l 1,18,-1
 523 433 l 1,19,20
 523 433 523 433 520 419.5 c 128,-1,21
 517 406 517 406 513 385.5 c 128,-1,22
 509 365 509 365 504 341.5 c 128,-1,23
 499 318 499 318 494.5 297.5 c 128,-1,24
 490 277 490 277 487 263.5 c 128,-1,25
 484 250 484 250 484 250 c 1,26,-1
 420 250 l 1,27,-1
 431 298 l 1,28,-1
 419 314 l 1,29,-1
 238 314 l 1,30,-1
 183 56 l 1,0,-1
EndSplineSet
Position2: "'cpsp' Capital Spacing lookup 0 subtable" dx=40 dy=0 dh=80 dv=0
EndChar

StartChar: G
Encoding: 71 71 42
Width: 764
Flags: W
LayerCount: 2
Fore
SplineSet
617 48 m 1,0,1
 568 19 568 19 505 3.5 c 128,-1,2
 442 -12 442 -12 385 -12 c 0,3,4
 292 -12 292 -12 232 11.5 c 128,-1,5
 172 35 172 35 137.5 72.5 c 128,-1,6
 103 110 103 110 89.5 157.5 c 128,-1,7
 76 205 76 205 76 254 c 0,8,9
 76 354 76 354 105.5 438 c 128,-1,10
 135 522 135 522 190.5 583 c 128,-1,11
 246 644 246 644 326 678 c 128,-1,12
 406 712 406 712 508 712 c 0,13,14
 582 712 582 712 633 701.5 c 128,-1,15
 684 691 684 691 719 674 c 1,16,17
 719 674 719 674 717.5 666.5 c 128,-1,18
 716 659 716 659 713 647 c 128,-1,19
 710 635 710 635 706.5 619.5 c 128,-1,20
 703 604 703 604 700 588 c 0,21,22
 692 550 692 550 682 503 c 1,23,-1
 618 503 l 1,24,-1
 641 608 l 1,25,-1
 631 628 l 1,26,27
 623 633 623 633 608 637 c 128,-1,28
 593 641 593 641 576 643.5 c 128,-1,29
 559 646 559 646 541 647 c 128,-1,30
 523 648 523 648 509 648 c 0,31,32
 435 648 435 648 377.5 616.5 c 128,-1,33
 320 585 320 585 281 531.5 c 128,-1,34
 242 478 242 478 221.5 407 c 128,-1,35
 201 336 201 336 201 257 c 0,36,37
 201 219 201 219 210 182 c 128,-1,38
 219 145 219 145 242.5 116 c 128,-1,39
 266 87 266 87 306.5 69.5 c 128,-1,40
 347 52 347 52 410 52 c 0,41,42
 443 52 443 52 464 56.5 c 128,-1,43
 485 61 485 61 505 68 c 1,44,-1
 524 86 l 1,45,-1
 564 275 l 1,46,-1
 458 275 l 1,47,-1
 470 331 l 1,48,-1
 747 331 l 1,49,-1
 735 275 l 1,50,-1
 665 275 l 1,51,-1
 617 48 l 1,0,1
EndSplineSet
Position2: "'cpsp' Capital Spacing lookup 0 subtable" dx=40 dy=0 dh=80 dv=0
EndChar

StartChar: H
Encoding: 72 72 43
Width: 810
Flags: W
LayerCount: 2
Fore
SplineSet
276 56 m 1,0,-1
 264 0 l 1,1,-1
 -21 0 l 1,2,-1
 -10 56 l 1,3,-1
 81 56 l 1,4,-1
 206 644 l 1,5,-1
 115 644 l 1,6,-1
 127 700 l 1,7,-1
 413 700 l 1,8,-1
 401 644 l 1,9,-1
 318 644 l 1,10,-1
 264 387 l 1,11,-1
 614 387 l 1,12,-1
 668 644 l 1,13,-1
 585 644 l 1,14,-1
 597 700 l 1,15,-1
 883 700 l 1,16,-1
 871 644 l 1,17,-1
 780 644 l 1,18,-1
 655 56 l 1,19,-1
 746 56 l 1,20,-1
 734 0 l 1,21,-1
 449 0 l 1,22,-1
 460 56 l 1,23,-1
 543 56 l 1,24,-1
 602 331 l 1,25,-1
 252 331 l 1,26,-1
 193 56 l 1,27,-1
 276 56 l 1,0,-1
EndSplineSet
Position2: "'cpsp' Capital Spacing lookup 0 subtable" dx=40 dy=0 dh=80 dv=0
EndChar

StartChar: I
Encoding: 73 73 44
Width: 389
Flags: W
LayerCount: 2
Fore
SplineSet
293 0 m 1,0,-1
 -1 0 l 1,1,-1
 11 56 l 1,2,-1
 102 56 l 1,3,-1
 227 644 l 1,4,-1
 136 644 l 1,5,-1
 148 700 l 1,6,-1
 442 700 l 1,7,-1
 430 644 l 1,8,-1
 339 644 l 1,9,-1
 214 56 l 1,10,-1
 305 56 l 1,11,-1
 293 0 l 1,0,-1
EndSplineSet
Position2: "'cpsp' Capital Spacing lookup 0 subtable" dx=40 dy=0 dh=80 dv=0
EndChar

StartChar: J
Encoding: 74 74 45
Width: 370
Flags: W
LayerCount: 2
Fore
SplineSet
-41 -113 m 1,0,1
 -23 -105 -23 -105 -4.5 -92.5 c 128,-1,2
 14 -80 14 -80 30.5 -58.5 c 128,-1,3
 47 -37 47 -37 61.5 -4 c 128,-1,4
 76 29 76 29 87 78 c 2,5,-1
 208 644 l 1,6,-1
 125 644 l 1,7,-1
 137 700 l 1,8,-1
 423 700 l 1,9,-1
 411 644 l 1,10,-1
 320 644 l 1,11,-1
 202 88 l 2,12,13
 187 17 187 17 158.5 -29 c 128,-1,14
 130 -75 130 -75 97 -102 c 128,-1,15
 64 -129 64 -129 30.5 -142 c 128,-1,16
 -3 -155 -3 -155 -28 -160 c 1,17,-1
 -41 -113 l 1,0,1
EndSplineSet
Position2: "'cpsp' Capital Spacing lookup 0 subtable" dx=40 dy=0 dh=80 dv=0
EndChar

StartChar: K
Encoding: 75 75 46
Width: 702
Flags: W
LayerCount: 2
Fore
SplineSet
323 382 m 1,0,-1
 592 644 l 1,1,-1
 511 644 l 1,2,-1
 523 700 l 1,3,-1
 776 700 l 1,4,-1
 764 644 l 1,5,-1
 685 644 l 1,6,-1
 395 380 l 1,7,-1
 600 56 l 1,8,-1
 663 56 l 1,9,-1
 651 0 l 1,10,-1
 501 0 l 1,11,-1
 312 332 l 1,12,-1
 252 332 l 1,13,-1
 193 56 l 1,14,-1
 276 56 l 1,15,-1
 264 0 l 1,16,-1
 -21 0 l 1,17,-1
 -10 56 l 1,18,-1
 81 56 l 1,19,-1
 206 644 l 1,20,-1
 115 644 l 1,21,-1
 127 700 l 1,22,-1
 413 700 l 1,23,-1
 401 644 l 1,24,-1
 318 644 l 1,25,-1
 262 382 l 1,26,-1
 323 382 l 1,0,-1
EndSplineSet
Position2: "'cpsp' Capital Spacing lookup 0 subtable" dx=40 dy=0 dh=80 dv=0
EndChar

StartChar: L
Encoding: 76 76 47
Width: 599
Flags: W
LayerCount: 2
Fore
SplineSet
115 644 m 1,0,-1
 127 700 l 1,1,-1
 438 700 l 1,2,-1
 426 644 l 1,3,-1
 318 644 l 1,4,-1
 193 56 l 1,5,-1
 459 56 l 1,6,-1
 484 78 l 1,7,-1
 513 216 l 1,8,-1
 585 216 l 1,9,-1
 539 0 l 1,10,-1
 -21 0 l 1,11,-1
 -10 56 l 1,12,-1
 81 56 l 1,13,-1
 206 644 l 1,14,-1
 115 644 l 1,0,-1
EndSplineSet
Position2: "'cpsp' Capital Spacing lookup 0 subtable" dx=40 dy=0 dh=80 dv=0
EndChar

StartChar: M
Encoding: 77 77 48
Width: 974
Flags: W
LayerCount: 2
Fore
SplineSet
115 644 m 1,0,-1
 127 700 l 1,1,-1
 354 700 l 1,2,-1
 493 259 l 1,3,-1
 829 700 l 1,4,-1
 1047 700 l 1,5,-1
 1035 644 l 1,6,-1
 944 644 l 1,7,-1
 819 56 l 1,8,-1
 910 56 l 1,9,-1
 898 0 l 1,10,-1
 608 0 l 1,11,-1
 620 56 l 1,12,-1
 711 56 l 1,13,-1
 806 502 l 2,14,15
 807 505 807 505 812 523.5 c 128,-1,16
 817 542 817 542 822 563 c 2,17,-1
 836 619 l 1,18,-1
 827 619 l 1,19,-1
 761 512 l 1,20,-1
 479 150 l 1,21,-1
 418 150 l 1,22,-1
 295 512 l 1,23,-1
 276 629 l 1,24,-1
 266 629 l 1,25,-1
 254 569 l 2,26,27
 249 546 249 546 245 526 c 128,-1,28
 241 506 241 506 240 502 c 2,29,-1
 145 56 l 1,30,-1
 230 56 l 1,31,-1
 218 0 l 1,32,-1
 -21 0 l 1,33,-1
 -10 56 l 1,34,-1
 81 56 l 1,35,-1
 206 644 l 1,36,-1
 115 644 l 1,0,-1
EndSplineSet
Position2: "'cpsp' Capital Spacing lookup 0 subtable" dx=40 dy=0 dh=80 dv=0
EndChar

StartChar: N
Encoding: 78 78 49
Width: 810
Flags: W
LayerCount: 2
Fore
SplineSet
640 700 m 1,0,-1
 883 700 l 1,1,-1
 871 644 l 1,2,-1
 780 644 l 1,3,-1
 640 -12 l 1,4,-1
 583 -12 l 1,5,-1
 281 537 l 1,6,-1
 257 614 l 1,7,-1
 253 614 l 1,8,-1
 248 536 l 1,9,-1
 146 56 l 1,10,-1
 233 56 l 1,11,-1
 221 0 l 1,12,-1
 -21 0 l 1,13,-1
 -10 56 l 1,14,-1
 81 56 l 1,15,-1
 206 644 l 1,16,-1
 115 644 l 1,17,-1
 127 700 l 1,18,-1
 318 700 l 1,19,-1
 576 226 l 1,20,-1
 610 143 l 1,21,-1
 615 143 l 1,22,-1
 627 229 l 1,23,-1
 715 644 l 1,24,-1
 628 644 l 1,25,-1
 640 700 l 1,0,-1
EndSplineSet
Position2: "'cpsp' Capital Spacing lookup 0 subtable" dx=40 dy=0 dh=80 dv=0
EndChar

StartChar: O
Encoding: 79 79 50
Width: 820
Flags: W
LayerCount: 2
Fore
SplineSet
76 283 m 0,0,1
 76 364 76 364 101.5 441.5 c 128,-1,2
 127 519 127 519 179.5 579 c 128,-1,3
 232 639 232 639 312 675.5 c 128,-1,4
 392 712 392 712 500 712 c 0,5,6
 567 712 567 712 623 692.5 c 128,-1,7
 679 673 679 673 718.5 636 c 128,-1,8
 758 599 758 599 780 547 c 128,-1,9
 802 495 802 495 802 431 c 0,10,11
 802 351 802 351 780 271.5 c 128,-1,12
 758 192 758 192 709 129 c 128,-1,13
 660 66 660 66 583 27 c 128,-1,14
 506 -12 506 -12 397 -12 c 0,15,16
 338 -12 338 -12 281 5 c 128,-1,17
 224 22 224 22 178 58 c 128,-1,18
 132 94 132 94 104 149.5 c 128,-1,19
 76 205 76 205 76 283 c 0,0,1
201 282 m 0,20,21
 201 218 201 218 218.5 173 c 128,-1,22
 236 128 236 128 264.5 99.5 c 128,-1,23
 293 71 293 71 330 57.5 c 128,-1,24
 367 44 367 44 405 44 c 0,25,26
 483 44 483 44 535 79.5 c 128,-1,27
 587 115 587 115 618.5 171 c 128,-1,28
 650 227 650 227 663.5 295.5 c 128,-1,29
 677 364 677 364 677 430 c 0,30,31
 677 541 677 541 624 598.5 c 128,-1,32
 571 656 571 656 475 656 c 0,33,34
 404 656 404 656 352 623 c 128,-1,35
 300 590 300 590 266.5 537 c 128,-1,36
 233 484 233 484 217 417 c 128,-1,37
 201 350 201 350 201 282 c 0,20,21
EndSplineSet
Position2: "'cpsp' Capital Spacing lookup 0 subtable" dx=40 dy=0 dh=80 dv=0
EndChar

StartChar: P
Encoding: 80 80 51
Width: 657
Flags: W
LayerCount: 2
Fore
SplineSet
115 644 m 1,0,-1
 127 700 l 1,1,-1
 239 700 l 2,2,3
 284 700 284 700 334.5 704 c 128,-1,4
 385 708 385 708 434 708 c 0,5,6
 489 708 489 708 534.5 698 c 128,-1,7
 580 688 580 688 612 667 c 128,-1,8
 644 646 644 646 662 613.5 c 128,-1,9
 680 581 680 581 680 536 c 0,10,11
 680 470 680 470 654 420 c 128,-1,12
 628 370 628 370 581.5 336 c 128,-1,13
 535 302 535 302 471 285 c 128,-1,14
 407 268 407 268 332 268 c 0,15,16
 326 268 326 268 313.5 268 c 128,-1,17
 301 268 301 268 287 268.5 c 128,-1,18
 273 269 273 269 259.5 270 c 128,-1,19
 246 271 246 271 239 272 c 1,20,-1
 193 56 l 1,21,-1
 293 56 l 1,22,-1
 281 0 l 1,23,-1
 -21 0 l 1,24,-1
 -10 56 l 1,25,-1
 81 56 l 1,26,-1
 206 644 l 1,27,-1
 115 644 l 1,0,-1
251 329 m 1,28,29
 256 327 256 327 265.5 326.5 c 128,-1,30
 275 326 275 326 286 325 c 128,-1,31
 297 324 297 324 307.5 324 c 128,-1,32
 318 324 318 324 324 324 c 0,33,34
 370 324 370 324 412 336 c 128,-1,35
 454 348 454 348 486 373 c 128,-1,36
 518 398 518 398 536.5 436.5 c 128,-1,37
 555 475 555 475 555 529 c 0,38,39
 555 585 555 585 517 618.5 c 128,-1,40
 479 652 479 652 391 652 c 0,41,42
 364 652 364 652 348 650 c 128,-1,43
 332 648 332 648 318 646 c 1,44,-1
 251 329 l 1,28,29
EndSplineSet
Position2: "'cpsp' Capital Spacing lookup 0 subtable" dx=40 dy=0 dh=80 dv=0
EndChar

StartChar: Q
Encoding: 81 81 52
Width: 820
Flags: W
LayerCount: 2
Fore
SplineSet
830 -131 m 1,0,1
 779 -168 779 -168 724.5 -185 c 128,-1,2
 670 -202 670 -202 616 -202 c 0,3,4
 570 -202 570 -202 520 -185 c 128,-1,5
 470 -168 470 -168 416 -146.5 c 128,-1,6
 362 -125 362 -125 303 -104.5 c 128,-1,7
 244 -84 244 -84 180 -77 c 1,8,-1
 196 -37 l 1,9,10
 220 -34 220 -34 243 -34 c 0,11,12
 300 -34 300 -34 353.5 -46.5 c 128,-1,13
 407 -59 407 -59 460.5 -74 c 128,-1,14
 514 -89 514 -89 569.5 -101.5 c 128,-1,15
 625 -114 625 -114 685 -114 c 0,16,17
 717 -114 717 -114 751.5 -109 c 128,-1,18
 786 -104 786 -104 822 -93 c 1,19,-1
 830 -131 l 1,0,1
76 283 m 0,20,21
 76 364 76 364 101.5 441.5 c 128,-1,22
 127 519 127 519 179.5 579 c 128,-1,23
 232 639 232 639 312 675.5 c 128,-1,24
 392 712 392 712 500 712 c 0,25,26
 567 712 567 712 623 692.5 c 128,-1,27
 679 673 679 673 718.5 636 c 128,-1,28
 758 599 758 599 780 547 c 128,-1,29
 802 495 802 495 802 431 c 0,30,31
 802 351 802 351 780 271.5 c 128,-1,32
 758 192 758 192 709 129 c 128,-1,33
 660 66 660 66 583 27 c 128,-1,34
 506 -12 506 -12 397 -12 c 0,35,36
 338 -12 338 -12 281 5 c 128,-1,37
 224 22 224 22 178 58 c 128,-1,38
 132 94 132 94 104 149.5 c 128,-1,39
 76 205 76 205 76 283 c 0,20,21
201 282 m 0,40,41
 201 218 201 218 218.5 173 c 128,-1,42
 236 128 236 128 264.5 99.5 c 128,-1,43
 293 71 293 71 330 57.5 c 128,-1,44
 367 44 367 44 405 44 c 0,45,46
 483 44 483 44 535 79.5 c 128,-1,47
 587 115 587 115 618.5 171 c 128,-1,48
 650 227 650 227 663.5 295.5 c 128,-1,49
 677 364 677 364 677 430 c 0,50,51
 677 541 677 541 624 598.5 c 128,-1,52
 571 656 571 656 475 656 c 0,53,54
 404 656 404 656 352 623 c 128,-1,55
 300 590 300 590 266.5 537 c 128,-1,56
 233 484 233 484 217 417 c 128,-1,57
 201 350 201 350 201 282 c 0,40,41
EndSplineSet
Position2: "'cpsp' Capital Spacing lookup 0 subtable" dx=40 dy=0 dh=80 dv=0
EndChar

StartChar: R
Encoding: 82 82 53
Width: 700
Flags: W
LayerCount: 2
Fore
SplineSet
193 56 m 1,0,-1
 279 56 l 1,1,-1
 267 0 l 1,2,-1
 -21 0 l 1,3,-1
 -10 56 l 1,4,-1
 81 56 l 1,5,-1
 206 644 l 1,6,-1
 115 644 l 1,7,-1
 127 700 l 1,8,-1
 228 700 l 2,9,10
 273 700 273 700 327 704 c 128,-1,11
 381 708 381 708 432 708 c 0,12,13
 544 708 544 708 602 665.5 c 128,-1,14
 660 623 660 623 660 541 c 0,15,16
 660 491 660 491 641 451.5 c 128,-1,17
 622 412 622 412 592 383.5 c 128,-1,18
 562 355 562 355 524 337.5 c 128,-1,19
 486 320 486 320 448 314 c 1,20,-1
 593 56 l 1,21,-1
 660 56 l 1,22,-1
 648 0 l 1,23,-1
 493 0 l 1,24,-1
 347 303 l 1,25,-1
 245 303 l 1,26,-1
 193 56 l 1,0,-1
335 354 m 2,27,28
 376 354 376 354 412.5 365 c 128,-1,29
 449 376 449 376 476 399 c 128,-1,30
 503 422 503 422 519 457 c 128,-1,31
 535 492 535 492 535 540 c 0,32,33
 535 594 535 594 503 623 c 128,-1,34
 471 652 471 652 395 652 c 0,35,36
 369 652 369 652 351 650 c 128,-1,37
 333 648 333 648 318 646 c 1,38,-1
 256 354 l 1,39,-1
 335 354 l 2,27,28
EndSplineSet
Position2: "'cpsp' Capital Spacing lookup 0 subtable" dx=40 dy=0 dh=80 dv=0
EndChar

StartChar: S
Encoding: 83 83 54
Width: 586
Flags: W
LayerCount: 2
Fore
SplineSet
102 104 m 1,0,-1
 115 80 l 1,1,2
 122 74 122 74 136 67.5 c 128,-1,3
 150 61 150 61 167.5 55.5 c 128,-1,4
 185 50 185 50 204.5 47 c 128,-1,5
 224 44 224 44 243 44 c 0,6,7
 330 44 330 44 377.5 78 c 128,-1,8
 425 112 425 112 425 177 c 0,9,10
 425 216 425 216 403.5 244 c 128,-1,11
 382 272 382 272 350 295 c 128,-1,12
 318 318 318 318 280 339 c 128,-1,13
 242 360 242 360 210 385.5 c 128,-1,14
 178 411 178 411 156.5 444 c 128,-1,15
 135 477 135 477 135 523 c 0,16,17
 135 614 135 614 204 663 c 128,-1,18
 273 712 273 712 406 712 c 0,19,20
 475 712 475 712 520 702.5 c 128,-1,21
 565 693 565 693 597 678 c 1,22,23
 597 678 597 678 595 670.5 c 128,-1,24
 593 663 593 663 591 651 c 128,-1,25
 589 639 589 639 585.5 623.5 c 128,-1,26
 582 608 582 608 579 592 c 0,27,28
 571 554 571 554 561 507 c 1,29,-1
 497 507 l 1,30,-1
 519 614 l 1,31,-1
 508 639 l 1,32,33
 491 647 491 647 459 651.5 c 128,-1,34
 427 656 427 656 392 656 c 0,35,36
 317 656 317 656 282 626 c 128,-1,37
 247 596 247 596 247 554 c 0,38,39
 247 519 247 519 268.5 493.5 c 128,-1,40
 290 468 290 468 322 445.5 c 128,-1,41
 354 423 354 423 392 401.5 c 128,-1,42
 430 380 430 380 462 353.5 c 128,-1,43
 494 327 494 327 515.5 292 c 128,-1,44
 537 257 537 257 537 209 c 0,45,46
 537 159 537 159 517 118.5 c 128,-1,47
 497 78 497 78 458.5 49 c 128,-1,48
 420 20 420 20 363 4 c 128,-1,49
 306 -12 306 -12 232 -12 c 0,50,51
 197 -12 197 -12 164.5 -7 c 128,-1,52
 132 -2 132 -2 105 6 c 128,-1,53
 78 14 78 14 57.5 23 c 128,-1,54
 37 32 37 32 25 41 c 1,55,-1
 63 223 l 1,56,-1
 127 223 l 1,57,-1
 102 104 l 1,0,-1
EndSplineSet
Position2: "'cpsp' Capital Spacing lookup 0 subtable" dx=40 dy=0 dh=80 dv=0
EndChar

StartChar: T
Encoding: 84 84 55
Width: 688
Flags: W
LayerCount: 2
Fore
SplineSet
454 0 m 1,0,-1
 136 0 l 1,1,-1
 148 56 l 1,2,-1
 251 56 l 1,3,-1
 376 644 l 1,4,-1
 196 644 l 1,5,-1
 173 622 l 1,6,-1
 145 493 l 1,7,-1
 73 493 l 1,8,-1
 117 700 l 1,9,-1
 771 700 l 1,10,-1
 727 493 l 1,11,-1
 655 493 l 1,12,-1
 683 622 l 1,13,-1
 666 644 l 1,14,-1
 488 644 l 1,15,-1
 363 56 l 1,16,-1
 466 56 l 1,17,-1
 454 0 l 1,0,-1
EndSplineSet
Position2: "'cpsp' Capital Spacing lookup 0 subtable" dx=40 dy=0 dh=80 dv=0
EndChar

StartChar: U
Encoding: 85 85 56
Width: 752
Flags: W
LayerCount: 2
Fore
SplineSet
657 244 m 2,0,1
 629 112 629 112 551.5 51.5 c 128,-1,2
 474 -9 474 -9 347 -9 c 0,3,4
 280 -9 280 -9 233 6.5 c 128,-1,5
 186 22 186 22 156 49 c 128,-1,6
 126 76 126 76 112.5 113.5 c 128,-1,7
 99 151 99 151 99 196 c 0,8,9
 99 233 99 233 108 275 c 2,10,-1
 186 644 l 1,11,-1
 95 644 l 1,12,-1
 107 700 l 1,13,-1
 391 700 l 1,14,-1
 379 644 l 1,15,-1
 298 644 l 1,16,-1
 220 277 l 2,17,18
 216 257 216 257 213.5 240 c 128,-1,19
 211 223 211 223 211 206 c 0,20,21
 211 134 211 134 251 96 c 128,-1,22
 291 58 291 58 375 58 c 0,23,24
 551 58 551 58 592 246 c 2,25,-1
 678 644 l 1,26,-1
 596 644 l 1,27,-1
 608 700 l 1,28,-1
 845 700 l 1,29,-1
 833 644 l 1,30,-1
 742 644 l 1,31,-1
 657 244 l 2,0,1
EndSplineSet
Position2: "'cpsp' Capital Spacing lookup 0 subtable" dx=40 dy=0 dh=80 dv=0
EndChar

StartChar: V
Encoding: 86 86 57
Width: 771
Flags: W
LayerCount: 2
Fore
SplineSet
699 644 m 1,0,-1
 608 644 l 1,1,-1
 620 700 l 1,2,-1
 873 700 l 1,3,-1
 861 644 l 1,4,-1
 779 644 l 1,5,-1
 410 0 l 1,6,-1
 299 0 l 1,7,-1
 176 644 l 1,8,-1
 90 644 l 1,9,-1
 102 700 l 1,10,-1
 404 700 l 1,11,-1
 392 644 l 1,12,-1
 296 644 l 1,13,-1
 377 177 l 1,14,-1
 386 82 l 1,15,-1
 390 82 l 1,16,-1
 440 179 l 1,17,-1
 699 644 l 1,0,-1
EndSplineSet
Position2: "'cpsp' Capital Spacing lookup 0 subtable" dx=40 dy=0 dh=80 dv=0
EndChar

StartChar: W
Encoding: 87 87 58
Width: 1058
Flags: W
LayerCount: 2
Fore
SplineSet
985 644 m 1,0,-1
 898 644 l 1,1,-1
 910 700 l 1,2,-1
 1160 700 l 1,3,-1
 1148 644 l 1,4,-1
 1065 644 l 1,5,-1
 761 0 l 1,6,-1
 644 0 l 1,7,-1
 605 553 l 1,8,-1
 331 0 l 1,9,-1
 214 0 l 1,10,-1
 176 644 l 1,11,-1
 90 644 l 1,12,-1
 102 700 l 1,13,-1
 398 700 l 1,14,-1
 386 644 l 1,15,-1
 291 644 l 1,16,-1
 307 216 l 2,17,18
 307 213 307 213 306.5 192 c 128,-1,19
 306 171 306 171 306 147 c 0,20,21
 305 119 305 119 305 83 c 1,22,-1
 309 83 l 1,23,-1
 377 218 l 2,24,25
 378 220 378 220 388.5 241.5 c 128,-1,26
 399 263 399 263 416 297.5 c 128,-1,27
 433 332 433 332 454.5 375 c 128,-1,28
 476 418 476 418 498 463 c 0,29,30
 550 568 550 568 616 700 c 1,31,-1
 691 700 l 1,32,-1
 731 218 l 2,33,34
 731 214 731 214 731 193 c 128,-1,35
 731 172 731 172 732 148 c 1,36,37
 732 120 732 120 733 85 c 1,38,-1
 738 85 l 1,39,-1
 797 220 l 1,40,-1
 985 644 l 1,0,-1
EndSplineSet
Position2: "'cpsp' Capital Spacing lookup 0 subtable" dx=40 dy=0 dh=80 dv=0
EndChar

StartChar: X
Encoding: 88 88 59
Width: 746
Flags: W
LayerCount: 2
Fore
SplineSet
542 700 m 1,0,-1
 798 700 l 1,1,-1
 786 644 l 1,2,-1
 704 644 l 1,3,-1
 450 375 l 1,4,-1
 612 56 l 1,5,-1
 703 56 l 1,6,-1
 691 0 l 1,7,-1
 402 0 l 1,8,-1
 414 56 l 1,9,-1
 487 56 l 1,10,-1
 364 303 l 1,11,-1
 146 56 l 1,12,-1
 223 56 l 1,13,-1
 211 0 l 1,14,-1
 -43 0 l 1,15,-1
 -31 56 l 1,16,-1
 52 56 l 1,17,-1
 335 352 l 1,18,-1
 187 644 l 1,19,-1
 98 644 l 1,20,-1
 110 700 l 1,21,-1
 406 700 l 1,22,-1
 394 644 l 1,23,-1
 314 644 l 1,24,-1
 422 421 l 1,25,-1
 618 644 l 1,26,-1
 530 644 l 1,27,-1
 542 700 l 1,0,-1
EndSplineSet
Position2: "'cpsp' Capital Spacing lookup 0 subtable" dx=40 dy=0 dh=80 dv=0
EndChar

StartChar: Y
Encoding: 89 89 60
Width: 727
Flags: W
LayerCount: 2
Fore
SplineSet
575 700 m 1,0,-1
 829 700 l 1,1,-1
 817 644 l 1,2,-1
 732 644 l 1,3,-1
 445 297 l 1,4,-1
 394 56 l 1,5,-1
 477 56 l 1,6,-1
 465 0 l 1,7,-1
 179 0 l 1,8,-1
 191 56 l 1,9,-1
 282 56 l 1,10,-1
 333 296 l 1,11,-1
 181 644 l 1,12,-1
 90 644 l 1,13,-1
 102 700 l 1,14,-1
 401 700 l 1,15,-1
 389 644 l 1,16,-1
 305 644 l 1,17,-1
 419 348 l 1,18,-1
 655 644 l 1,19,-1
 563 644 l 1,20,-1
 575 700 l 1,0,-1
EndSplineSet
Position2: "'cpsp' Capital Spacing lookup 0 subtable" dx=40 dy=0 dh=80 dv=0
EndChar

StartChar: Z
Encoding: 90 90 61
Width: 662
Flags: W
LayerCount: 2
Fore
SplineSet
-4 56 m 1,0,-1
 566 644 l 1,1,-1
 238 644 l 1,2,-1
 214 622 l 1,3,-1
 187 497 l 1,4,-1
 115 497 l 1,5,-1
 158 700 l 1,6,-1
 713 700 l 1,7,-1
 701 644 l 1,8,-1
 131 56 l 1,9,-1
 496 56 l 1,10,-1
 521 78 l 1,11,-1
 547 203 l 1,12,-1
 619 203 l 1,13,-1
 576 0 l 1,14,-1
 -16 0 l 1,15,-1
 -4 56 l 1,0,-1
EndSplineSet
Position2: "'cpsp' Capital Spacing lookup 0 subtable" dx=40 dy=0 dh=80 dv=0
EndChar

StartChar: bracketleft
Encoding: 91 91 62
Width: 336
Flags: W
LayerCount: 2
Fore
SplineSet
185 700 m 1,0,-1
 400 700 l 1,1,-1
 391 658 l 1,2,-1
 275 658 l 1,3,-1
 96 -188 l 1,4,-1
 212 -188 l 1,5,-1
 203 -230 l 1,6,-1
 -12 -230 l 1,7,-1
 185 700 l 1,0,-1
EndSplineSet
Position2: "'case' Case-Sensitive Forms lookup 1 per glyph data 3" dx=0 dy=100 dh=0 dv=0
EndChar

StartChar: backslash
Encoding: 92 92 63
Width: 428
Flags: W
LayerCount: 2
Fore
SplineSet
459 -107 m 1,0,-1
 401 -134 l 1,1,-1
 -54 689 l 1,2,-1
 4 718 l 1,3,-1
 459 -107 l 1,0,-1
EndSplineSet
EndChar

StartChar: bracketright
Encoding: 93 93 64
Width: 336
Flags: W
LayerCount: 2
Fore
SplineSet
155 -230 m 1,0,-1
 -60 -230 l 1,1,-1
 -51 -188 l 1,2,-1
 65 -188 l 1,3,-1
 244 658 l 1,4,-1
 127 658 l 1,5,-1
 136 700 l 1,6,-1
 352 700 l 1,7,-1
 155 -230 l 1,0,-1
EndSplineSet
Position2: "'case' Case-Sensitive Forms lookup 1 per glyph data 3" dx=0 dy=100 dh=0 dv=0
EndChar

StartChar: asciicircum
Encoding: 94 94 65
Width: 600
Flags: W
LayerCount: 2
Fore
SplineSet
284 711 m 1,0,-1
 323 711 l 1,1,-1
 514 434 l 1,2,-1
 412 434 l 1,3,-1
 286 633 l 1,4,-1
 140 434 l 1,5,-1
 76 434 l 1,6,-1
 284 711 l 1,0,-1
EndSplineSet
EndChar

StartChar: underscore
Encoding: 95 95 66
Width: 460
Flags: W
LayerCount: 2
Fore
SplineSet
0 -142 m 1,0,-1
 460 -142 l 1,1,-1
 460 -196 l 1,2,-1
 0 -196 l 1,3,-1
 0 -142 l 1,0,-1
EndSplineSet
EndChar

StartChar: grave
Encoding: 96 96 67
Width: 327
Flags: W
LayerCount: 2
Fore
SplineSet
327 615 m 1,0,-1
 299 592 l 1,1,-1
 103 709 l 1,2,-1
 103 750 l 1,3,-1
 229 750 l 1,4,-1
 327 615 l 1,0,-1
EndSplineSet
EndChar

StartChar: a
Encoding: 97 97 68
Width: 591
Flags: W
LayerCount: 2
Fore
SplineSet
220 54 m 0,0,1
 239 54 239 54 262 65.5 c 128,-1,2
 285 77 285 77 307.5 95 c 128,-1,3
 330 113 330 113 349.5 135.5 c 128,-1,4
 369 158 369 158 382 180 c 1,5,-1
 435 452 l 1,6,7
 425 465 425 465 405.5 473 c 128,-1,8
 386 481 386 481 361 481 c 0,9,10
 310 481 310 481 271 452.5 c 128,-1,11
 232 424 232 424 205 378 c 128,-1,12
 178 332 178 332 164 275.5 c 128,-1,13
 150 219 150 219 150 164 c 0,14,15
 150 54 150 54 220 54 c 0,0,1
370 117 m 1,16,17
 360 100 360 100 342 78 c 128,-1,18
 324 56 324 56 298.5 36.5 c 128,-1,19
 273 17 273 17 241 3.5 c 128,-1,20
 209 -10 209 -10 172 -10 c 0,21,22
 115 -10 115 -10 80.5 29 c 128,-1,23
 46 68 46 68 46 146 c 0,24,25
 46 220 46 220 67 290 c 128,-1,26
 88 360 88 360 128 414.5 c 128,-1,27
 168 469 168 469 226.5 502 c 128,-1,28
 285 535 285 535 361 535 c 0,29,30
 389 535 389 535 414.5 524.5 c 128,-1,31
 440 514 440 514 451 501 c 1,32,-1
 467 525 l 1,33,-1
 544 525 l 1,34,-1
 450 54 l 1,35,-1
 532 54 l 1,36,-1
 532 0 l 1,37,-1
 355 0 l 1,38,-1
 376 117 l 1,39,-1
 370 117 l 1,16,17
EndSplineSet
Substitution2: "Single Substitution lookup 17 subtable" ordfeminine
EndChar

StartChar: b
Encoding: 98 98 69
Width: 582
Flags: W
LayerCount: 2
Fore
SplineSet
176 696 m 1,0,-1
 102 696 l 1,1,-1
 102 750 l 1,2,-1
 285 750 l 1,3,-1
 213 431 l 1,4,-1
 219 431 l 1,5,6
 252 477 252 477 299 506 c 128,-1,7
 346 535 346 535 412 535 c 0,8,9
 470 535 470 535 505.5 497 c 128,-1,10
 541 459 541 459 541 377 c 0,11,12
 541 297 541 297 517.5 226.5 c 128,-1,13
 494 156 494 156 450.5 103.5 c 128,-1,14
 407 51 407 51 346.5 20.5 c 128,-1,15
 286 -10 286 -10 211 -10 c 0,16,17
 156 -10 156 -10 108.5 3.5 c 128,-1,18
 61 17 61 17 38 36 c 1,19,-1
 176 696 l 1,0,-1
352 468 m 0,20,21
 330 468 330 468 308 460 c 128,-1,22
 286 452 286 452 267 439 c 128,-1,23
 248 426 248 426 233 409.5 c 128,-1,24
 218 393 218 393 210 377 c 1,25,-1
 143 59 l 1,26,27
 160 49 160 49 184 46.5 c 128,-1,28
 208 44 208 44 231 44 c 0,29,30
 277 44 277 44 315 70.5 c 128,-1,31
 353 97 353 97 380 141 c 128,-1,32
 407 185 407 185 422 241.5 c 128,-1,33
 437 298 437 298 437 358 c 0,34,35
 437 408 437 408 419 438 c 128,-1,36
 401 468 401 468 352 468 c 0,20,21
EndSplineSet
EndChar

StartChar: c
Encoding: 99 99 70
Width: 472
Flags: W
LayerCount: 2
Fore
SplineSet
436 99 m 1,0,1
 408 47 408 47 356 18.5 c 128,-1,2
 304 -10 304 -10 228 -10 c 0,3,4
 185 -10 185 -10 151 5.5 c 128,-1,5
 117 21 117 21 93 47 c 128,-1,6
 69 73 69 73 56.5 108.5 c 128,-1,7
 44 144 44 144 44 183 c 0,8,9
 44 261 44 261 65 326 c 128,-1,10
 86 391 86 391 126.5 437.5 c 128,-1,11
 167 484 167 484 225 509.5 c 128,-1,12
 283 535 283 535 357 535 c 0,13,14
 399 535 399 535 435 524.5 c 128,-1,15
 471 514 471 514 486 497 c 1,16,-1
 456 378 l 1,17,-1
 386 378 l 1,18,-1
 407 468 l 1,19,20
 399 475 399 475 380.5 478 c 128,-1,21
 362 481 362 481 347 481 c 0,22,23
 302 481 302 481 265.5 461.5 c 128,-1,24
 229 442 229 442 202.5 407 c 128,-1,25
 176 372 176 372 162 322.5 c 128,-1,26
 148 273 148 273 148 212 c 0,27,28
 148 140 148 140 181 98.5 c 128,-1,29
 214 57 214 57 268 57 c 0,30,31
 313 57 313 57 347.5 76.5 c 128,-1,32
 382 96 382 96 403 125 c 1,33,-1
 436 99 l 1,0,1
EndSplineSet
EndChar

StartChar: d
Encoding: 100 100 71
Width: 591
Flags: W
LayerCount: 2
Fore
SplineSet
230 54 m 0,0,1
 256 54 256 54 278.5 63 c 128,-1,2
 301 72 301 72 320 87 c 128,-1,3
 339 102 339 102 354.5 121 c 128,-1,4
 370 140 370 140 381 160 c 1,5,-1
 440 461 l 1,6,7
 424 472 424 472 410.5 476.5 c 128,-1,8
 397 481 397 481 372 481 c 0,9,10
 319 481 319 481 278.5 452.5 c 128,-1,11
 238 424 238 424 210 378.5 c 128,-1,12
 182 333 182 333 167.5 276.5 c 128,-1,13
 153 220 153 220 153 164 c 0,14,15
 153 110 153 110 174.5 82 c 128,-1,16
 196 54 196 54 230 54 c 0,0,1
365 104 m 1,17,18
 354 84 354 84 337 63.5 c 128,-1,19
 320 43 320 43 297 26.5 c 128,-1,20
 274 10 274 10 245 0 c 128,-1,21
 216 -10 216 -10 182 -10 c 0,22,23
 153 -10 153 -10 129 1 c 128,-1,24
 105 12 105 12 87 32 c 128,-1,25
 69 52 69 52 59 81.5 c 128,-1,26
 49 111 49 111 49 147 c 0,27,28
 49 221 49 221 71 291 c 128,-1,29
 93 361 93 361 134.5 415 c 128,-1,30
 176 469 176 469 236 502 c 128,-1,31
 296 535 296 535 371 535 c 0,32,33
 386 535 386 535 396.5 534 c 128,-1,34
 407 533 407 533 415.5 531 c 128,-1,35
 424 529 424 529 432 525.5 c 128,-1,36
 440 522 440 522 451 518 c 1,37,-1
 488 696 l 1,38,-1
 415 696 l 1,39,-1
 415 750 l 1,40,-1
 598 750 l 1,41,-1
 453 50 l 1,42,-1
 534 50 l 1,43,-1
 534 0 l 1,44,-1
 357 0 l 1,45,-1
 370 104 l 1,46,-1
 365 104 l 1,17,18
EndSplineSet
EndChar

StartChar: e
Encoding: 101 101 72
Width: 501
Flags: W
LayerCount: 2
Fore
SplineSet
435 96 m 1,0,1
 424 76 424 76 405 57 c 128,-1,2
 386 38 386 38 360 23 c 128,-1,3
 334 8 334 8 302 -1 c 128,-1,4
 270 -10 270 -10 233 -10 c 0,5,6
 147 -10 147 -10 95.5 38.5 c 128,-1,7
 44 87 44 87 44 175 c 0,8,9
 44 250 44 250 66 316 c 128,-1,10
 88 382 88 382 128 430 c 128,-1,11
 168 478 168 478 224.5 506.5 c 128,-1,12
 281 535 281 535 350 535 c 0,13,14
 377 535 377 535 401 528.5 c 128,-1,15
 425 522 425 522 443 509 c 128,-1,16
 461 496 461 496 471 477 c 128,-1,17
 481 458 481 458 481 433 c 0,18,19
 481 361 481 361 405 317 c 128,-1,20
 329 273 329 273 156 261 c 1,21,22
 152 243 152 243 150 227 c 128,-1,23
 148 211 148 211 148 195 c 0,24,25
 148 132 148 132 180.5 94.5 c 128,-1,26
 213 57 213 57 276 57 c 0,27,28
 296 57 296 57 315.5 63 c 128,-1,29
 335 69 335 69 353 78.5 c 128,-1,30
 371 88 371 88 385.5 100 c 128,-1,31
 400 112 400 112 409 123 c 1,32,-1
 435 96 l 1,0,1
317 488 m 0,33,34
 270 488 270 488 231 446.5 c 128,-1,35
 192 405 192 405 164 308 c 1,36,37
 270 311 270 311 326.5 343 c 128,-1,38
 383 375 383 375 383 429 c 0,39,40
 383 440 383 440 380 450.5 c 128,-1,41
 377 461 377 461 369.5 469.5 c 128,-1,42
 362 478 362 478 349.5 483 c 128,-1,43
 337 488 337 488 317 488 c 0,33,34
EndSplineSet
EndChar

StartChar: f
Encoding: 102 102 73
Width: 327
Flags: W
LayerCount: 2
Fore
SplineSet
140 471 m 1,0,-1
 61 471 l 1,1,-1
 61 525 l 1,2,-1
 154 525 l 1,3,-1
 162 571 l 2,4,5
 171 621 171 621 191.5 655 c 128,-1,6
 212 689 212 689 243 710 c 128,-1,7
 274 731 274 731 313 740.5 c 128,-1,8
 352 750 352 750 397 750 c 0,9,10
 416 750 416 750 441 745.5 c 128,-1,11
 466 741 466 741 484 733 c 1,12,-1
 457 619 l 1,13,-1
 400 619 l 1,14,-1
 414 688 l 1,15,16
 403 692 403 692 391 694 c 128,-1,17
 379 696 379 696 368 696 c 0,18,19
 330 696 330 696 301.5 670 c 128,-1,20
 273 644 273 644 259 577 c 2,21,-1
 248 525 l 1,22,-1
 370 525 l 1,23,-1
 370 471 l 1,24,-1
 237 471 l 1,25,-1
 167 45 l 2,26,27
 155 -29 155 -29 127.5 -76 c 128,-1,28
 100 -123 100 -123 68.5 -150.5 c 128,-1,29
 37 -178 37 -178 7 -190 c 128,-1,30
 -23 -202 -23 -202 -41 -207 c 1,31,-1
 -60 -166 l 1,32,33
 -46 -160 -46 -160 -27.5 -149 c 128,-1,34
 -9 -138 -9 -138 10 -116.5 c 128,-1,35
 29 -95 29 -95 45 -61 c 128,-1,36
 61 -27 61 -27 70 25 c 2,37,-1
 140 471 l 1,0,-1
EndSplineSet
EndChar

StartChar: g
Encoding: 103 103 74
Width: 538
Flags: W
LayerCount: 2
Fore
SplineSet
367 -55 m 0,0,1
 367 -27 367 -27 341.5 -8.5 c 128,-1,2
 316 10 316 10 271 22.5 c 128,-1,3
 226 35 226 35 164.5 43 c 128,-1,4
 103 51 103 51 31 58 c 1,5,-1
 130 197 l 1,6,7
 116 204 116 204 101.5 214.5 c 128,-1,8
 87 225 87 225 76 241 c 128,-1,9
 65 257 65 257 58 278.5 c 128,-1,10
 51 300 51 300 51 328 c 0,11,12
 51 377 51 377 69.5 415.5 c 128,-1,13
 88 454 88 454 122 480.5 c 128,-1,14
 156 507 156 507 202.5 521 c 128,-1,15
 249 535 249 535 306 535 c 2,16,-1
 578 535 l 1,17,-1
 578 481 l 1,18,-1
 469 481 l 1,19,20
 476 469 476 469 480 444 c 128,-1,21
 484 419 484 419 484 395 c 0,22,23
 484 340 484 340 463.5 298.5 c 128,-1,24
 443 257 443 257 409 228.5 c 128,-1,25
 375 200 375 200 330.5 185.5 c 128,-1,26
 286 171 286 171 238 171 c 0,27,28
 217 171 217 171 196 173 c 128,-1,29
 175 175 175 175 168 179 c 1,30,-1
 124 117 l 1,31,32
 178 113 178 113 239 107 c 128,-1,33
 300 101 300 101 351.5 86 c 128,-1,34
 403 71 403 71 437 44 c 128,-1,35
 471 17 471 17 471 -28 c 0,36,37
 471 -72 471 -72 447 -106 c 128,-1,38
 423 -140 423 -140 383.5 -163 c 128,-1,39
 344 -186 344 -186 292 -198 c 128,-1,40
 240 -210 240 -210 184 -210 c 0,41,42
 136 -210 136 -210 93.5 -201 c 128,-1,43
 51 -192 51 -192 18.5 -175.5 c 128,-1,44
 -14 -159 -14 -159 -32.5 -136.5 c 128,-1,45
 -51 -114 -51 -114 -51 -86 c 0,46,47
 -51 -53 -51 -53 -29 -31 c 128,-1,48
 -7 -9 -7 -9 21 0 c 1,49,-1
 76 0 l 1,50,51
 62 -12 62 -12 53.5 -29.5 c 128,-1,52
 45 -47 45 -47 45 -63 c 0,53,54
 45 -87 45 -87 59 -104.5 c 128,-1,55
 73 -122 73 -122 95 -133.5 c 128,-1,56
 117 -145 117 -145 144.5 -150.5 c 128,-1,57
 172 -156 172 -156 200 -156 c 0,58,59
 241 -156 241 -156 272 -147.5 c 128,-1,60
 303 -139 303 -139 324 -124.5 c 128,-1,61
 345 -110 345 -110 356 -92 c 128,-1,62
 367 -74 367 -74 367 -55 c 0,0,1
311 485 m 2,63,64
 237 485 237 485 190.5 445.5 c 128,-1,65
 144 406 144 406 144 321 c 0,66,67
 144 294 144 294 152.5 274 c 128,-1,68
 161 254 161 254 174.5 240.5 c 128,-1,69
 188 227 188 227 205.5 220.5 c 128,-1,70
 223 214 223 214 241 214 c 0,71,72
 275 214 275 214 303.5 226 c 128,-1,73
 332 238 332 238 352 259.5 c 128,-1,74
 372 281 372 281 383 311 c 128,-1,75
 394 341 394 341 394 378 c 0,76,77
 394 416 394 416 386.5 442.5 c 128,-1,78
 379 469 379 469 365 485 c 1,79,-1
 311 485 l 2,63,64
EndSplineSet
EndChar

StartChar: h
Encoding: 104 104 75
Width: 601
Flags: W
LayerCount: 2
Fore
SplineSet
113 696 m 1,0,-1
 113 750 l 1,1,-1
 294 750 l 1,2,-1
 223 441 l 1,3,-1
 229 441 l 1,4,5
 267 480 267 480 314 507.5 c 128,-1,6
 361 535 361 535 427 535 c 0,7,8
 529 535 529 535 529 415 c 0,9,10
 529 386 529 386 523.5 353.5 c 128,-1,11
 518 321 518 321 510 291 c 2,12,-1
 449 54 l 1,13,-1
 534 54 l 1,14,-1
 534 0 l 1,15,-1
 347 0 l 1,16,-1
 410 273 l 2,17,18
 418 305 418 305 424.5 334 c 128,-1,19
 431 363 431 363 431 389 c 0,20,21
 431 426 431 426 415.5 447 c 128,-1,22
 400 468 400 468 368 468 c 0,23,24
 345 468 345 468 323 461.5 c 128,-1,25
 301 455 301 455 281 445 c 128,-1,26
 261 435 261 435 244 422 c 128,-1,27
 227 409 227 409 215 396 c 1,28,-1
 133 0 l 1,29,-1
 37 0 l 1,30,-1
 185 696 l 1,31,-1
 113 696 l 1,0,-1
EndSplineSet
EndChar

StartChar: i
Encoding: 105 105 76
Width: 307
Flags: W
LayerCount: 2
Fore
SplineSet
76 471 m 1,0,-1
 76 525 l 1,1,-1
 257 525 l 1,2,-1
 153 54 l 1,3,-1
 235 54 l 1,4,-1
 235 0 l 1,5,-1
 42 0 l 1,6,-1
 149 471 l 1,7,-1
 76 471 l 1,0,-1
143 687 m 256,8,9
 143 716 143 716 163.5 733 c 128,-1,10
 184 750 184 750 216 750 c 0,11,12
 250 750 250 750 269.5 733 c 128,-1,13
 289 716 289 716 289 687 c 256,14,15
 289 658 289 658 269.5 641 c 128,-1,16
 250 624 250 624 216 624 c 0,17,18
 184 624 184 624 163.5 641 c 128,-1,19
 143 658 143 658 143 687 c 256,8,9
EndSplineSet
EndChar

StartChar: j
Encoding: 106 106 77
Width: 300
Flags: W
LayerCount: 2
Fore
SplineSet
147 471 m 1,0,-1
 79 471 l 1,1,-1
 79 525 l 1,2,-1
 256 525 l 1,3,-1
 151 45 l 2,4,5
 134 -30 134 -30 103.5 -77 c 128,-1,6
 73 -124 73 -124 39 -152 c 128,-1,7
 5 -180 5 -180 -27 -192 c 128,-1,8
 -59 -204 -59 -204 -77 -209 c 1,9,-1
 -93 -168 l 1,10,11
 -80 -162 -80 -162 -60.5 -151.5 c 128,-1,12
 -41 -141 -41 -141 -21 -120 c 128,-1,13
 -1 -99 -1 -99 18 -64.5 c 128,-1,14
 37 -30 37 -30 49 25 c 2,15,-1
 147 471 l 1,0,-1
138 687 m 256,16,17
 138 716 138 716 158.5 733 c 128,-1,18
 179 750 179 750 211 750 c 0,19,20
 245 750 245 750 264.5 733 c 128,-1,21
 284 716 284 716 284 687 c 256,22,23
 284 658 284 658 264.5 641 c 128,-1,24
 245 624 245 624 211 624 c 0,25,26
 179 624 179 624 158.5 641 c 128,-1,27
 138 658 138 658 138 687 c 256,16,17
EndSplineSet
EndChar

StartChar: k
Encoding: 107 107 78
Width: 533
Flags: W
LayerCount: 2
Fore
SplineSet
225 249 m 1,0,-1
 186 249 l 1,1,-1
 135 0 l 1,2,-1
 37 0 l 1,3,-1
 183 696 l 1,4,-1
 110 696 l 1,5,-1
 110 750 l 1,6,-1
 290 750 l 1,7,-1
 195 289 l 1,8,-1
 227 289 l 1,9,-1
 386 448 l 1,10,-1
 386 525 l 1,11,-1
 519 525 l 1,12,-1
 519 483 l 1,13,-1
 308 299 l 1,14,-1
 444 54 l 1,15,-1
 502 54 l 1,16,-1
 502 0 l 1,17,-1
 357 0 l 1,18,-1
 225 249 l 1,0,-1
EndSplineSet
EndChar

StartChar: l
Encoding: 108 108 79
Width: 297
Flags: W
LayerCount: 2
Fore
SplineSet
175 696 m 1,0,-1
 102 696 l 1,1,-1
 102 750 l 1,2,-1
 283 750 l 1,3,-1
 161 169 l 2,4,5
 156 147 156 147 155 133 c 128,-1,6
 154 119 154 119 154 106 c 0,7,8
 154 78 154 78 164 67.5 c 128,-1,9
 174 57 174 57 189 57 c 0,10,11
 215 57 215 57 238 73 c 128,-1,12
 261 89 261 89 281 106 c 1,13,-1
 304 71 l 1,14,15
 293 57 293 57 276 43 c 128,-1,16
 259 29 259 29 238 17 c 128,-1,17
 217 5 217 5 193 -2.5 c 128,-1,18
 169 -10 169 -10 145 -10 c 0,19,20
 96 -10 96 -10 73 14 c 128,-1,21
 50 38 50 38 50 75 c 0,22,23
 50 91 50 91 52.5 108.5 c 128,-1,24
 55 126 55 126 59 145 c 2,25,-1
 175 696 l 1,0,-1
EndSplineSet
EndChar

StartChar: m
Encoding: 109 109 80
Width: 883
Flags: W
LayerCount: 2
Fore
SplineSet
698 315 m 2,0,1
 705 341 705 341 711.5 368.5 c 128,-1,2
 718 396 718 396 718 413 c 0,3,4
 718 439 718 439 705.5 455 c 128,-1,5
 693 471 693 471 661 471 c 0,6,7
 644 471 644 471 623 462 c 128,-1,8
 602 453 602 453 581.5 439.5 c 128,-1,9
 561 426 561 426 543.5 409 c 128,-1,10
 526 392 526 392 517 376 c 1,11,-1
 425 0 l 1,12,-1
 333 0 l 1,13,-1
 402 295 l 2,14,15
 410 327 410 327 415.5 357.5 c 128,-1,16
 421 388 421 388 421 420 c 0,17,18
 421 443 421 443 412 457 c 128,-1,19
 403 471 403 471 381 471 c 256,20,21
 359 471 359 471 337.5 463 c 128,-1,22
 316 455 316 455 296.5 442 c 128,-1,23
 277 429 277 429 260.5 412 c 128,-1,24
 244 395 244 395 230 376 c 1,25,-1
 144 0 l 1,26,-1
 46 0 l 1,27,-1
 149 471 l 1,28,-1
 81 471 l 1,29,-1
 81 525 l 1,30,-1
 260 525 l 1,31,-1
 238 438 l 1,32,-1
 242 438 l 1,33,34
 254 452 254 452 272 469 c 128,-1,35
 290 486 290 486 313 500.5 c 128,-1,36
 336 515 336 515 364.5 525 c 128,-1,37
 393 535 393 535 426 535 c 0,38,39
 466 535 466 535 491 512.5 c 128,-1,40
 516 490 516 490 516 434 c 1,41,42
 564 480 564 480 613 507.5 c 128,-1,43
 662 535 662 535 719 535 c 0,44,45
 816 535 816 535 816 434 c 0,46,47
 816 407 816 407 810.5 378 c 128,-1,48
 805 349 805 349 795 315 c 2,49,-1
 721 54 l 1,50,-1
 804 54 l 1,51,-1
 804 0 l 1,52,-1
 614 0 l 1,53,-1
 698 315 l 2,0,1
EndSplineSet
EndChar

StartChar: n
Encoding: 110 110 81
Width: 610
Flags: W
LayerCount: 2
Fore
SplineSet
425 299 m 2,0,1
 433 331 433 331 439 359.5 c 128,-1,2
 445 388 445 388 445 415 c 0,3,4
 445 438 445 438 433 454.5 c 128,-1,5
 421 471 421 471 397 471 c 0,6,7
 367 471 367 471 339.5 459 c 128,-1,8
 312 447 312 447 289 429.5 c 128,-1,9
 266 412 266 412 248.5 393 c 128,-1,10
 231 374 231 374 221 360 c 1,11,-1
 143 0 l 1,12,-1
 46 0 l 1,13,-1
 145 471 l 1,14,-1
 76 471 l 1,15,-1
 76 525 l 1,16,-1
 254 525 l 1,17,-1
 231 421 l 1,18,-1
 236 421 l 1,19,20
 278 472 278 472 330 503.5 c 128,-1,21
 382 535 382 535 442 535 c 0,22,23
 496 535 496 535 519.5 508.5 c 128,-1,24
 543 482 543 482 543 440 c 0,25,26
 543 417 543 417 537.5 382 c 128,-1,27
 532 347 532 347 524 317 c 2,28,-1
 461 54 l 1,29,-1
 543 54 l 1,30,-1
 543 0 l 1,31,-1
 456 0 l 1,32,-1
 358 0 l 1,33,-1
 425 299 l 2,0,1
EndSplineSet
EndChar

StartChar: o
Encoding: 111 111 82
Width: 564
Flags: W
LayerCount: 2
Fore
SplineSet
44 195 m 0,0,1
 44 251 44 251 62.5 311.5 c 128,-1,2
 81 372 81 372 118.5 421 c 128,-1,3
 156 470 156 470 212.5 502.5 c 128,-1,4
 269 535 269 535 345 535 c 0,5,6
 432 535 432 535 476 484 c 128,-1,7
 520 433 520 433 520 335 c 0,8,9
 520 266 520 266 499 204 c 128,-1,10
 478 142 478 142 440 95 c 128,-1,11
 402 48 402 48 349 19 c 128,-1,12
 296 -10 296 -10 231 -10 c 0,13,14
 146 -10 146 -10 95 42.5 c 128,-1,15
 44 95 44 95 44 195 c 0,0,1
323 488 m 0,16,17
 288 488 288 488 261 473 c 128,-1,18
 234 458 234 458 215 432.5 c 128,-1,19
 196 407 196 407 183 374.5 c 128,-1,20
 170 342 170 342 162 306.5 c 128,-1,21
 154 271 154 271 151 236.5 c 128,-1,22
 148 202 148 202 148 171 c 0,23,24
 148 113 148 113 175.5 75 c 128,-1,25
 203 37 203 37 251 37 c 0,26,27
 289 37 289 37 319.5 65 c 128,-1,28
 350 93 350 93 371.5 136.5 c 128,-1,29
 393 180 393 180 404.5 236 c 128,-1,30
 416 292 416 292 416 351 c 0,31,32
 416 413 416 413 393.5 450.5 c 128,-1,33
 371 488 371 488 323 488 c 0,16,17
EndSplineSet
Substitution2: "Single Substitution lookup 17 subtable" ordmasculine
EndChar

StartChar: q
Encoding: 113 113 84
Width: 570
Flags: W
LayerCount: 2
Fore
SplineSet
394 -150 m 1,0,-1
 471 -150 l 1,1,-1
 471 -200 l 1,2,-1
 285 -200 l 1,3,-1
 356 98 l 1,4,-1
 352 98 l 1,5,6
 341 80 341 80 322.5 61 c 128,-1,7
 304 42 304 42 280 26 c 128,-1,8
 256 10 256 10 228 0 c 128,-1,9
 200 -10 200 -10 170 -10 c 0,10,11
 105 -10 105 -10 74.5 33.5 c 128,-1,12
 44 77 44 77 44 147 c 0,13,14
 44 222 44 222 65 292 c 128,-1,15
 86 362 86 362 127.5 416 c 128,-1,16
 169 470 169 470 231 502.5 c 128,-1,17
 293 535 293 535 374 535 c 0,18,19
 398 535 398 535 423.5 532 c 128,-1,20
 449 529 449 529 471.5 524 c 128,-1,21
 494 519 494 519 512.5 513.5 c 128,-1,22
 531 508 531 508 542 502 c 1,23,-1
 394 -150 l 1,0,-1
217 57 m 0,24,25
 238 57 238 57 261.5 66.5 c 128,-1,26
 285 76 285 76 306 91 c 128,-1,27
 327 106 327 106 343.5 123 c 128,-1,28
 360 140 360 140 369 155 c 1,29,-1
 437 474 l 1,30,31
 423 482 423 482 408 485 c 128,-1,32
 393 488 393 488 368 488 c 0,33,34
 312 488 312 488 270.5 458 c 128,-1,35
 229 428 229 428 202 381.5 c 128,-1,36
 175 335 175 335 161.5 277 c 128,-1,37
 148 219 148 219 148 164 c 0,38,39
 148 110 148 110 166.5 83.5 c 128,-1,40
 185 57 185 57 217 57 c 0,24,25
EndSplineSet
EndChar

StartChar: r
Encoding: 114 114 85
Width: 418
Flags: W
LayerCount: 2
Fore
SplineSet
341 429 m 1,0,1
 331 427 331 427 317.5 423.5 c 128,-1,2
 304 420 304 420 289 414 c 128,-1,3
 274 408 274 408 258 398 c 128,-1,4
 242 388 242 388 227 373 c 1,5,-1
 145 0 l 1,6,-1
 47 0 l 1,7,-1
 150 471 l 1,8,-1
 81 471 l 1,9,-1
 81 525 l 1,10,-1
 258 525 l 1,11,-1
 234 423 l 1,12,-1
 239 423 l 1,13,14
 259 454 259 454 288 483.5 c 128,-1,15
 317 513 317 513 343 525 c 1,16,-1
 423 525 l 1,17,-1
 423 429 l 1,18,-1
 341 429 l 1,0,1
EndSplineSet
EndChar

StartChar: s
Encoding: 115 115 86
Width: 471
Flags: W
LayerCount: 2
Fore
SplineSet
183 44 m 0,0,1
 201 44 201 44 221.5 47.5 c 128,-1,2
 242 51 242 51 259 60 c 128,-1,3
 276 69 276 69 287 84.5 c 128,-1,4
 298 100 298 100 298 124 c 0,5,6
 298 149 298 149 282.5 168 c 128,-1,7
 267 187 267 187 244 204.5 c 128,-1,8
 221 222 221 222 193.5 239.5 c 128,-1,9
 166 257 166 257 143 277.5 c 128,-1,10
 120 298 120 298 104.5 324 c 128,-1,11
 89 350 89 350 89 385 c 0,12,13
 89 422 89 422 106 450.5 c 128,-1,14
 123 479 123 479 152 497.5 c 128,-1,15
 181 516 181 516 221 525.5 c 128,-1,16
 261 535 261 535 306 535 c 0,17,18
 327 535 327 535 347.5 532 c 128,-1,19
 368 529 368 529 385.5 524.5 c 128,-1,20
 403 520 403 520 416 514 c 128,-1,21
 429 508 429 508 435 503 c 1,22,-1
 405 386 l 1,23,-1
 343 386 l 1,24,-1
 360 468 l 1,25,26
 352 474 352 474 331.5 477.5 c 128,-1,27
 311 481 311 481 296 481 c 0,28,29
 280 481 280 481 261.5 478.5 c 128,-1,30
 243 476 243 476 227 468.5 c 128,-1,31
 211 461 211 461 200.5 447.5 c 128,-1,32
 190 434 190 434 190 412 c 0,33,34
 190 385 190 385 205.5 365 c 128,-1,35
 221 345 221 345 245 328 c 128,-1,36
 269 311 269 311 296 294 c 128,-1,37
 323 277 323 277 347 256.5 c 128,-1,38
 371 236 371 236 386.5 209.5 c 128,-1,39
 402 183 402 183 402 146 c 0,40,41
 402 108 402 108 382 79 c 128,-1,42
 362 50 362 50 329 30 c 128,-1,43
 296 10 296 10 252.5 0 c 128,-1,44
 209 -10 209 -10 163 -10 c 0,45,46
 137 -10 137 -10 111.5 -5 c 128,-1,47
 86 0 86 0 64.5 7.5 c 128,-1,48
 43 15 43 15 27.5 23.5 c 128,-1,49
 12 32 12 32 6 38 c 1,50,-1
 44 157 l 1,51,-1
 112 157 l 1,52,-1
 86 74 l 1,53,54
 97 63 97 63 122 53.5 c 128,-1,55
 147 44 147 44 183 44 c 0,0,1
EndSplineSet
Substitution2: "'hist' Historical Forms lookup 16 subtable" longs
Substitution2: "'aalt' Access All Alternates lookup 0 subtable" longs
EndChar

StartChar: t
Encoding: 116 116 87
Width: 395
Flags: W
LayerCount: 2
Fore
SplineSet
58 525 m 1,0,-1
 164 525 l 1,1,-1
 193 640 l 1,2,-1
 287 640 l 1,3,-1
 260 525 l 1,4,-1
 395 525 l 1,5,-1
 395 471 l 1,6,-1
 249 471 l 1,7,-1
 171 169 l 2,8,9
 166 149 166 149 164 133 c 128,-1,10
 162 117 162 117 162 100 c 0,11,12
 162 54 162 54 214 54 c 0,13,14
 241 54 241 54 275 66.5 c 128,-1,15
 309 79 309 79 335 102 c 1,16,-1
 356 62 l 1,17,18
 345 50 345 50 325.5 37 c 128,-1,19
 306 24 306 24 281 13.5 c 128,-1,20
 256 3 256 3 226 -3.5 c 128,-1,21
 196 -10 196 -10 164 -10 c 0,22,23
 115 -10 115 -10 88 14 c 128,-1,24
 61 38 61 38 61 75 c 0,25,26
 61 91 61 91 62 108.5 c 128,-1,27
 63 126 63 126 68 145 c 2,28,-1
 150 471 l 1,29,-1
 58 471 l 1,30,-1
 58 525 l 1,0,-1
EndSplineSet
EndChar

StartChar: u
Encoding: 117 117 88
Width: 600
Flags: W
LayerCount: 2
Fore
SplineSet
540 54 m 1,0,-1
 540 0 l 1,1,-1
 356 0 l 1,2,-1
 377 118 l 1,3,-1
 373 118 l 1,4,5
 358 97 358 97 336 74.5 c 128,-1,6
 314 52 314 52 286.5 33.5 c 128,-1,7
 259 15 259 15 226.5 2.5 c 128,-1,8
 194 -10 194 -10 158 -10 c 0,9,10
 112 -10 112 -10 85 14.5 c 128,-1,11
 58 39 58 39 58 86 c 0,12,13
 58 100 58 100 60.5 122.5 c 128,-1,14
 63 145 63 145 69 174 c 2,15,-1
 132 471 l 1,16,-1
 63 471 l 1,17,-1
 63 525 l 1,18,-1
 243 525 l 1,19,-1
 174 226 l 2,20,21
 168 200 168 200 162 170.5 c 128,-1,22
 156 141 156 141 156 113 c 0,23,24
 156 83 156 83 169 68.5 c 128,-1,25
 182 54 182 54 203 54 c 0,26,27
 237 54 237 54 267.5 70 c 128,-1,28
 298 86 298 86 322.5 107.5 c 128,-1,29
 347 129 347 129 363.5 152 c 128,-1,30
 380 175 380 175 388 190 c 1,31,-1
 455 525 l 1,32,-1
 550 525 l 1,33,-1
 459 54 l 1,34,-1
 540 54 l 1,0,-1
EndSplineSet
EndChar

StartChar: v
Encoding: 118 118 89
Width: 496
Flags: W
LayerCount: 2
Fore
SplineSet
257 128 m 1,0,-1
 399 409 l 1,1,-1
 379 525 l 1,2,-1
 502 525 l 1,3,-1
 502 471 l 1,4,-1
 250 0 l 1,5,-1
 150 0 l 1,6,-1
 86 471 l 1,7,-1
 17 471 l 1,8,-1
 17 525 l 1,9,-1
 179 525 l 1,10,-1
 222 119 l 1,11,-1
 222 54 l 1,12,-1
 231 54 l 1,13,-1
 257 128 l 1,0,-1
EndSplineSet
EndChar

StartChar: w
Encoding: 119 119 90
Width: 761
Flags: W
LayerCount: 2
Fore
SplineSet
548 122 m 1,0,-1
 666 399 l 1,1,-1
 646 525 l 1,2,-1
 767 525 l 1,3,-1
 767 471 l 1,4,-1
 551 0 l 1,5,-1
 441 0 l 1,6,-1
 402 282 l 1,7,-1
 395 370 l 1,8,-1
 390 370 l 1,9,-1
 234 0 l 1,10,-1
 117 0 l 1,11,-1
 88 471 l 1,12,-1
 17 471 l 1,13,-1
 17 525 l 1,14,-1
 182 525 l 1,15,-1
 198 54 l 1,16,-1
 203 54 l 1,17,-1
 232 136 l 1,18,-1
 374 471 l 1,19,-1
 466 471 l 1,20,-1
 522 54 l 1,21,-1
 527 54 l 1,22,-1
 548 122 l 1,0,-1
EndSplineSet
EndChar

StartChar: x
Encoding: 120 120 91
Width: 502
Flags: W
LayerCount: 2
Fore
SplineSet
221 223 m 1,0,-1
 108 90 l 1,1,-1
 124 0 l 1,2,-1
 -5 0 l 1,3,-1
 -5 54 l 1,4,-1
 206 266 l 1,5,-1
 130 471 l 1,6,-1
 62 471 l 1,7,-1
 62 525 l 1,8,-1
 218 525 l 1,9,-1
 284 318 l 1,10,-1
 391 434 l 1,11,-1
 383 525 l 1,12,-1
 499 525 l 1,13,-1
 499 471 l 1,14,-1
 298 271 l 1,15,-1
 382 54 l 1,16,-1
 448 54 l 1,17,-1
 448 0 l 1,18,-1
 293 0 l 1,19,-1
 221 223 l 1,0,-1
EndSplineSet
EndChar

StartChar: y
Encoding: 121 121 92
Width: 508
Flags: W
LayerCount: 2
Fore
SplineSet
96 471 m 1,0,-1
 35 471 l 1,1,-1
 35 525 l 1,2,-1
 184 525 l 1,3,-1
 262 109 l 1,4,-1
 262 54 l 1,5,-1
 270 54 l 1,6,-1
 297 106 l 1,7,8
 314 143 314 143 332 185 c 128,-1,9
 350 227 350 227 367.5 269 c 128,-1,10
 385 311 385 311 400 351.5 c 128,-1,11
 415 392 415 392 425 428 c 1,12,-1
 397 525 l 1,13,-1
 520 525 l 1,14,-1
 520 471 l 1,15,16
 504 427 504 427 480.5 368.5 c 128,-1,17
 457 310 457 310 429 246.5 c 128,-1,18
 401 183 401 183 369 117 c 128,-1,19
 337 51 337 51 304.5 -8.5 c 128,-1,20
 272 -68 272 -68 239.5 -118 c 128,-1,21
 207 -168 207 -168 178 -200 c 1,22,-1
 63 -200 l 1,23,-1
 63 -104 l 1,24,-1
 174 -104 l 1,25,26
 188 -87 188 -87 202.5 -65 c 128,-1,27
 217 -43 217 -43 231 0 c 1,28,-1
 182 0 l 1,29,-1
 96 471 l 1,0,-1
EndSplineSet
EndChar

StartChar: z
Encoding: 122 122 93
Width: 483
Flags: W
LayerCount: 2
Fore
SplineSet
373 441 m 1,0,-1
 138 441 l 1,1,-1
 110 369 l 1,2,-1
 53 369 l 1,3,-1
 86 525 l 1,4,-1
 476 525 l 1,5,-1
 476 471 l 1,6,-1
 113 84 l 1,7,-1
 375 84 l 1,8,-1
 402 156 l 1,9,-1
 460 156 l 1,10,-1
 426 0 l 1,11,-1
 9 0 l 1,12,-1
 9 54 l 1,13,-1
 373 441 l 1,0,-1
EndSplineSet
EndChar

StartChar: braceleft
Encoding: 123 123 94
Width: 381
Flags: W
LayerCount: 2
Fore
SplineSet
118 110 m 2,0,1
 122 127 122 127 122 146 c 0,2,3
 122 181 122 181 104 200 c 128,-1,4
 86 219 86 219 51 219 c 1,5,-1
 58 251 l 1,6,7
 102 251 102 251 131.5 281.5 c 128,-1,8
 161 312 161 312 170 356 c 2,9,-1
 221 594 l 2,10,11
 231 642 231 642 264 671 c 128,-1,12
 297 700 297 700 351 700 c 2,13,-1
 454 700 l 1,14,-1
 445 658 l 1,15,-1
 392 658 l 2,16,17
 362 658 362 658 345.5 644 c 128,-1,18
 329 630 329 630 322 598 c 2,19,-1
 272 365 l 2,20,21
 265 332 265 332 248.5 309 c 128,-1,22
 232 286 232 286 210.5 271.5 c 128,-1,23
 189 257 189 257 166 249.5 c 128,-1,24
 143 242 143 242 122 240 c 1,25,-1
 120 234 l 1,26,27
 137 232 137 232 154.5 225.5 c 128,-1,28
 172 219 172 219 186.5 206.5 c 128,-1,29
 201 194 201 194 210.5 176 c 128,-1,30
 220 158 220 158 220 133 c 0,31,32
 220 120 220 120 217 105 c 2,33,-1
 167 -128 l 2,34,35
 166 -134 166 -134 165.5 -138.5 c 128,-1,36
 165 -143 165 -143 165 -148 c 0,37,38
 165 -188 165 -188 215 -188 c 2,39,-1
 266 -188 l 1,40,-1
 257 -230 l 1,41,-1
 154 -230 l 2,42,43
 112 -230 112 -230 88.5 -211.5 c 128,-1,44
 65 -193 65 -193 65 -155 c 0,45,46
 65 -142 65 -142 68 -125 c 2,47,-1
 118 110 l 2,0,1
EndSplineSet
Position2: "'case' Case-Sensitive Forms lookup 1 per glyph data 3" dx=0 dy=100 dh=0 dv=0
EndChar

StartChar: braceright
Encoding: 125 125 96
Width: 381
Flags: W
LayerCount: 2
Fore
SplineSet
270 361 m 2,0,1
 266 344 266 344 266 326 c 0,2,3
 266 291 266 291 284 271.5 c 128,-1,4
 302 252 302 252 337 252 c 1,5,-1
 330 220 l 1,6,7
 287 220 287 220 257 189.5 c 128,-1,8
 227 159 227 159 218 115 c 2,9,-1
 167 -124 l 2,10,11
 157 -172 157 -172 124.5 -201 c 128,-1,12
 92 -230 92 -230 37 -230 c 2,13,-1
 -64 -230 l 1,14,-1
 -55 -188 l 1,15,-1
 -3 -188 l 2,16,17
 27 -188 27 -188 43.5 -174 c 128,-1,18
 60 -160 60 -160 67 -128 c 2,19,-1
 117 106 l 2,20,21
 124 139 124 139 139 162 c 128,-1,22
 154 185 154 185 173 199.5 c 128,-1,23
 192 214 192 214 213.5 221.5 c 128,-1,24
 235 229 235 229 256 231 c 1,25,-1
 257 237 l 1,26,27
 240 238 240 238 224.5 244.5 c 128,-1,28
 209 251 209 251 196 263 c 128,-1,29
 183 275 183 275 175.5 292 c 128,-1,30
 168 309 168 309 168 333 c 0,31,32
 168 341 168 341 169.5 351.5 c 128,-1,33
 171 362 171 362 172 366 c 2,34,-1
 222 598 l 2,35,36
 223 604 223 604 223.5 608.5 c 128,-1,37
 224 613 224 613 224 618 c 0,38,39
 224 658 224 658 175 658 c 2,40,-1
 123 658 l 1,41,-1
 132 700 l 1,42,-1
 235 700 l 2,43,44
 277 700 277 700 300.5 681 c 128,-1,45
 324 662 324 662 324 625 c 0,46,47
 324 618 324 618 323 610.5 c 128,-1,48
 322 603 322 603 320 595 c 2,49,-1
 270 361 l 2,0,1
EndSplineSet
Position2: "'case' Case-Sensitive Forms lookup 1 per glyph data 3" dx=0 dy=100 dh=0 dv=0
EndChar

StartChar: asciitilde
Encoding: 126 126 97
Width: 595
Flags: W
LayerCount: 2
Fore
SplineSet
59 331 m 1,0,1
 100 385 100 385 141 401.5 c 128,-1,2
 182 418 182 418 217 418 c 0,3,4
 246 418 246 418 272.5 407.5 c 128,-1,5
 299 397 299 397 325 384 c 128,-1,6
 351 371 351 371 377 360.5 c 128,-1,7
 403 350 403 350 431 350 c 0,8,9
 452 350 452 350 473.5 357.5 c 128,-1,10
 495 365 495 365 518 384 c 1,11,-1
 537 352 l 1,12,13
 505 310 505 310 471.5 297.5 c 128,-1,14
 438 285 438 285 406 285 c 0,15,16
 377 285 377 285 349.5 295.5 c 128,-1,17
 322 306 322 306 295 319 c 128,-1,18
 268 332 268 332 241 342.5 c 128,-1,19
 214 353 214 353 187 353 c 0,20,21
 162 353 162 353 137.5 342.5 c 128,-1,22
 113 332 113 332 87 301 c 1,23,-1
 59 331 l 1,0,1
EndSplineSet
EndChar

StartChar: cent
Encoding: 162 162 100
Width: 600
Flags: W
LayerCount: 2
Fore
SplineSet
486 99 m 1,0,1
 460 49 460 49 411.5 21.5 c 128,-1,2
 363 -6 363 -6 293 -9 c 1,3,-1
 257 -179 l 1,4,-1
 197 -179 l 1,5,-1
 236 -7 l 1,6,7
 192 -1 192 -1 159.5 18 c 128,-1,8
 127 37 127 37 106 64 c 128,-1,9
 85 91 85 91 74.5 124 c 128,-1,10
 64 157 64 157 64 193 c 0,11,12
 64 265 64 265 84 324 c 128,-1,13
 104 383 104 383 142 426.5 c 128,-1,14
 180 470 180 470 234 497 c 128,-1,15
 288 524 288 524 356 532 c 1,16,-1
 392 693 l 1,17,-1
 451 693 l 1,18,-1
 415 535 l 1,19,20
 455 533 455 533 485 525 c 128,-1,21
 515 517 515 517 526 507 c 1,22,-1
 526 378 l 1,23,-1
 454 378 l 1,24,-1
 454 468 l 1,25,26
 446 474 446 474 431 477 c 128,-1,27
 416 480 416 480 402 481 c 1,28,-1
 307 58 l 1,29,-1
 318 58 l 2,30,31
 363 58 363 58 397.5 77 c 128,-1,32
 432 96 432 96 453 125 c 1,33,-1
 486 99 l 1,0,1
168 222 m 0,34,35
 168 168 168 168 188.5 127.5 c 128,-1,36
 209 87 209 87 252 70 c 1,37,-1
 345 476 l 1,38,39
 264 459 264 459 216 393.5 c 128,-1,40
 168 328 168 328 168 222 c 0,34,35
EndSplineSet
EndChar

StartChar: sterling
Encoding: 163 163 101
Width: 600
Flags: W
LayerCount: 2
Fore
SplineSet
65 381 m 1,0,-1
 160 381 l 1,1,2
 157 396 157 396 154.5 407.5 c 128,-1,3
 152 419 152 419 150 431 c 128,-1,4
 148 443 148 443 147 457 c 128,-1,5
 146 471 146 471 146 491 c 0,6,7
 146 541 146 541 162.5 582 c 128,-1,8
 179 623 179 623 212.5 652 c 128,-1,9
 246 681 246 681 297.5 696.5 c 128,-1,10
 349 712 349 712 419 712 c 0,11,12
 488 712 488 712 538 702.5 c 128,-1,13
 588 693 588 693 617 679 c 1,14,-1
 580 507 l 1,15,-1
 516 507 l 1,16,-1
 543 631 l 1,17,18
 523 639 523 639 492 648.5 c 128,-1,19
 461 658 461 658 407 658 c 0,20,21
 366 658 366 658 337 645 c 128,-1,22
 308 632 308 632 289.5 610.5 c 128,-1,23
 271 589 271 589 262.5 560.5 c 128,-1,24
 254 532 254 532 254 502 c 0,25,26
 254 473 254 473 257.5 445.5 c 128,-1,27
 261 418 261 418 269 381 c 1,28,-1
 442 381 l 1,29,-1
 431 329 l 1,30,-1
 278 329 l 1,31,32
 279 322 279 322 279 315 c 128,-1,33
 279 308 279 308 279 300 c 0,34,35
 279 283 279 283 277 264.5 c 128,-1,36
 275 246 275 246 269 226 c 0,37,38
 264 211 264 211 256 193.5 c 128,-1,39
 248 176 248 176 234 157 c 128,-1,40
 220 138 220 138 200 119 c 128,-1,41
 180 100 180 100 152 83 c 1,42,-1
 451 83 l 1,43,-1
 475 196 l 1,44,-1
 539 196 l 1,45,-1
 499 0 l 1,46,-1
 -12 0 l 1,47,-1
 -6 33 l 1,48,49
 71 60 71 60 115.5 104 c 128,-1,50
 160 148 160 148 172 198 c 0,51,52
 176 215 176 215 178 232 c 128,-1,53
 180 249 180 249 180 267 c 0,54,55
 180 282 180 282 178.5 297.5 c 128,-1,56
 177 313 177 313 175 329 c 1,57,-1
 54 329 l 1,58,-1
 65 381 l 1,0,-1
EndSplineSet
EndChar

StartChar: currency
Encoding: 164 164 102
Width: 600
Flags: W
LayerCount: 2
Fore
SplineSet
40 171 m 1,0,-1
 133 252 l 1,1,-1
 171 264 l 1,2,3
 155 281 155 281 149 301.5 c 128,-1,4
 143 322 143 322 143 346 c 0,5,6
 143 369 143 369 150 390 c 128,-1,7
 157 411 157 411 171 428 c 1,8,-1
 133 440 l 1,9,-1
 41 522 l 1,10,-1
 102 578 l 1,11,-1
 194 495 l 1,12,-1
 208 461 l 1,13,14
 228 474 228 474 250.5 481 c 128,-1,15
 273 488 273 488 300 488 c 0,16,17
 356 486 356 486 392 461 c 1,18,-1
 406 495 l 1,19,-1
 497 577 l 1,20,-1
 559 521 l 1,21,-1
 467 440 l 1,22,-1
 429 429 l 1,23,24
 443 412 443 412 449.5 391 c 128,-1,25
 456 370 456 370 457 346 c 1,26,27
 457 297 457 297 429 263 c 1,28,-1
 467 252 l 1,29,-1
 559 170 l 1,30,-1
 496 114 l 1,31,-1
 405 196 l 1,32,-1
 392 230 l 1,33,34
 354 206 354 206 300 206 c 0,35,36
 273 206 273 206 250 212.5 c 128,-1,37
 227 219 227 219 205 230 c 1,38,-1
 194 197 l 1,39,-1
 101 115 l 1,40,-1
 40 171 l 1,0,-1
300 264 m 256,41,42
 341 264 341 264 368 287 c 128,-1,43
 395 310 395 310 395 346 c 256,44,45
 395 382 395 382 368 406 c 128,-1,46
 341 430 341 430 300 430 c 256,47,48
 259 430 259 430 232 406 c 128,-1,49
 205 382 205 382 205 346 c 256,50,51
 205 310 205 310 232 287 c 128,-1,52
 259 264 259 264 300 264 c 256,41,42
EndSplineSet
EndChar

StartChar: yen
Encoding: 165 165 103
Width: 600
Flags: W
LayerCount: 2
Fore
SplineSet
502 700 m 1,0,-1
 752 700 l 1,1,-1
 741 650 l 1,2,-1
 655 650 l 1,3,-1
 412 335 l 1,4,-1
 571 335 l 1,5,-1
 559 283 l 1,6,-1
 378 283 l 1,7,-1
 365 220 l 1,8,-1
 546 220 l 1,9,-1
 535 168 l 1,10,-1
 354 168 l 1,11,-1
 329 50 l 1,12,-1
 414 50 l 1,13,-1
 403 0 l 1,14,-1
 113 0 l 1,15,-1
 124 50 l 1,16,-1
 217 50 l 1,17,-1
 242 168 l 1,18,-1
 61 168 l 1,19,-1
 72 220 l 1,20,-1
 253 220 l 1,21,-1
 266 283 l 1,22,-1
 85 283 l 1,23,-1
 97 335 l 1,24,-1
 255 335 l 1,25,-1
 128 650 l 1,26,-1
 37 650 l 1,27,-1
 48 700 l 1,28,-1
 348 700 l 1,29,-1
 337 650 l 1,30,-1
 251 650 l 1,31,-1
 357 349 l 1,32,-1
 582 650 l 1,33,-1
 491 650 l 1,34,-1
 502 700 l 1,0,-1
EndSplineSet
EndChar

StartChar: brokenbar
Encoding: 166 166 104
Width: 266
Flags: W
LayerCount: 2
Fore
SplineSet
103 190 m 1,0,-1
 162 190 l 1,1,-1
 162 -130 l 1,2,-1
 103 -130 l 1,3,-1
 103 190 l 1,0,-1
162 380 m 1,4,-1
 103 380 l 1,5,-1
 103 700 l 1,6,-1
 162 700 l 1,7,-1
 162 380 l 1,4,-1
EndSplineSet
EndChar

StartChar: section
Encoding: 167 167 105
Width: 585
Flags: W
LayerCount: 2
Fore
SplineSet
248 -38 m 0,0,1
 267 -38 267 -38 291 -33 c 128,-1,2
 315 -28 315 -28 336 -16.5 c 128,-1,3
 357 -5 357 -5 371.5 12.5 c 128,-1,4
 386 30 386 30 386 56 c 0,5,6
 386 81 386 81 366 96.5 c 128,-1,7
 346 112 346 112 315.5 124 c 128,-1,8
 285 136 285 136 250 147.5 c 128,-1,9
 215 159 215 159 184.5 175 c 128,-1,10
 154 191 154 191 134 214.5 c 128,-1,11
 114 238 114 238 114 275 c 0,12,13
 114 309 114 309 130.5 336 c 128,-1,14
 147 363 147 363 173 384 c 128,-1,15
 199 405 199 405 231 421 c 128,-1,16
 263 437 263 437 294 449 c 1,17,18
 258 466 258 466 233.5 490.5 c 128,-1,19
 209 515 209 515 209 557 c 0,20,21
 209 597 209 597 228.5 626 c 128,-1,22
 248 655 248 655 279.5 674 c 128,-1,23
 311 693 311 693 349 702.5 c 128,-1,24
 387 712 387 712 425 712 c 0,25,26
 485 712 485 712 527.5 705.5 c 128,-1,27
 570 699 570 699 602 685 c 1,28,-1
 582 587 l 1,29,-1
 510 587 l 1,30,-1
 524 650 l 1,31,32
 498 668 498 668 443 668 c 0,33,34
 425 668 425 668 403.5 664 c 128,-1,35
 382 660 382 660 363 650 c 128,-1,36
 344 640 344 640 331 623.5 c 128,-1,37
 318 607 318 607 318 583 c 0,38,39
 318 558 318 558 338 541.5 c 128,-1,40
 358 525 358 525 388 511.5 c 128,-1,41
 418 498 418 498 453.5 485.5 c 128,-1,42
 489 473 489 473 519 456.5 c 128,-1,43
 549 440 549 440 569 417 c 128,-1,44
 589 394 589 394 589 361 c 0,45,46
 589 326 589 326 571.5 299 c 128,-1,47
 554 272 554 272 527.5 250 c 128,-1,48
 501 228 501 228 469.5 212 c 128,-1,49
 438 196 438 196 409 184 c 1,50,51
 445 168 445 168 470 146 c 128,-1,52
 495 124 495 124 495 89 c 0,53,54
 495 44 495 44 470.5 11.5 c 128,-1,55
 446 -21 446 -21 408.5 -41.5 c 128,-1,56
 371 -62 371 -62 326.5 -72 c 128,-1,57
 282 -82 282 -82 241 -82 c 0,58,59
 209 -82 209 -82 180 -77.5 c 128,-1,60
 151 -73 151 -73 127.5 -66.5 c 128,-1,61
 104 -60 104 -60 87.5 -52 c 128,-1,62
 71 -44 71 -44 65 -36 c 1,63,-1
 88 64 l 1,64,-1
 160 64 l 1,65,-1
 146 -10 l 1,66,67
 157 -18 157 -18 183.5 -28 c 128,-1,68
 210 -38 210 -38 248 -38 c 0,0,1
362 203 m 1,69,70
 377 209 377 209 397.5 220.5 c 128,-1,71
 418 232 418 232 436.5 248.5 c 128,-1,72
 455 265 455 265 467.5 285 c 128,-1,73
 480 305 480 305 480 327 c 0,74,75
 480 347 480 347 468 362 c 128,-1,76
 456 377 456 377 436.5 388.5 c 128,-1,77
 417 400 417 400 392 409.5 c 128,-1,78
 367 419 367 419 342 428 c 1,79,80
 322 420 322 420 301 409 c 128,-1,81
 280 398 280 398 262.5 383 c 128,-1,82
 245 368 245 368 234 349.5 c 128,-1,83
 223 331 223 331 223 309 c 0,84,85
 223 288 223 288 234.5 272 c 128,-1,86
 246 256 246 256 265 243.5 c 128,-1,87
 284 231 284 231 309 221.5 c 128,-1,88
 334 212 334 212 362 203 c 1,69,70
EndSplineSet
EndChar

StartChar: dieresis
Encoding: 168 168 106
Width: 544
Flags: W
LayerCount: 2
Fore
SplineSet
167 688 m 0,0,1
 167 717 167 717 184.5 734.5 c 128,-1,2
 202 752 202 752 231 752 c 0,3,4
 259 752 259 752 276.5 734.5 c 128,-1,5
 294 717 294 717 294 688 c 0,6,7
 294 661 294 661 276.5 643.5 c 128,-1,8
 259 626 259 626 231 626 c 0,9,10
 202 626 202 626 184.5 643.5 c 128,-1,11
 167 661 167 661 167 688 c 0,0,1
414 688 m 0,12,13
 414 717 414 717 432 734.5 c 128,-1,14
 450 752 450 752 478 752 c 0,15,16
 507 752 507 752 524 734.5 c 128,-1,17
 541 717 541 717 541 688 c 0,18,19
 541 661 541 661 524 643.5 c 128,-1,20
 507 626 507 626 478 626 c 0,21,22
 450 626 450 626 432 643.5 c 128,-1,23
 414 661 414 661 414 688 c 0,12,13
EndSplineSet
EndChar

StartChar: copyright
Encoding: 169 169 107
Width: 907
Flags: W
LayerCount: 2
Fore
SplineSet
78 290 m 256,0,1
 78 373 78 373 109 438.5 c 128,-1,2
 140 504 140 504 192 549 c 128,-1,3
 244 594 244 594 312 618 c 128,-1,4
 380 642 380 642 453 642 c 256,5,6
 526 642 526 642 592.5 618 c 128,-1,7
 659 594 659 594 709.5 549 c 128,-1,8
 760 504 760 504 789.5 438.5 c 128,-1,9
 819 373 819 373 819 290 c 256,10,11
 819 207 819 207 789.5 141.5 c 128,-1,12
 760 76 760 76 709.5 31 c 128,-1,13
 659 -14 659 -14 592.5 -38 c 128,-1,14
 526 -62 526 -62 453 -62 c 0,15,16
 372 -62 372 -62 303.5 -38 c 128,-1,17
 235 -14 235 -14 184.5 31 c 128,-1,18
 134 76 134 76 106 141.5 c 128,-1,19
 78 207 78 207 78 290 c 256,0,1
132 290 m 256,20,21
 132 221 132 221 156 165 c 128,-1,22
 180 109 180 109 223 69.5 c 128,-1,23
 266 30 266 30 325 8 c 128,-1,24
 384 -14 384 -14 453 -14 c 0,25,26
 523 -14 523 -14 580.5 8 c 128,-1,27
 638 30 638 30 679 69.5 c 128,-1,28
 720 109 720 109 742.5 165 c 128,-1,29
 765 221 765 221 765 290 c 256,30,31
 765 359 765 359 741 415 c 128,-1,32
 717 471 717 471 675 511 c 128,-1,33
 633 551 633 551 576 572.5 c 128,-1,34
 519 594 519 594 453 594 c 0,35,36
 379 594 379 594 320 572 c 128,-1,37
 261 550 261 550 219 510.5 c 128,-1,38
 177 471 177 471 154.5 415 c 128,-1,39
 132 359 132 359 132 290 c 256,20,21
545 207 m 1,40,-1
 591 207 l 1,41,-1
 591 107 l 1,42,43
 571 93 571 93 542 87.5 c 128,-1,44
 513 82 513 82 481 82 c 0,45,46
 427 82 427 82 381.5 95.5 c 128,-1,47
 336 109 336 109 303 135.5 c 128,-1,48
 270 162 270 162 251.5 201 c 128,-1,49
 233 240 233 240 233 291 c 0,50,51
 233 343 233 343 253.5 382 c 128,-1,52
 274 421 274 421 307 447 c 128,-1,53
 340 473 340 473 382 486.5 c 128,-1,54
 424 500 424 500 467 500 c 0,55,56
 512 500 512 500 542 494.5 c 128,-1,57
 572 489 572 489 595 478 c 1,58,-1
 595 369 l 1,59,-1
 545 369 l 1,60,-1
 545 447 l 1,61,62
 542 449 542 449 533.5 451 c 128,-1,63
 525 453 525 453 515 454.5 c 128,-1,64
 505 456 505 456 494 457 c 128,-1,65
 483 458 483 458 475 458 c 0,66,67
 412 458 412 458 376.5 413.5 c 128,-1,68
 341 369 341 369 341 291 c 0,69,70
 341 258 341 258 349 227.5 c 128,-1,71
 357 197 357 197 374.5 174 c 128,-1,72
 392 151 392 151 420 137.5 c 128,-1,73
 448 124 448 124 487 124 c 0,74,75
 508 124 508 124 524 129 c 128,-1,76
 540 134 540 134 545 138 c 1,77,-1
 545 207 l 1,40,-1
EndSplineSet
EndChar

StartChar: ordfeminine
Encoding: 170 170 108
Width: 492
Flags: W
LayerCount: 2
Fore
SplineSet
303 451 m 1,0,1
 297 441 297 441 284 428.5 c 128,-1,2
 271 416 271 416 252 404.5 c 128,-1,3
 233 393 233 393 209.5 385.5 c 128,-1,4
 186 378 186 378 158 378 c 0,5,6
 101 378 101 378 71 408.5 c 128,-1,7
 41 439 41 439 41 493 c 0,8,9
 41 542 41 542 59.5 582.5 c 128,-1,10
 78 623 78 623 109 652 c 128,-1,11
 140 681 140 681 179 696.5 c 128,-1,12
 218 712 218 712 259 712 c 0,13,14
 301 712 301 712 325 700.5 c 128,-1,15
 349 689 349 689 358 673 c 1,16,-1
 376 700 l 1,17,-1
 448 700 l 1,18,-1
 386 432 l 1,19,-1
 442 432 l 1,20,-1
 442 386 l 1,21,-1
 307 386 l 1,22,-1
 307 451 l 1,23,-1
 303 451 l 1,0,1
189 429 m 0,24,25
 227 429 227 429 259 448.5 c 128,-1,26
 291 468 291 468 314 493 c 1,27,-1
 345 635 l 1,28,29
 338 646 338 646 319.5 655 c 128,-1,30
 301 664 301 664 281 664 c 0,31,32
 254 664 254 664 228 654 c 128,-1,33
 202 644 202 644 181.5 624 c 128,-1,34
 161 604 161 604 148.5 573 c 128,-1,35
 136 542 136 542 136 500 c 0,36,37
 136 470 136 470 149.5 449.5 c 128,-1,38
 163 429 163 429 189 429 c 0,24,25
EndSplineSet
EndChar

StartChar: guillemotleft
Encoding: 171 171 109
Width: 520
Flags: W
LayerCount: 2
Fore
SplineSet
253 259 m 1,0,-1
 488 465 l 1,1,-1
 512 445 l 1,2,-1
 355 258 l 1,3,-1
 440 77 l 1,4,-1
 409 56 l 1,5,-1
 253 259 l 1,0,-1
34 259 m 1,6,-1
 319 467 l 1,7,-1
 344 446 l 1,8,-1
 150 257 l 1,9,-1
 272 76 l 1,10,-1
 237 54 l 1,11,-1
 34 259 l 1,6,-1
EndSplineSet
Position2: "'case' Case-Sensitive Forms lookup 1 per glyph data 3" dx=0 dy=100 dh=0 dv=0
EndChar

StartChar: logicalnot
Encoding: 172 172 110
Width: 600
Flags: W
LayerCount: 2
Fore
SplineSet
50 388 m 1,0,-1
 528 388 l 1,1,-1
 528 198 l 1,2,-1
 456 198 l 1,3,-1
 456 324 l 1,4,-1
 50 324 l 1,5,-1
 50 388 l 1,0,-1
EndSplineSet
EndChar

StartChar: registered
Encoding: 174 174 112
Width: 785
Flags: W
LayerCount: 2
Fore
SplineSet
108 451 m 0,0,1
 108 515 108 515 131 565 c 128,-1,2
 154 615 154 615 193 649 c 128,-1,3
 232 683 232 683 283.5 700.5 c 128,-1,4
 335 718 335 718 392 718 c 0,5,6
 451 718 451 718 503 700.5 c 128,-1,7
 555 683 555 683 593.5 649 c 128,-1,8
 632 615 632 615 654.5 565 c 128,-1,9
 677 515 677 515 677 451 c 0,10,11
 677 386 677 386 654 336.5 c 128,-1,12
 631 287 631 287 591.5 253 c 128,-1,13
 552 219 552 219 500.5 201.5 c 128,-1,14
 449 184 449 184 392 184 c 0,15,16
 336 184 336 184 285 201.5 c 128,-1,17
 234 219 234 219 194.5 253 c 128,-1,18
 155 287 155 287 131.5 336.5 c 128,-1,19
 108 386 108 386 108 451 c 0,0,1
156 451 m 256,20,21
 156 399 156 399 175.5 357.5 c 128,-1,22
 195 316 195 316 227.5 286.5 c 128,-1,23
 260 257 260 257 302.5 241.5 c 128,-1,24
 345 226 345 226 392 226 c 0,25,26
 441 226 441 226 484 241.5 c 128,-1,27
 527 257 527 257 559.5 286 c 128,-1,28
 592 315 592 315 610.5 356.5 c 128,-1,29
 629 398 629 398 629 451 c 0,30,31
 629 503 629 503 609.5 544.5 c 128,-1,32
 590 586 590 586 557.5 615 c 128,-1,33
 525 644 525 644 482 660 c 128,-1,34
 439 676 439 676 392 676 c 0,35,36
 342 676 342 676 299 660 c 128,-1,37
 256 644 256 644 224 615 c 128,-1,38
 192 586 192 586 174 544.5 c 128,-1,39
 156 503 156 503 156 451 c 256,20,21
355 343 m 1,40,-1
 395 343 l 1,41,-1
 395 309 l 1,42,-1
 255 309 l 1,43,-1
 255 343 l 1,44,-1
 294 343 l 1,45,-1
 294 574 l 1,46,-1
 255 574 l 1,47,-1
 255 608 l 1,48,-1
 299 608 l 2,49,50
 319 608 319 608 347 610 c 128,-1,51
 375 612 375 612 393 612 c 0,52,53
 418 612 418 612 441.5 607.5 c 128,-1,54
 465 603 465 603 482.5 592.5 c 128,-1,55
 500 582 500 582 510.5 566 c 128,-1,56
 521 550 521 550 521 528 c 0,57,58
 521 497 521 497 499.5 476.5 c 128,-1,59
 478 456 478 456 447 447 c 1,60,-1
 520 343 l 1,61,-1
 547 343 l 1,62,-1
 547 309 l 1,63,-1
 470 309 l 1,64,-1
 394 443 l 1,65,-1
 355 443 l 1,66,-1
 355 343 l 1,40,-1
388 579 m 0,67,68
 375 579 375 579 368.5 578.5 c 128,-1,69
 362 578 362 578 355 576 c 1,70,-1
 355 473 l 1,71,-1
 390 473 l 2,72,73
 455 473 455 473 455 528 c 0,74,75
 455 554 455 554 436 566.5 c 128,-1,76
 417 579 417 579 388 579 c 0,67,68
EndSplineSet
EndChar

StartChar: macron
Encoding: 175 175 113
Width: 444
Flags: W
LayerCount: 2
Fore
SplineSet
151 668 m 1,0,-1
 163 723 l 1,1,-1
 451 723 l 1,2,-1
 439 668 l 1,3,-1
 151 668 l 1,0,-1
EndSplineSet
EndChar

StartChar: degree
Encoding: 176 176 114
Width: 474
Flags: W
LayerCount: 2
Fore
SplineSet
101 571 m 0,0,1
 101 602 101 602 112 628 c 128,-1,2
 123 654 123 654 143 672.5 c 128,-1,3
 163 691 163 691 190.5 701.5 c 128,-1,4
 218 712 218 712 251 712 c 0,5,6
 317 712 317 712 359.5 676.5 c 128,-1,7
 402 641 402 641 402 571 c 0,8,9
 402 505 402 505 359.5 467.5 c 128,-1,10
 317 430 317 430 251 430 c 0,11,12
 218 430 218 430 190.5 439.5 c 128,-1,13
 163 449 163 449 143 467.5 c 128,-1,14
 123 486 123 486 112 512 c 128,-1,15
 101 538 101 538 101 571 c 0,0,1
161 571 m 0,16,17
 161 531 161 531 187 505.5 c 128,-1,18
 213 480 213 480 251 480 c 0,19,20
 294 480 294 480 318 503.5 c 128,-1,21
 342 527 342 527 342 571 c 0,22,23
 342 613 342 613 317.5 637.5 c 128,-1,24
 293 662 293 662 251 662 c 0,25,26
 208 662 208 662 184.5 637.5 c 128,-1,27
 161 613 161 613 161 571 c 0,16,17
EndSplineSet
EndChar

StartChar: plusminus
Encoding: 177 177 115
Width: 600
Flags: W
LayerCount: 2
Fore
SplineSet
63 491 m 1,0,-1
 285 491 l 1,1,-1
 285 700 l 1,2,-1
 345 700 l 1,3,-1
 345 491 l 1,4,-1
 567 491 l 1,5,-1
 567 437 l 1,6,-1
 345 437 l 1,7,-1
 345 284 l 1,8,-1
 285 284 l 1,9,-1
 285 437 l 1,10,-1
 63 437 l 1,11,-1
 63 491 l 1,0,-1
63 231 m 1,12,-1
 567 231 l 1,13,-1
 567 177 l 1,14,-1
 63 177 l 1,15,-1
 63 231 l 1,12,-1
EndSplineSet
EndChar

StartChar: acute
Encoding: 180 180 118
Width: 482
Flags: W
LayerCount: 2
Fore
SplineSet
361 750 m 1,0,-1
 487 750 l 1,1,-1
 487 709 l 1,2,-1
 291 592 l 1,3,-1
 263 615 l 1,4,-1
 361 750 l 1,0,-1
EndSplineSet
EndChar

StartChar: mu
Encoding: 181 181 119
AltUni2: 0003bc.ffffffff.0
Width: 600
Flags: W
LayerCount: 2
Fore
SplineSet
108 -200 m 1,0,-1
 0 -200 l 1,1,-1
 149 471 l 1,2,-1
 80 471 l 1,3,-1
 80 525 l 1,4,-1
 262 525 l 1,5,-1
 193 227 l 2,6,7
 185 192 185 192 180 163 c 128,-1,8
 175 134 175 134 175 113 c 0,9,10
 175 85 175 85 190.5 71 c 128,-1,11
 206 57 206 57 235 57 c 0,12,13
 253 57 253 57 274 63 c 128,-1,14
 295 69 295 69 317.5 84 c 128,-1,15
 340 99 340 99 363.5 123.5 c 128,-1,16
 387 148 387 148 409 184 c 1,17,-1
 472 518 l 1,18,-1
 570 526 l 1,19,-1
 478 54 l 1,20,-1
 559 54 l 1,21,-1
 559 0 l 1,22,-1
 395 0 l 1,23,-1
 395 110 l 1,24,-1
 390 110 l 1,25,26
 352 47 352 47 297 18.5 c 128,-1,27
 242 -10 242 -10 190 -10 c 0,28,29
 167 -10 167 -10 146 -5 c 128,-1,30
 125 0 125 0 108 16 c 1,31,-1
 108 -200 l 1,0,-1
EndSplineSet
EndChar

StartChar: cedilla
Encoding: 184 184 122
Width: 498
Flags: W
LayerCount: 2
Fore
SplineSet
194 -61 m 1,0,1
 225 -62 225 -62 244.5 -66 c 128,-1,2
 264 -70 264 -70 275.5 -78 c 128,-1,3
 287 -86 287 -86 291 -98 c 128,-1,4
 295 -110 295 -110 295 -127 c 0,5,6
 295 -157 295 -157 274.5 -176 c 128,-1,7
 254 -195 254 -195 223 -205.5 c 128,-1,8
 192 -216 192 -216 156 -220 c 128,-1,9
 120 -224 120 -224 89 -224 c 1,10,-1
 89 -192 l 1,11,12
 110 -191 110 -191 130.5 -189 c 128,-1,13
 151 -187 151 -187 167 -182 c 128,-1,14
 183 -177 183 -177 192.5 -168 c 128,-1,15
 202 -159 202 -159 202 -143 c 0,16,17
 202 -133 202 -133 199.5 -125.5 c 128,-1,18
 197 -118 197 -118 189 -113.5 c 128,-1,19
 181 -109 181 -109 167 -106 c 128,-1,20
 153 -103 153 -103 130 -101 c 1,21,-1
 172 1 l 1,22,-1
 223 1 l 1,23,-1
 194 -61 l 1,0,1
EndSplineSet
EndChar

StartChar: ordmasculine
Encoding: 186 186 124
Width: 481
Flags: W
LayerCount: 2
Fore
SplineSet
42 501 m 0,0,1
 42 547 42 547 62 585.5 c 128,-1,2
 82 624 82 624 115 652 c 128,-1,3
 148 680 148 680 191 696 c 128,-1,4
 234 712 234 712 281 712 c 0,5,6
 358 712 358 712 398.5 676 c 128,-1,7
 439 640 439 640 439 583 c 0,8,9
 439 531 439 531 417.5 491.5 c 128,-1,10
 396 452 396 452 362 425.5 c 128,-1,11
 328 399 328 399 285.5 385.5 c 128,-1,12
 243 372 243 372 201 372 c 0,13,14
 168 372 168 372 139 381.5 c 128,-1,15
 110 391 110 391 88.5 408 c 128,-1,16
 67 425 67 425 54.5 448.5 c 128,-1,17
 42 472 42 472 42 501 c 0,0,1
137 499 m 0,18,19
 137 482 137 482 141 466 c 128,-1,20
 145 450 145 450 153.5 437.5 c 128,-1,21
 162 425 162 425 176 417.5 c 128,-1,22
 190 410 190 410 210 410 c 0,23,24
 234 410 234 410 258 421 c 128,-1,25
 282 432 282 432 301 455 c 128,-1,26
 320 478 320 478 332 513 c 128,-1,27
 344 548 344 548 344 596 c 0,28,29
 344 611 344 611 340.5 625 c 128,-1,30
 337 639 337 639 329 650 c 128,-1,31
 321 661 321 661 306.5 667.5 c 128,-1,32
 292 674 292 674 271 674 c 0,33,34
 247 674 247 674 223 660.5 c 128,-1,35
 199 647 199 647 180 624 c 128,-1,36
 161 601 161 601 149 568.5 c 128,-1,37
 137 536 137 536 137 499 c 0,18,19
EndSplineSet
EndChar

StartChar: guillemotright
Encoding: 187 187 125
Width: 520
Flags: W
LayerCount: 2
Fore
SplineSet
52 56 m 1,0,-1
 27 77 l 1,1,-1
 191 269 l 1,2,-1
 111 445 l 1,3,-1
 145 465 l 1,4,-1
 292 259 l 1,5,-1
 52 56 l 1,0,-1
220 54 m 1,6,-1
 194 76 l 1,7,-1
 397 268 l 1,8,-1
 280 446 l 1,9,-1
 313 467 l 1,10,-1
 511 259 l 1,11,-1
 220 54 l 1,6,-1
EndSplineSet
Position2: "'case' Case-Sensitive Forms lookup 1 per glyph data 3" dx=0 dy=100 dh=0 dv=0
EndChar

StartChar: Ccedilla
Encoding: 199 199 137
Width: 688
Flags: W
LayerCount: 2
Fore
SplineSet
559 184 m 1,0,-1
 623 184 l 1,1,-1
 590 27 l 1,2,3
 574 18 574 18 552.5 11.5 c 128,-1,4
 531 5 531 5 506.5 0 c 128,-1,5
 482 -5 482 -5 457 -8 c 128,-1,6
 432 -11 432 -11 408 -12 c 1,7,-1
 381 -64 l 1,8,9
 415 -65 415 -65 435.5 -70.5 c 128,-1,10
 456 -76 456 -76 467 -85.5 c 128,-1,11
 478 -95 478 -95 481.5 -107.5 c 128,-1,12
 485 -120 485 -120 485 -135 c 0,13,14
 485 -165 485 -165 462 -184 c 128,-1,15
 439 -203 439 -203 404.5 -213.5 c 128,-1,16
 370 -224 370 -224 331 -228 c 128,-1,17
 292 -232 292 -232 260 -232 c 1,18,-1
 260 -199 l 1,19,20
 282 -198 282 -198 304 -195.5 c 128,-1,21
 326 -193 326 -193 343.5 -188 c 128,-1,22
 361 -183 361 -183 372 -174.5 c 128,-1,23
 383 -166 383 -166 383 -152 c 0,24,25
 383 -142 383 -142 381.5 -134 c 128,-1,26
 380 -126 380 -126 373 -120.5 c 128,-1,27
 366 -115 366 -115 352 -111.5 c 128,-1,28
 338 -108 338 -108 313 -107 c 1,29,-1
 352 -10 l 1,30,31
 267 -5 267 -5 213.5 19 c 128,-1,32
 160 43 160 43 129.5 79.5 c 128,-1,33
 99 116 99 116 87.5 161 c 128,-1,34
 76 206 76 206 76 252 c 0,35,36
 76 352 76 352 106 436.5 c 128,-1,37
 136 521 136 521 192 582.5 c 128,-1,38
 248 644 248 644 328.5 678 c 128,-1,39
 409 712 409 712 511 712 c 0,40,41
 584 712 584 712 629.5 701.5 c 128,-1,42
 675 691 675 691 710 674 c 1,43,-1
 673 503 l 1,44,-1
 609 503 l 1,45,-1
 632 608 l 1,46,-1
 622 628 l 1,47,48
 611 633 611 633 585 640.5 c 128,-1,49
 559 648 559 648 507 648 c 0,50,51
 439 648 439 648 383 620 c 128,-1,52
 327 592 327 592 286.5 540.5 c 128,-1,53
 246 489 246 489 223.5 416.5 c 128,-1,54
 201 344 201 344 201 255 c 0,55,56
 201 212 201 212 212.5 175 c 128,-1,57
 224 138 224 138 249.5 110.5 c 128,-1,58
 275 83 275 83 315.5 67.5 c 128,-1,59
 356 52 356 52 413 52 c 0,60,61
 449 52 449 52 478.5 57.5 c 128,-1,62
 508 63 508 63 522 72 c 1,63,-1
 540 91 l 1,64,-1
 559 184 l 1,0,-1
EndSplineSet
Position2: "'cpsp' Capital Spacing lookup 0 subtable" dx=40 dy=0 dh=80 dv=0
EndChar

StartChar: Eth
Encoding: 208 208 146
Width: 774
Flags: W
LayerCount: 2
Fore
SplineSet
-21 0 m 1,0,-1
 -10 56 l 1,1,-1
 81 56 l 1,2,-1
 139 330 l 1,3,-1
 38 330 l 1,4,-1
 49 384 l 1,5,-1
 150 384 l 1,6,-1
 206 644 l 1,7,-1
 115 644 l 1,8,-1
 127 700 l 1,9,-1
 250 700 l 2,10,11
 269 700 269 700 295 701 c 128,-1,12
 321 702 321 702 348.5 703.5 c 128,-1,13
 376 705 376 705 401.5 706.5 c 128,-1,14
 427 708 427 708 444 708 c 0,15,16
 542 708 542 708 603 685.5 c 128,-1,17
 664 663 664 663 698 628 c 128,-1,18
 732 593 732 593 744 550 c 128,-1,19
 756 507 756 507 756 465 c 0,20,21
 756 360 756 360 726.5 272.5 c 128,-1,22
 697 185 697 185 639 122.5 c 128,-1,23
 581 60 581 60 495 25.5 c 128,-1,24
 409 -9 409 -9 296 -9 c 0,25,26
 280 -9 280 -9 256.5 -7.5 c 128,-1,27
 233 -6 233 -6 207 -4.5 c 128,-1,28
 181 -3 181 -3 155 -1.5 c 128,-1,29
 129 0 129 0 108 0 c 2,30,-1
 -21 0 l 1,0,-1
417 652 m 0,31,32
 389 652 389 652 362 651 c 128,-1,33
 335 650 335 650 319 647 c 1,34,-1
 263 384 l 1,35,-1
 440 384 l 1,36,-1
 429 330 l 1,37,-1
 251 330 l 1,38,-1
 192 51 l 1,39,40
 198 50 198 50 212.5 49.5 c 128,-1,41
 227 49 227 49 243.5 48.5 c 128,-1,42
 260 48 260 48 275 47.5 c 128,-1,43
 290 47 290 47 296 47 c 0,44,45
 392 47 392 47 456.5 84 c 128,-1,46
 521 121 521 121 559.5 180.5 c 128,-1,47
 598 240 598 240 614.5 316 c 128,-1,48
 631 392 631 392 631 470 c 0,49,50
 631 506 631 506 622.5 539 c 128,-1,51
 614 572 614 572 590 597 c 128,-1,52
 566 622 566 622 524.5 637 c 128,-1,53
 483 652 483 652 417 652 c 0,31,32
EndSplineSet
Position2: "'cpsp' Capital Spacing lookup 0 subtable" dx=40 dy=0 dh=80 dv=0
EndChar

StartChar: multiply
Encoding: 215 215 153
Width: 600
Flags: W
LayerCount: 2
Fore
SplineSet
118 205 m 1,0,-1
 274 344 l 1,1,-1
 120 482 l 1,2,-1
 164 521 l 1,3,-1
 319 383 l 1,4,-1
 475 523 l 1,5,-1
 519 484 l 1,6,-1
 361 345 l 1,7,-1
 521 203 l 1,8,-1
 477 163 l 1,9,-1
 318 306 l 1,10,-1
 162 166 l 1,11,-1
 118 205 l 1,0,-1
EndSplineSet
EndChar

StartChar: Oslash
Encoding: 216 216 154
Width: 840
Flags: W
LayerCount: 2
Fore
SplineSet
76 283 m 0,0,1
 76 364 76 364 101.5 441.5 c 128,-1,2
 127 519 127 519 179.5 579 c 128,-1,3
 232 639 232 639 312 675.5 c 128,-1,4
 392 712 392 712 500 712 c 0,5,6
 559 712 559 712 609 697 c 128,-1,7
 659 682 659 682 697 653 c 1,8,-1
 779 743 l 1,9,-1
 822 706 l 1,10,-1
 738 615 l 1,11,12
 769 580 769 580 785.5 533.5 c 128,-1,13
 802 487 802 487 802 431 c 0,14,15
 802 351 802 351 780 271.5 c 128,-1,16
 758 192 758 192 709 129 c 128,-1,17
 660 66 660 66 583 27 c 128,-1,18
 506 -12 506 -12 397 -12 c 0,19,20
 347 -12 347 -12 298.5 -0.5 c 128,-1,21
 250 11 250 11 208 37 c 1,22,-1
 122 -57 l 1,23,-1
 82 -18 l 1,24,-1
 163 70 l 1,25,26
 123 106 123 106 99.5 158.5 c 128,-1,27
 76 211 76 211 76 283 c 0,0,1
201 282 m 0,28,29
 201 199 201 199 230 144 c 1,30,-1
 634 585 l 1,31,32
 580 656 580 656 475 656 c 0,33,34
 404 656 404 656 352 623 c 128,-1,35
 300 590 300 590 266.5 537 c 128,-1,36
 233 484 233 484 217 417 c 128,-1,37
 201 350 201 350 201 282 c 0,28,29
677 430 m 0,38,39
 677 487 677 487 662 531 c 1,40,-1
 264 99 l 1,41,42
 293 70 293 70 330 57 c 128,-1,43
 367 44 367 44 405 44 c 0,44,45
 483 44 483 44 535 79.5 c 128,-1,46
 587 115 587 115 618.5 171 c 128,-1,47
 650 227 650 227 663.5 295.5 c 128,-1,48
 677 364 677 364 677 430 c 0,38,39
EndSplineSet
Position2: "'cpsp' Capital Spacing lookup 0 subtable" dx=40 dy=0 dh=80 dv=0
EndChar

StartChar: Thorn
Encoding: 222 222 160
Width: 650
Flags: W
LayerCount: 2
Fore
SplineSet
115 644 m 1,0,-1
 127 700 l 1,1,-1
 419 700 l 1,2,-1
 407 644 l 1,3,-1
 318 644 l 1,4,-1
 308 597 l 1,5,6
 334 599 334 599 362.5 600 c 128,-1,7
 391 601 391 601 416 601 c 0,8,9
 548 601 548 601 607 557.5 c 128,-1,10
 666 514 666 514 666 433 c 0,11,12
 666 368 666 368 640.5 320 c 128,-1,13
 615 272 615 272 568.5 239.5 c 128,-1,14
 522 207 522 207 456.5 191 c 128,-1,15
 391 175 391 175 311 175 c 0,16,17
 305 175 305 175 292 175 c 128,-1,18
 279 175 279 175 265 175.5 c 128,-1,19
 251 176 251 176 238 176.5 c 128,-1,20
 225 177 225 177 219 178 c 1,21,-1
 193 56 l 1,22,-1
 302 56 l 1,23,-1
 290 0 l 1,24,-1
 -21 0 l 1,25,-1
 -10 56 l 1,26,-1
 81 56 l 1,27,-1
 206 644 l 1,28,-1
 115 644 l 1,0,-1
379 545 m 0,29,30
 326 545 326 545 296 539 c 1,31,-1
 231 236 l 1,32,33
 236 234 236 234 247.5 233.5 c 128,-1,34
 259 233 259 233 271.5 232 c 128,-1,35
 284 231 284 231 296 231 c 128,-1,36
 308 231 308 231 314 231 c 0,37,38
 371 231 371 231 414 246 c 128,-1,39
 457 261 457 261 485 287.5 c 128,-1,40
 513 314 513 314 527 350.5 c 128,-1,41
 541 387 541 387 541 431 c 0,42,43
 541 487 541 487 504.5 516 c 128,-1,44
 468 545 468 545 379 545 c 0,29,30
EndSplineSet
Position2: "'cpsp' Capital Spacing lookup 0 subtable" dx=40 dy=0 dh=80 dv=0
EndChar

StartChar: germandbls
Encoding: 223 223 161
Width: 675
Flags: W
LayerCount: 2
Fore
SplineSet
311 395 m 0,0,1
 311 467 311 467 370.5 516.5 c 128,-1,2
 430 566 430 566 533 593 c 1,3,4
 534 598 534 598 534 601.5 c 128,-1,5
 534 605 534 605 534 610 c 0,6,7
 534 630 534 630 527.5 648.5 c 128,-1,8
 521 667 521 667 508 681.5 c 128,-1,9
 495 696 495 696 475.5 704.5 c 128,-1,10
 456 713 456 713 430 713 c 0,11,12
 405 713 405 713 377.5 707 c 128,-1,13
 350 701 350 701 326 684 c 128,-1,14
 302 667 302 667 283 636.5 c 128,-1,15
 264 606 264 606 255 556 c 2,16,-1
 167 45 l 2,17,18
 154 -29 154 -29 125.5 -75.5 c 128,-1,19
 97 -122 97 -122 64.5 -148.5 c 128,-1,20
 32 -175 32 -175 1 -186.5 c 128,-1,21
 -30 -198 -30 -198 -48 -203 c 1,22,-1
 -65 -160 l 1,23,24
 -52 -154 -52 -154 -32 -144 c 128,-1,25
 -12 -134 -12 -134 8 -113.5 c 128,-1,26
 28 -93 28 -93 45 -60 c 128,-1,27
 62 -27 62 -27 70 25 c 2,28,-1
 141 471 l 1,29,-1
 62 471 l 1,30,-1
 62 525 l 1,31,-1
 153 525 l 1,32,-1
 158 550 l 2,33,34
 171 615 171 615 204.5 656 c 128,-1,35
 238 697 238 697 280 720 c 128,-1,36
 322 743 322 743 367.5 751.5 c 128,-1,37
 413 760 413 760 449 760 c 0,38,39
 499 760 499 760 534 748.5 c 128,-1,40
 569 737 569 737 590.5 717.5 c 128,-1,41
 612 698 612 698 622 672 c 128,-1,42
 632 646 632 646 632 617 c 0,43,44
 632 606 632 606 630.5 592.5 c 128,-1,45
 629 579 629 579 627 568 c 1,46,47
 585 562 585 562 546 552 c 128,-1,48
 507 542 507 542 477.5 525 c 128,-1,49
 448 508 448 508 430 483 c 128,-1,50
 412 458 412 458 412 423 c 0,51,52
 412 397 412 397 426 378 c 128,-1,53
 440 359 440 359 461.5 342 c 128,-1,54
 483 325 483 325 508 308 c 128,-1,55
 533 291 533 291 554.5 270 c 128,-1,56
 576 249 576 249 590 221.5 c 128,-1,57
 604 194 604 194 604 157 c 0,58,59
 604 119 604 119 585.5 88.5 c 128,-1,60
 567 58 567 58 536 36 c 128,-1,61
 505 14 505 14 463 2 c 128,-1,62
 421 -10 421 -10 375 -10 c 0,63,64
 328 -10 328 -10 292 1 c 128,-1,65
 256 12 256 12 234 26 c 1,66,-1
 263 84 l 1,67,68
 286 67 286 67 316 55.5 c 128,-1,69
 346 44 346 44 374 44 c 0,70,71
 398 44 398 44 421 49.5 c 128,-1,72
 444 55 444 55 461.5 66 c 128,-1,73
 479 77 479 77 489.5 94 c 128,-1,74
 500 111 500 111 500 134 c 0,75,76
 500 165 500 165 486 186.5 c 128,-1,77
 472 208 472 208 451 225.5 c 128,-1,78
 430 243 430 243 405.5 258.5 c 128,-1,79
 381 274 381 274 360 292.5 c 128,-1,80
 339 311 339 311 325 335.5 c 128,-1,81
 311 360 311 360 311 395 c 0,0,1
EndSplineSet
EndChar

StartChar: ccedilla
Encoding: 231 231 169
Width: 472
Flags: W
LayerCount: 2
Fore
SplineSet
436 99 m 1,0,1
 411 52 411 52 366.5 24.5 c 128,-1,2
 322 -3 322 -3 258 -9 c 1,3,-1
 234 -61 l 1,4,5
 265 -62 265 -62 284.5 -66 c 128,-1,6
 304 -70 304 -70 315.5 -78 c 128,-1,7
 327 -86 327 -86 331 -98 c 128,-1,8
 335 -110 335 -110 335 -127 c 0,9,10
 335 -157 335 -157 315 -176 c 128,-1,11
 295 -195 295 -195 264 -205.5 c 128,-1,12
 233 -216 233 -216 197 -220 c 128,-1,13
 161 -224 161 -224 129 -224 c 1,14,-1
 129 -192 l 1,15,16
 150 -191 150 -191 170.5 -189 c 128,-1,17
 191 -187 191 -187 207 -182 c 128,-1,18
 223 -177 223 -177 232.5 -168 c 128,-1,19
 242 -159 242 -159 242 -143 c 0,20,21
 242 -133 242 -133 239.5 -125.5 c 128,-1,22
 237 -118 237 -118 229 -113.5 c 128,-1,23
 221 -109 221 -109 207 -106 c 128,-1,24
 193 -103 193 -103 170 -101 c 1,25,-1
 208 -9 l 1,26,27
 169 -6 169 -6 138.5 10.5 c 128,-1,28
 108 27 108 27 87 53 c 128,-1,29
 66 79 66 79 55 112.5 c 128,-1,30
 44 146 44 146 44 183 c 0,31,32
 44 261 44 261 65 326 c 128,-1,33
 86 391 86 391 126.5 437.5 c 128,-1,34
 167 484 167 484 225 509.5 c 128,-1,35
 283 535 283 535 357 535 c 0,36,37
 399 535 399 535 435 524.5 c 128,-1,38
 471 514 471 514 486 497 c 1,39,-1
 456 378 l 1,40,-1
 386 378 l 1,41,-1
 407 468 l 1,42,43
 399 475 399 475 380.5 478 c 128,-1,44
 362 481 362 481 347 481 c 0,45,46
 302 481 302 481 265.5 461.5 c 128,-1,47
 229 442 229 442 202.5 407 c 128,-1,48
 176 372 176 372 162 322.5 c 128,-1,49
 148 273 148 273 148 212 c 0,50,51
 148 140 148 140 181 99 c 128,-1,52
 214 58 214 58 268 58 c 0,53,54
 313 58 313 58 347.5 77 c 128,-1,55
 382 96 382 96 403 125 c 1,56,-1
 436 99 l 1,0,1
EndSplineSet
EndChar

StartChar: eth
Encoding: 240 240 178
Width: 548
Flags: W
LayerCount: 2
Fore
SplineSet
251 620 m 1,0,-1
 370 671 l 1,1,2
 352 694 352 694 321.5 707 c 128,-1,3
 291 720 291 720 262 728 c 1,4,-1
 262 750 l 1,5,-1
 364 750 l 1,6,7
 414 739 414 739 447 706 c 1,8,-1
 556 753 l 1,9,-1
 579 712 l 1,10,-1
 476 667 l 1,11,12
 493 646 493 646 511 600 c 128,-1,13
 529 554 529 554 529 490 c 0,14,15
 529 383 529 383 502.5 291.5 c 128,-1,16
 476 200 476 200 430.5 133 c 128,-1,17
 385 66 385 66 324.5 28 c 128,-1,18
 264 -10 264 -10 195 -10 c 0,19,20
 116 -10 116 -10 74 38.5 c 128,-1,21
 32 87 32 87 32 177 c 0,22,23
 32 241 32 241 55 304.5 c 128,-1,24
 78 368 78 368 120 418.5 c 128,-1,25
 162 469 162 469 221.5 500 c 128,-1,26
 281 531 281 531 355 531 c 0,27,28
 375 531 375 531 395 526.5 c 128,-1,29
 415 522 415 522 428 514 c 1,30,31
 428 556 428 556 419.5 583 c 128,-1,32
 411 610 411 610 396 632 c 1,33,-1
 276 580 l 1,34,-1
 251 620 l 1,0,-1
345 484 m 0,35,36
 286 484 286 484 245.5 452.5 c 128,-1,37
 205 421 205 421 180.5 374 c 128,-1,38
 156 327 156 327 145 272 c 128,-1,39
 134 217 134 217 134 170 c 0,40,41
 134 147 134 147 137 123 c 128,-1,42
 140 99 140 99 149.5 80 c 128,-1,43
 159 61 159 61 176.5 49 c 128,-1,44
 194 37 194 37 222 37 c 0,45,46
 258 37 258 37 294.5 69.5 c 128,-1,47
 331 102 331 102 360.5 159 c 128,-1,48
 390 216 390 216 408.5 294 c 128,-1,49
 427 372 427 372 427 463 c 1,50,51
 404 476 404 476 385 480 c 128,-1,52
 366 484 366 484 345 484 c 0,35,36
EndSplineSet
EndChar

StartChar: divide
Encoding: 247 247 185
Width: 600
Flags: W
LayerCount: 2
Fore
SplineSet
63 371 m 1,0,-1
 567 371 l 1,1,-1
 567 317 l 1,2,-1
 63 317 l 1,3,-1
 63 371 l 1,0,-1
236 534 m 0,4,5
 236 565 236 565 257 583 c 128,-1,6
 278 601 278 601 313 601 c 256,7,8
 348 601 348 601 370 583 c 128,-1,9
 392 565 392 565 392 534 c 0,10,11
 392 504 392 504 370 486 c 128,-1,12
 348 468 348 468 313 468 c 256,13,14
 278 468 278 468 257 486 c 128,-1,15
 236 504 236 504 236 534 c 0,4,5
236 153 m 0,16,17
 236 184 236 184 257 202 c 128,-1,18
 278 220 278 220 313 220 c 256,19,20
 348 220 348 220 370 202 c 128,-1,21
 392 184 392 184 392 153 c 0,22,23
 392 123 392 123 370 105 c 128,-1,24
 348 87 348 87 313 87 c 256,25,26
 278 87 278 87 257 105 c 128,-1,27
 236 123 236 123 236 153 c 0,16,17
EndSplineSet
EndChar

StartChar: oslash
Encoding: 248 248 186
Width: 564
Flags: W
LayerCount: 2
Fore
SplineSet
44 195 m 0,0,1
 44 251 44 251 62.5 311 c 128,-1,2
 81 371 81 371 118.5 421 c 128,-1,3
 156 471 156 471 212.5 503 c 128,-1,4
 269 535 269 535 345 535 c 0,5,6
 381 535 381 535 410.5 526.5 c 128,-1,7
 440 518 440 518 461 500 c 1,8,-1
 539 586 l 1,9,-1
 582 552 l 1,10,-1
 495 457 l 1,11,12
 507 433 507 433 513.5 403.5 c 128,-1,13
 520 374 520 374 520 338 c 0,14,15
 520 269 520 269 499 206 c 128,-1,16
 478 143 478 143 440 95 c 128,-1,17
 402 47 402 47 349 18.5 c 128,-1,18
 296 -10 296 -10 231 -10 c 0,19,20
 193 -10 193 -10 161.5 -0.5 c 128,-1,21
 130 9 130 9 106 30 c 1,22,-1
 20 -64 l 1,23,-1
 -20 -30 l 1,24,-1
 72 72 l 1,25,26
 44 122 44 122 44 195 c 0,0,1
251 37 m 0,27,28
 288 37 288 37 318.5 63.5 c 128,-1,29
 349 90 349 90 370.5 133 c 128,-1,30
 392 176 392 176 403.5 230.5 c 128,-1,31
 415 285 415 285 416 342 c 1,32,-1
 416 371 l 1,33,-1
 163 93 l 1,34,35
 176 65 176 65 199 51 c 128,-1,36
 222 37 222 37 251 37 c 0,27,28
323 488 m 0,37,38
 271 488 271 488 237.5 457 c 128,-1,39
 204 426 204 426 184.5 380.5 c 128,-1,40
 165 335 165 335 157 281.5 c 128,-1,41
 149 228 149 228 148 183 c 1,42,-1
 148 155 l 1,43,-1
 404 436 l 1,44,45
 393 460 393 460 372.5 474 c 128,-1,46
 352 488 352 488 323 488 c 0,37,38
EndSplineSet
EndChar

StartChar: thorn
Encoding: 254 254 192
Width: 599
Flags: W
LayerCount: 2
Fore
SplineSet
110 -150 m 1,0,-1
 186 -150 l 1,1,-1
 186 -200 l 1,2,-1
 0 -200 l 1,3,-1
 196 696 l 1,4,-1
 128 696 l 1,5,-1
 128 750 l 1,6,-1
 305 750 l 1,7,-1
 234 422 l 1,8,-1
 238 422 l 1,9,10
 254 444 254 444 274 464.5 c 128,-1,11
 294 485 294 485 318.5 501 c 128,-1,12
 343 517 343 517 371.5 526 c 128,-1,13
 400 535 400 535 433 535 c 0,14,15
 489 535 489 535 525 497.5 c 128,-1,16
 561 460 561 460 561 378 c 0,17,18
 561 302 561 302 536 232 c 128,-1,19
 511 162 511 162 467.5 108 c 128,-1,20
 424 54 424 54 365.5 22 c 128,-1,21
 307 -10 307 -10 240 -10 c 0,22,23
 222 -10 222 -10 209 -9 c 128,-1,24
 196 -8 196 -8 186 -5.5 c 128,-1,25
 176 -3 176 -3 166.5 0 c 128,-1,26
 157 3 157 3 146 8 c 1,27,-1
 110 -150 l 1,0,-1
380 471 m 0,28,29
 352 471 352 471 326.5 459 c 128,-1,30
 301 447 301 447 280.5 429.5 c 128,-1,31
 260 412 260 412 245 391.5 c 128,-1,32
 230 371 230 371 223 353 c 1,33,-1
 158 58 l 1,34,35
 165 52 165 52 172.5 47.5 c 128,-1,36
 180 43 180 43 189.5 41 c 128,-1,37
 199 39 199 39 212 38 c 128,-1,38
 225 37 225 37 244 37 c 0,39,40
 287 37 287 37 325.5 67 c 128,-1,41
 364 97 364 97 393 144.5 c 128,-1,42
 422 192 422 192 439.5 251 c 128,-1,43
 457 310 457 310 457 367 c 0,44,45
 457 417 457 417 437.5 444 c 128,-1,46
 418 471 418 471 380 471 c 0,28,29
EndSplineSet
EndChar

StartChar: Aogonek
Encoding: 260 260 198
Width: 745
Flags: W
LayerCount: 2
Fore
SplineSet
193 0 m 1,0,-1
 -50 0 l 1,1,-1
 -38 56 l 1,2,-1
 38 56 l 1,3,-1
 432 700 l 1,4,-1
 538 700 l 1,5,-1
 636 56 l 1,6,-1
 710 56 l 1,7,-1
 698 0 l 1,8,-1
 640 0 l 1,9,10
 590 -19 590 -19 557 -44 c 128,-1,11
 524 -69 524 -69 524 -110 c 0,12,13
 524 -137 524 -137 539 -147.5 c 128,-1,14
 554 -158 554 -158 587 -158 c 0,15,16
 621 -158 621 -158 650 -152 c 1,17,-1
 650 -183 l 1,18,19
 634 -194 634 -194 609 -202.5 c 128,-1,20
 584 -211 584 -211 547 -211 c 0,21,22
 494 -211 494 -211 461 -191.5 c 128,-1,23
 428 -172 428 -172 428 -128 c 0,24,25
 428 -105 428 -105 439 -85.5 c 128,-1,26
 450 -66 450 -66 468.5 -50.5 c 128,-1,27
 487 -35 487 -35 512 -22 c 128,-1,28
 537 -9 537 -9 564 0 c 1,29,-1
 415 0 l 1,30,-1
 427 56 l 1,31,-1
 516 56 l 1,32,-1
 489 232 l 1,33,-1
 225 232 l 1,34,-1
 119 56 l 1,35,-1
 205 56 l 1,36,-1
 193 0 l 1,0,-1
260 288 m 1,37,-1
 484 288 l 1,38,-1
 453 519 l 1,39,-1
 450 625 l 1,40,-1
 446 625 l 1,41,-1
 392 517 l 1,42,-1
 260 288 l 1,37,-1
EndSplineSet
Position2: "'cpsp' Capital Spacing lookup 0 subtable" dx=40 dy=0 dh=80 dv=0
EndChar

StartChar: aogonek
Encoding: 261 261 199
Width: 591
Flags: W
LayerCount: 2
Fore
SplineSet
370 117 m 1,0,1
 360 100 360 100 342 78 c 128,-1,2
 324 56 324 56 298.5 36.5 c 128,-1,3
 273 17 273 17 241 3.5 c 128,-1,4
 209 -10 209 -10 172 -10 c 0,5,6
 115 -10 115 -10 80.5 29 c 128,-1,7
 46 68 46 68 46 146 c 0,8,9
 46 220 46 220 67 290 c 128,-1,10
 88 360 88 360 128 414.5 c 128,-1,11
 168 469 168 469 226.5 502 c 128,-1,12
 285 535 285 535 361 535 c 0,13,14
 389 535 389 535 414.5 524.5 c 128,-1,15
 440 514 440 514 451 501 c 1,16,-1
 467 525 l 1,17,-1
 544 525 l 1,18,-1
 450 54 l 1,19,-1
 532 54 l 1,20,-1
 532 0 l 1,21,-1
 524 0 l 1,22,23
 502 -7 502 -7 481 -17.5 c 128,-1,24
 460 -28 460 -28 443.5 -42.5 c 128,-1,25
 427 -57 427 -57 416.5 -76 c 128,-1,26
 406 -95 406 -95 406 -118 c 0,27,28
 406 -144 406 -144 421 -160.5 c 128,-1,29
 436 -177 436 -177 472 -177 c 0,30,31
 483 -177 483 -177 493 -175 c 128,-1,32
 503 -173 503 -173 518 -168 c 1,33,-1
 518 -201 l 1,34,35
 501 -210 501 -210 477 -216 c 128,-1,36
 453 -222 453 -222 433 -222 c 0,37,38
 367 -222 367 -222 339 -197 c 128,-1,39
 311 -172 311 -172 311 -134 c 0,40,41
 311 -108 311 -108 322.5 -86.5 c 128,-1,42
 334 -65 334 -65 354 -48.5 c 128,-1,43
 374 -32 374 -32 401 -20 c 128,-1,44
 428 -8 428 -8 459 0 c 1,45,-1
 355 0 l 1,46,-1
 376 117 l 1,47,-1
 370 117 l 1,0,1
220 54 m 0,48,49
 239 54 239 54 262 65.5 c 128,-1,50
 285 77 285 77 307.5 95 c 128,-1,51
 330 113 330 113 349.5 135.5 c 128,-1,52
 369 158 369 158 382 180 c 1,53,-1
 435 452 l 1,54,55
 425 465 425 465 405.5 473 c 128,-1,56
 386 481 386 481 361 481 c 0,57,58
 310 481 310 481 271 452.5 c 128,-1,59
 232 424 232 424 205 378 c 128,-1,60
 178 332 178 332 164 275.5 c 128,-1,61
 150 219 150 219 150 164 c 0,62,63
 150 54 150 54 220 54 c 0,48,49
EndSplineSet
EndChar

StartChar: dcroat
Encoding: 273 273 209
Width: 591
Flags: W
LayerCount: 2
Fore
SplineSet
302 643 m 1,0,-1
 477 643 l 1,1,-1
 488 696 l 1,2,-1
 415 696 l 1,3,-1
 415 750 l 1,4,-1
 598 750 l 1,5,-1
 576 643 l 1,6,-1
 672 643 l 1,7,-1
 659 592 l 1,8,-1
 565 592 l 1,9,-1
 453 50 l 1,10,-1
 534 50 l 1,11,-1
 534 0 l 1,12,-1
 357 0 l 1,13,-1
 370 104 l 1,14,-1
 365 104 l 1,15,16
 354 84 354 84 337 63.5 c 128,-1,17
 320 43 320 43 297 26.5 c 128,-1,18
 274 10 274 10 245 0 c 128,-1,19
 216 -10 216 -10 182 -10 c 0,20,21
 153 -10 153 -10 129 1 c 128,-1,22
 105 12 105 12 87 32 c 128,-1,23
 69 52 69 52 59 81.5 c 128,-1,24
 49 111 49 111 49 147 c 0,25,26
 49 221 49 221 71 291 c 128,-1,27
 93 361 93 361 134.5 415 c 128,-1,28
 176 469 176 469 236 502 c 128,-1,29
 296 535 296 535 371 535 c 0,30,31
 386 535 386 535 396.5 534 c 128,-1,32
 407 533 407 533 415.5 531 c 128,-1,33
 424 529 424 529 432 525.5 c 128,-1,34
 440 522 440 522 451 518 c 1,35,-1
 466 592 l 1,36,-1
 287 592 l 1,37,-1
 302 643 l 1,0,-1
230 54 m 0,38,39
 256 54 256 54 278.5 63 c 128,-1,40
 301 72 301 72 320 87 c 128,-1,41
 339 102 339 102 354.5 121 c 128,-1,42
 370 140 370 140 381 160 c 1,43,-1
 440 461 l 1,44,45
 424 472 424 472 410.5 476.5 c 128,-1,46
 397 481 397 481 372 481 c 0,47,48
 319 481 319 481 278 452.5 c 128,-1,49
 237 424 237 424 209 378.5 c 128,-1,50
 181 333 181 333 166 276.5 c 128,-1,51
 151 220 151 220 151 164 c 0,52,53
 151 110 151 110 173.5 82 c 128,-1,54
 196 54 196 54 230 54 c 0,38,39
EndSplineSet
EndChar

StartChar: Eogonek
Encoding: 280 280 214
Width: 635
Flags: W
LayerCount: 2
Fore
SplineSet
659 700 m 1,0,-1
 624 536 l 1,1,-1
 560 536 l 1,2,-1
 579 622 l 1,3,-1
 563 644 l 1,4,-1
 318 644 l 1,5,-1
 263 385 l 1,6,-1
 432 385 l 1,7,-1
 450 400 l 1,8,-1
 459 442 l 1,9,-1
 523 442 l 1,10,-1
 487 271 l 1,11,-1
 423 271 l 1,12,-1
 432 313 l 1,13,-1
 420 329 l 1,14,-1
 251 329 l 1,15,-1
 193 56 l 1,16,-1
 455 56 l 1,17,-1
 479 76 l 1,18,-1
 500 174 l 1,19,-1
 564 174 l 1,20,-1
 527 0 l 1,21,-1
 471 0 l 1,22,23
 421 -19 421 -19 388 -44 c 128,-1,24
 355 -69 355 -69 355 -110 c 0,25,26
 355 -137 355 -137 370 -147.5 c 128,-1,27
 385 -158 385 -158 418 -158 c 0,28,29
 452 -158 452 -158 481 -152 c 1,30,-1
 481 -183 l 1,31,32
 465 -194 465 -194 440 -202.5 c 128,-1,33
 415 -211 415 -211 378 -211 c 0,34,35
 325 -211 325 -211 292 -191.5 c 128,-1,36
 259 -172 259 -172 259 -128 c 0,37,38
 259 -105 259 -105 270 -85.5 c 128,-1,39
 281 -66 281 -66 299.5 -50.5 c 128,-1,40
 318 -35 318 -35 343 -22 c 128,-1,41
 368 -9 368 -9 395 0 c 1,42,-1
 -21 0 l 1,43,-1
 -10 56 l 1,44,-1
 81 56 l 1,45,-1
 206 644 l 1,46,-1
 115 644 l 1,47,-1
 127 700 l 1,48,-1
 659 700 l 1,0,-1
EndSplineSet
Position2: "'cpsp' Capital Spacing lookup 0 subtable" dx=40 dy=0 dh=80 dv=0
EndChar

StartChar: eogonek
Encoding: 281 281 215
Width: 501
Flags: W
LayerCount: 2
Fore
SplineSet
435 96 m 1,0,1
 418 64 418 64 382 36.5 c 128,-1,2
 346 9 346 9 295 -2 c 1,3,4
 261 -19 261 -19 238.5 -42 c 128,-1,5
 216 -65 216 -65 216 -100 c 0,6,7
 216 -120 216 -120 228 -136.5 c 128,-1,8
 240 -153 240 -153 270 -153 c 256,9,10
 300 -153 300 -153 329 -143 c 1,11,-1
 329 -179 l 1,12,13
 313 -188 313 -188 288.5 -194 c 128,-1,14
 264 -200 264 -200 244 -200 c 0,15,16
 178 -200 178 -200 149 -176.5 c 128,-1,17
 120 -153 120 -153 120 -117 c 0,18,19
 120 -77 120 -77 149 -52.5 c 128,-1,20
 178 -28 178 -28 223 -10 c 1,21,22
 141 -7 141 -7 92.5 41.5 c 128,-1,23
 44 90 44 90 44 175 c 0,24,25
 44 250 44 250 66 316 c 128,-1,26
 88 382 88 382 128 431.5 c 128,-1,27
 168 481 168 481 224.5 508.5 c 128,-1,28
 281 536 281 536 350 536 c 0,29,30
 377 536 377 536 401 529.5 c 128,-1,31
 425 523 425 523 443 510 c 128,-1,32
 461 497 461 497 471 478 c 128,-1,33
 481 459 481 459 481 434 c 0,34,35
 481 361 481 361 404 317 c 128,-1,36
 327 273 327 273 154 261 c 1,37,38
 150 243 150 243 149 227 c 128,-1,39
 148 211 148 211 148 195 c 0,40,41
 148 132 148 132 180.5 94.5 c 128,-1,42
 213 57 213 57 276 57 c 0,43,44
 296 57 296 57 315.5 63 c 128,-1,45
 335 69 335 69 353 78.5 c 128,-1,46
 371 88 371 88 385.5 100 c 128,-1,47
 400 112 400 112 409 123 c 1,48,-1
 435 96 l 1,0,1
317 489 m 0,49,50
 270 489 270 489 230 448.5 c 128,-1,51
 190 408 190 408 162 308 c 1,52,53
 268 311 268 311 325.5 343 c 128,-1,54
 383 375 383 375 383 430 c 0,55,56
 383 441 383 441 380 451.5 c 128,-1,57
 377 462 377 462 369.5 470.5 c 128,-1,58
 362 479 362 479 349.5 484 c 128,-1,59
 337 489 337 489 317 489 c 0,49,50
EndSplineSet
EndChar

StartChar: Hbar
Encoding: 294 294 226
Width: 810
Flags: W
LayerCount: 2
Fore
SplineSet
101 560 m 1,0,-1
 188 560 l 1,1,-1
 206 644 l 1,2,-1
 115 644 l 1,3,-1
 127 700 l 1,4,-1
 413 700 l 1,5,-1
 401 644 l 1,6,-1
 318 644 l 1,7,-1
 300 560 l 1,8,-1
 650 560 l 1,9,-1
 668 644 l 1,10,-1
 585 644 l 1,11,-1
 597 700 l 1,12,-1
 883 700 l 1,13,-1
 871 644 l 1,14,-1
 780 644 l 1,15,-1
 762 560 l 1,16,-1
 853 560 l 1,17,-1
 841 506 l 1,18,-1
 750 506 l 1,19,-1
 655 56 l 1,20,-1
 746 56 l 1,21,-1
 734 0 l 1,22,-1
 448 0 l 1,23,-1
 460 56 l 1,24,-1
 543 56 l 1,25,-1
 602 331 l 1,26,-1
 252 331 l 1,27,-1
 193 56 l 1,28,-1
 276 56 l 1,29,-1
 264 0 l 1,30,-1
 -21 0 l 1,31,-1
 -10 56 l 1,32,-1
 81 56 l 1,33,-1
 176 506 l 1,34,-1
 89 506 l 1,35,-1
 101 560 l 1,0,-1
614 387 m 1,36,-1
 639 506 l 1,37,-1
 289 506 l 1,38,-1
 264 387 l 1,39,-1
 614 387 l 1,36,-1
EndSplineSet
Position2: "'cpsp' Capital Spacing lookup 0 subtable" dx=40 dy=0 dh=80 dv=0
EndChar

StartChar: hbar
Encoding: 295 295 227
Width: 601
Flags: W
LayerCount: 2
Fore
SplineSet
81 643 m 1,0,-1
 174 643 l 1,1,-1
 185 696 l 1,2,-1
 113 696 l 1,3,-1
 113 750 l 1,4,-1
 294 750 l 1,5,-1
 269 643 l 1,6,-1
 451 643 l 1,7,-1
 438 592 l 1,8,-1
 257 592 l 1,9,-1
 223 441 l 1,10,-1
 229 441 l 1,11,12
 267 480 267 480 314 507.5 c 128,-1,13
 361 535 361 535 427 535 c 0,14,15
 529 535 529 535 529 415 c 0,16,17
 529 386 529 386 523.5 353.5 c 128,-1,18
 518 321 518 321 510 291 c 2,19,-1
 449 54 l 1,20,-1
 534 54 l 1,21,-1
 534 0 l 1,22,-1
 347 0 l 1,23,-1
 410 273 l 2,24,25
 418 305 418 305 424.5 334 c 128,-1,26
 431 363 431 363 431 389 c 0,27,28
 431 426 431 426 415.5 447 c 128,-1,29
 400 468 400 468 368 468 c 0,30,31
 345 468 345 468 323 461.5 c 128,-1,32
 301 455 301 455 281 445 c 128,-1,33
 261 435 261 435 244 422 c 128,-1,34
 227 409 227 409 215 396 c 1,35,-1
 133 0 l 1,36,-1
 37 0 l 1,37,-1
 163 592 l 1,38,-1
 66 592 l 1,39,-1
 81 643 l 1,0,-1
EndSplineSet
EndChar

StartChar: Iogonek
Encoding: 302 302 230
Width: 389
Flags: W
LayerCount: 2
Fore
SplineSet
293 0 m 1,0,-1
 237 0 l 1,1,2
 187 -19 187 -19 154 -44 c 128,-1,3
 121 -69 121 -69 121 -110 c 0,4,5
 121 -137 121 -137 136 -147.5 c 128,-1,6
 151 -158 151 -158 184 -158 c 0,7,8
 218 -158 218 -158 247 -152 c 1,9,-1
 247 -183 l 1,10,11
 231 -194 231 -194 206 -202.5 c 128,-1,12
 181 -211 181 -211 144 -211 c 0,13,14
 91 -211 91 -211 58 -191.5 c 128,-1,15
 25 -172 25 -172 25 -128 c 0,16,17
 25 -105 25 -105 36 -85.5 c 128,-1,18
 47 -66 47 -66 65.5 -50.5 c 128,-1,19
 84 -35 84 -35 109 -22 c 128,-1,20
 134 -9 134 -9 161 0 c 1,21,-1
 -1 0 l 1,22,-1
 11 56 l 1,23,-1
 102 56 l 1,24,-1
 227 644 l 1,25,-1
 136 644 l 1,26,-1
 148 700 l 1,27,-1
 442 700 l 1,28,-1
 430 644 l 1,29,-1
 339 644 l 1,30,-1
 214 56 l 1,31,-1
 305 56 l 1,32,-1
 293 0 l 1,0,-1
EndSplineSet
Position2: "'cpsp' Capital Spacing lookup 0 subtable" dx=40 dy=0 dh=80 dv=0
EndChar

StartChar: iogonek
Encoding: 303 303 231
Width: 307
Flags: W
LayerCount: 2
Fore
SplineSet
76 471 m 1,0,-1
 76 525 l 1,1,-1
 257 525 l 1,2,-1
 153 54 l 1,3,-1
 235 54 l 1,4,-1
 235 0 l 1,5,-1
 228 0 l 1,6,7
 206 -7 206 -7 185 -17.5 c 128,-1,8
 164 -28 164 -28 147.5 -42.5 c 128,-1,9
 131 -57 131 -57 120.5 -76 c 128,-1,10
 110 -95 110 -95 110 -118 c 0,11,12
 110 -144 110 -144 125 -160.5 c 128,-1,13
 140 -177 140 -177 176 -177 c 0,14,15
 187 -177 187 -177 197 -175 c 128,-1,16
 207 -173 207 -173 222 -168 c 1,17,-1
 222 -201 l 1,18,19
 205 -210 205 -210 181 -216 c 128,-1,20
 157 -222 157 -222 137 -222 c 0,21,22
 71 -222 71 -222 43 -197 c 128,-1,23
 15 -172 15 -172 15 -134 c 0,24,25
 15 -108 15 -108 26.5 -86.5 c 128,-1,26
 38 -65 38 -65 58 -48.5 c 128,-1,27
 78 -32 78 -32 105 -20 c 128,-1,28
 132 -8 132 -8 163 0 c 1,29,-1
 42 0 l 1,30,-1
 149 471 l 1,31,-1
 76 471 l 1,0,-1
143 687 m 256,32,33
 143 716 143 716 163.5 733 c 128,-1,34
 184 750 184 750 216 750 c 0,35,36
 250 750 250 750 269.5 733 c 128,-1,37
 289 716 289 716 289 687 c 256,38,39
 289 658 289 658 269.5 641 c 128,-1,40
 250 624 250 624 216 624 c 0,41,42
 184 624 184 624 163.5 641 c 128,-1,43
 143 658 143 658 143 687 c 256,32,33
EndSplineSet
EndChar

StartChar: dotlessi
Encoding: 305 305 233
Width: 307
Flags: W
LayerCount: 2
Fore
SplineSet
76 471 m 1,0,-1
 76 525 l 1,1,-1
 257 525 l 1,2,-1
 153 54 l 1,3,-1
 235 54 l 1,4,-1
 235 0 l 1,5,-1
 42 0 l 1,6,-1
 149 471 l 1,7,-1
 76 471 l 1,0,-1
EndSplineSet
EndChar

StartChar: Lslash
Encoding: 321 321 244
Width: 599
Flags: W
LayerCount: 2
Fore
SplineSet
115 644 m 1,0,-1
 127 700 l 1,1,-1
 438 700 l 1,2,-1
 426 644 l 1,3,-1
 318 644 l 1,4,-1
 266 398 l 1,5,-1
 445 487 l 1,6,-1
 429 410 l 1,7,-1
 249 322 l 1,8,-1
 193 56 l 1,9,-1
 459 56 l 1,10,-1
 484 78 l 1,11,-1
 513 216 l 1,12,-1
 585 216 l 1,13,-1
 539 0 l 1,14,-1
 -21 0 l 1,15,-1
 -10 56 l 1,16,-1
 81 56 l 1,17,-1
 124 260 l 1,18,-1
 20 209 l 1,19,-1
 36 285 l 1,20,-1
 140 336 l 1,21,-1
 206 644 l 1,22,-1
 115 644 l 1,0,-1
EndSplineSet
Position2: "'cpsp' Capital Spacing lookup 0 subtable" dx=40 dy=0 dh=80 dv=0
EndChar

StartChar: lslash
Encoding: 322 322 245
Width: 330
Flags: W
LayerCount: 2
Fore
SplineSet
14 310 m 1,0,-1
 123 370 l 1,1,-1
 192 696 l 1,2,-1
 119 696 l 1,3,-1
 119 750 l 1,4,-1
 300 750 l 1,5,-1
 233 431 l 1,6,-1
 350 496 l 1,7,-1
 335 425 l 1,8,-1
 218 361 l 1,9,-1
 178 169 l 2,10,11
 173 147 173 147 172 133 c 128,-1,12
 171 119 171 119 171 106 c 0,13,14
 171 78 171 78 181 67.5 c 128,-1,15
 191 57 191 57 206 57 c 0,16,17
 232 57 232 57 255 73 c 128,-1,18
 278 89 278 89 298 106 c 1,19,-1
 321 71 l 1,20,21
 310 57 310 57 293 43 c 128,-1,22
 276 29 276 29 255 17 c 128,-1,23
 234 5 234 5 210 -2.5 c 128,-1,24
 186 -10 186 -10 162 -10 c 0,25,26
 113 -10 113 -10 90 14 c 128,-1,27
 67 38 67 38 67 75 c 0,28,29
 67 91 67 91 69.5 108.5 c 128,-1,30
 72 126 72 126 76 145 c 2,31,-1
 108 300 l 1,32,-1
 -1 240 l 1,33,-1
 14 310 l 1,0,-1
EndSplineSet
EndChar

StartChar: OE
Encoding: 338 338 256
Width: 1052
Flags: W
LayerCount: 2
Fore
SplineSet
507 712 m 0,0,1
 533 712 533 712 570.5 709 c 128,-1,2
 608 706 608 706 638 700 c 1,3,-1
 1076 700 l 1,4,-1
 1041 536 l 1,5,-1
 977 536 l 1,6,-1
 996 622 l 1,7,-1
 980 644 l 1,8,-1
 738 644 l 1,9,-1
 683 385 l 1,10,-1
 852 385 l 1,11,-1
 870 400 l 1,12,-1
 879 442 l 1,13,-1
 943 442 l 1,14,-1
 907 271 l 1,15,-1
 843 271 l 1,16,-1
 852 313 l 1,17,-1
 840 329 l 1,18,-1
 671 329 l 1,19,-1
 613 56 l 1,20,-1
 875 56 l 1,21,-1
 899 76 l 1,22,-1
 920 174 l 1,23,-1
 984 174 l 1,24,-1
 947 0 l 1,25,-1
 490 0 l 1,26,27
 461 -6 461 -6 426 -9 c 128,-1,28
 391 -12 391 -12 360 -12 c 0,29,30
 308 -12 308 -12 257 2.5 c 128,-1,31
 206 17 206 17 166 50.5 c 128,-1,32
 126 84 126 84 101 139 c 128,-1,33
 76 194 76 194 76 274 c 0,34,35
 76 379 76 379 110.5 460.5 c 128,-1,36
 145 542 145 542 204 598 c 128,-1,37
 263 654 263 654 341.5 683 c 128,-1,38
 420 712 420 712 507 712 c 0,0,1
385 42 m 0,39,40
 446 42 446 42 502 62 c 1,41,-1
 624 633 l 1,42,43
 598 644 598 644 564 651 c 128,-1,44
 530 658 530 658 492 658 c 0,45,46
 424 658 424 658 370 625.5 c 128,-1,47
 316 593 316 593 278.5 538.5 c 128,-1,48
 241 484 241 484 221 413 c 128,-1,49
 201 342 201 342 201 265 c 0,50,51
 201 201 201 201 216.5 158.5 c 128,-1,52
 232 116 232 116 257.5 90 c 128,-1,53
 283 64 283 64 316.5 53 c 128,-1,54
 350 42 350 42 385 42 c 0,39,40
EndSplineSet
Position2: "'cpsp' Capital Spacing lookup 0 subtable" dx=40 dy=0 dh=80 dv=0
EndChar

StartChar: oe
Encoding: 339 339 257
Width: 858
Flags: W
LayerCount: 2
Fore
SplineSet
322 488 m 0,0,1
 287 488 287 488 260.5 473 c 128,-1,2
 234 458 234 458 214.5 433 c 128,-1,3
 195 408 195 408 182 376 c 128,-1,4
 169 344 169 344 161.5 308.5 c 128,-1,5
 154 273 154 273 151 237.5 c 128,-1,6
 148 202 148 202 148 171 c 0,7,8
 148 110 148 110 175.5 73.5 c 128,-1,9
 203 37 203 37 251 37 c 0,10,11
 289 37 289 37 319.5 64.5 c 128,-1,12
 350 92 350 92 371 136.5 c 128,-1,13
 392 181 392 181 403.5 238 c 128,-1,14
 415 295 415 295 415 354 c 0,15,16
 415 416 415 416 392.5 452 c 128,-1,17
 370 488 370 488 322 488 c 0,0,1
423 76 m 1,18,19
 402 51 402 51 377.5 34.5 c 128,-1,20
 353 18 353 18 327.5 8 c 128,-1,21
 302 -2 302 -2 277 -6 c 128,-1,22
 252 -10 252 -10 231 -10 c 0,23,24
 146 -10 146 -10 95 41 c 128,-1,25
 44 92 44 92 44 195 c 0,26,27
 44 251 44 251 62.5 311 c 128,-1,28
 81 371 81 371 118.5 421 c 128,-1,29
 156 471 156 471 212.5 503 c 128,-1,30
 269 535 269 535 344 535 c 0,31,32
 398 535 398 535 439.5 513.5 c 128,-1,33
 481 492 481 492 497 447 c 1,34,35
 545 498 545 498 599.5 516.5 c 128,-1,36
 654 535 654 535 706 535 c 0,37,38
 733 535 733 535 757 529 c 128,-1,39
 781 523 781 523 799 510.5 c 128,-1,40
 817 498 817 498 827 479.5 c 128,-1,41
 837 461 837 461 837 436 c 0,42,43
 837 361 837 361 760 317 c 128,-1,44
 683 273 683 273 510 261 c 1,45,46
 503 227 503 227 503 195 c 0,47,48
 503 132 503 132 536 94.5 c 128,-1,49
 569 57 569 57 632 57 c 0,50,51
 654 57 654 57 673.5 63 c 128,-1,52
 693 69 693 69 710.5 79 c 128,-1,53
 728 89 728 89 742 100.5 c 128,-1,54
 756 112 756 112 768 123 c 1,55,-1
 794 91 l 1,56,57
 783 71 783 71 763.5 52.5 c 128,-1,58
 744 34 744 34 717.5 20 c 128,-1,59
 691 6 691 6 658.5 -2 c 128,-1,60
 626 -10 626 -10 590 -10 c 0,61,62
 521 -10 521 -10 480.5 15.5 c 128,-1,63
 440 41 440 41 423 76 c 1,18,19
673 488 m 0,64,65
 650 488 650 488 628 478.5 c 128,-1,66
 606 469 606 469 586.5 448 c 128,-1,67
 567 427 567 427 549.5 392.5 c 128,-1,68
 532 358 532 358 518 308 c 1,69,70
 624 311 624 311 681.5 343 c 128,-1,71
 739 375 739 375 739 432 c 0,72,73
 739 454 739 454 726 471 c 128,-1,74
 713 488 713 488 673 488 c 0,64,65
EndSplineSet
EndChar

StartChar: Scedilla
Encoding: 350 350 268
Width: 586
Flags: W
LayerCount: 2
Fore
SplineSet
102 104 m 1,0,-1
 115 80 l 1,1,2
 122 74 122 74 136 67.5 c 128,-1,3
 150 61 150 61 167.5 55.5 c 128,-1,4
 185 50 185 50 204.5 47 c 128,-1,5
 224 44 224 44 243 44 c 0,6,7
 330 44 330 44 377.5 78 c 128,-1,8
 425 112 425 112 425 177 c 0,9,10
 425 216 425 216 403.5 244 c 128,-1,11
 382 272 382 272 350 295 c 128,-1,12
 318 318 318 318 280 339 c 128,-1,13
 242 360 242 360 210 385.5 c 128,-1,14
 178 411 178 411 156.5 444 c 128,-1,15
 135 477 135 477 135 523 c 0,16,17
 135 614 135 614 204 663 c 128,-1,18
 273 712 273 712 406 712 c 0,19,20
 475 712 475 712 520 702.5 c 128,-1,21
 565 693 565 693 597 678 c 1,22,23
 597 678 597 678 595 670.5 c 128,-1,24
 593 663 593 663 591 651 c 128,-1,25
 589 639 589 639 585.5 623.5 c 128,-1,26
 582 608 582 608 579 592 c 0,27,28
 571 554 571 554 561 507 c 1,29,-1
 497 507 l 1,30,-1
 519 614 l 1,31,-1
 508 639 l 1,32,33
 491 647 491 647 459 651.5 c 128,-1,34
 427 656 427 656 392 656 c 0,35,36
 317 656 317 656 282 626 c 128,-1,37
 247 596 247 596 247 554 c 0,38,39
 247 519 247 519 268.5 493.5 c 128,-1,40
 290 468 290 468 322 445.5 c 128,-1,41
 354 423 354 423 392 401.5 c 128,-1,42
 430 380 430 380 462 353.5 c 128,-1,43
 494 327 494 327 515.5 292 c 128,-1,44
 537 257 537 257 537 209 c 0,45,46
 537 117 537 117 471 58 c 128,-1,47
 405 -1 405 -1 277 -10 c 1,48,-1
 250 -64 l 1,49,50
 284 -65 284 -65 304.5 -70.5 c 128,-1,51
 325 -76 325 -76 336 -85.5 c 128,-1,52
 347 -95 347 -95 350.5 -107.5 c 128,-1,53
 354 -120 354 -120 354 -135 c 0,54,55
 354 -165 354 -165 331 -184 c 128,-1,56
 308 -203 308 -203 273.5 -213.5 c 128,-1,57
 239 -224 239 -224 200 -228 c 128,-1,58
 161 -232 161 -232 129 -232 c 1,59,-1
 129 -199 l 1,60,61
 151 -198 151 -198 173 -195.5 c 128,-1,62
 195 -193 195 -193 212.5 -188 c 128,-1,63
 230 -183 230 -183 241 -174.5 c 128,-1,64
 252 -166 252 -166 252 -152 c 0,65,66
 252 -142 252 -142 250.5 -134 c 128,-1,67
 249 -126 249 -126 242 -120.5 c 128,-1,68
 235 -115 235 -115 221 -111.5 c 128,-1,69
 207 -108 207 -108 182 -107 c 1,70,-1
 221 -12 l 1,71,72
 153 -10 153 -10 100.5 7 c 128,-1,73
 48 24 48 24 25 41 c 1,74,-1
 63 223 l 1,75,-1
 127 223 l 1,76,-1
 102 104 l 1,0,-1
EndSplineSet
Substitution2: "'locl' Localized Forms in Latin lookup 9 subtable" Scommaaccent
Position2: "'cpsp' Capital Spacing lookup 0 subtable" dx=40 dy=0 dh=80 dv=0
EndChar

StartChar: scedilla
Encoding: 351 351 269
Width: 471
Flags: W
LayerCount: 2
Fore
SplineSet
183 44 m 0,0,1
 201 44 201 44 221.5 47.5 c 128,-1,2
 242 51 242 51 259 60 c 128,-1,3
 276 69 276 69 287 84.5 c 128,-1,4
 298 100 298 100 298 124 c 0,5,6
 298 149 298 149 282.5 168 c 128,-1,7
 267 187 267 187 244 204.5 c 128,-1,8
 221 222 221 222 193.5 239.5 c 128,-1,9
 166 257 166 257 143 277.5 c 128,-1,10
 120 298 120 298 104.5 324 c 128,-1,11
 89 350 89 350 89 385 c 0,12,13
 89 422 89 422 106 450.5 c 128,-1,14
 123 479 123 479 152 497.5 c 128,-1,15
 181 516 181 516 221 525.5 c 128,-1,16
 261 535 261 535 306 535 c 0,17,18
 327 535 327 535 347.5 532 c 128,-1,19
 368 529 368 529 385.5 524.5 c 128,-1,20
 403 520 403 520 416 514 c 128,-1,21
 429 508 429 508 435 503 c 1,22,-1
 405 386 l 1,23,-1
 343 386 l 1,24,-1
 360 468 l 1,25,26
 352 474 352 474 331.5 477.5 c 128,-1,27
 311 481 311 481 296 481 c 0,28,29
 280 481 280 481 261.5 478.5 c 128,-1,30
 243 476 243 476 227 468.5 c 128,-1,31
 211 461 211 461 200.5 447.5 c 128,-1,32
 190 434 190 434 190 412 c 0,33,34
 190 385 190 385 205.5 365 c 128,-1,35
 221 345 221 345 245 328 c 128,-1,36
 269 311 269 311 296 294 c 128,-1,37
 323 277 323 277 347 256.5 c 128,-1,38
 371 236 371 236 386.5 209.5 c 128,-1,39
 402 183 402 183 402 146 c 0,40,41
 402 115 402 115 388.5 90 c 128,-1,42
 375 65 375 65 352 46 c 128,-1,43
 329 27 329 27 297.5 14.5 c 128,-1,44
 266 2 266 2 230 -4 c 1,45,-1
 204 -61 l 1,46,47
 235 -62 235 -62 254.5 -66 c 128,-1,48
 274 -70 274 -70 285.5 -78 c 128,-1,49
 297 -86 297 -86 301 -98 c 128,-1,50
 305 -110 305 -110 305 -127 c 0,51,52
 305 -157 305 -157 284.5 -176 c 128,-1,53
 264 -195 264 -195 233.5 -205.5 c 128,-1,54
 203 -216 203 -216 166.5 -220 c 128,-1,55
 130 -224 130 -224 99 -224 c 1,56,-1
 99 -192 l 1,57,58
 120 -191 120 -191 140.5 -189 c 128,-1,59
 161 -187 161 -187 177 -182 c 128,-1,60
 193 -177 193 -177 202.5 -168 c 128,-1,61
 212 -159 212 -159 212 -143 c 0,62,63
 212 -133 212 -133 209.5 -125.5 c 128,-1,64
 207 -118 207 -118 199 -113.5 c 128,-1,65
 191 -109 191 -109 177 -106 c 128,-1,66
 163 -103 163 -103 140 -101 c 1,67,-1
 177 -9 l 1,68,69
 173 -9 173 -9 170 -9.5 c 128,-1,70
 167 -10 167 -10 163 -10 c 0,71,72
 137 -10 137 -10 111.5 -5 c 128,-1,73
 86 0 86 0 64.5 7.5 c 128,-1,74
 43 15 43 15 27.5 23.5 c 128,-1,75
 12 32 12 32 6 38 c 1,76,-1
 44 157 l 1,77,-1
 112 157 l 1,78,-1
 86 74 l 1,79,80
 97 63 97 63 122 53.5 c 128,-1,81
 147 44 147 44 183 44 c 0,0,1
EndSplineSet
Substitution2: "'locl' Localized Forms in Latin lookup 9 subtable" scommaaccent
EndChar

StartChar: Tcedilla
Encoding: 354 354 272
Width: 688
Flags: W
LayerCount: 2
Fore
SplineSet
454 0 m 1,0,-1
 322 0 l 1,1,-1
 289 -64 l 1,2,3
 323 -65 323 -65 343.5 -70.5 c 128,-1,4
 364 -76 364 -76 375 -85.5 c 128,-1,5
 386 -95 386 -95 389.5 -107.5 c 128,-1,6
 393 -120 393 -120 393 -135 c 0,7,8
 393 -165 393 -165 370 -184 c 128,-1,9
 347 -203 347 -203 312.5 -213.5 c 128,-1,10
 278 -224 278 -224 239 -228 c 128,-1,11
 200 -232 200 -232 168 -232 c 1,12,-1
 168 -199 l 1,13,14
 190 -198 190 -198 212 -195.5 c 128,-1,15
 234 -193 234 -193 251.5 -188 c 128,-1,16
 269 -183 269 -183 280 -174.5 c 128,-1,17
 291 -166 291 -166 291 -152 c 0,18,19
 291 -142 291 -142 289.5 -134 c 128,-1,20
 288 -126 288 -126 281 -120.5 c 128,-1,21
 274 -115 274 -115 260 -111.5 c 128,-1,22
 246 -108 246 -108 221 -107 c 1,23,-1
 265 0 l 1,24,-1
 136 0 l 1,25,-1
 148 56 l 1,26,-1
 251 56 l 1,27,-1
 376 644 l 1,28,-1
 196 644 l 1,29,-1
 173 622 l 1,30,-1
 145 493 l 1,31,-1
 73 493 l 1,32,-1
 117 700 l 1,33,-1
 771 700 l 1,34,-1
 727 493 l 1,35,-1
 655 493 l 1,36,-1
 683 622 l 1,37,-1
 666 644 l 1,38,-1
 488 644 l 1,39,-1
 363 56 l 1,40,-1
 466 56 l 1,41,-1
 454 0 l 1,0,-1
EndSplineSet
Substitution2: "'locl' Localized Forms in Latin lookup 9 subtable" Tcommaaccent
Position2: "'cpsp' Capital Spacing lookup 0 subtable" dx=40 dy=0 dh=80 dv=0
EndChar

StartChar: tcedilla
Encoding: 355 355 273
Width: 395
Flags: W
LayerCount: 2
Fore
SplineSet
58 525 m 1,0,-1
 164 525 l 1,1,-1
 193 640 l 1,2,-1
 287 640 l 1,3,-1
 260 525 l 1,4,-1
 395 525 l 1,5,-1
 395 471 l 1,6,-1
 249 471 l 1,7,-1
 170 169 l 2,8,9
 165 149 165 149 163.5 133 c 128,-1,10
 162 117 162 117 162 100 c 0,11,12
 162 54 162 54 214 54 c 0,13,14
 241 54 241 54 275 66.5 c 128,-1,15
 309 79 309 79 335 102 c 1,16,-1
 356 62 l 1,17,18
 345 50 345 50 327 38 c 128,-1,19
 309 26 309 26 286 16 c 128,-1,20
 263 6 263 6 235.5 -1.5 c 128,-1,21
 208 -9 208 -9 178 -10 c 1,22,-1
 154 -61 l 1,23,24
 185 -62 185 -62 204.5 -66 c 128,-1,25
 224 -70 224 -70 235.5 -78 c 128,-1,26
 247 -86 247 -86 251 -98 c 128,-1,27
 255 -110 255 -110 255 -127 c 0,28,29
 255 -157 255 -157 234.5 -176 c 128,-1,30
 214 -195 214 -195 183 -205.5 c 128,-1,31
 152 -216 152 -216 116 -220 c 128,-1,32
 80 -224 80 -224 49 -224 c 1,33,-1
 49 -192 l 1,34,35
 70 -191 70 -191 90.5 -189 c 128,-1,36
 111 -187 111 -187 127 -182 c 128,-1,37
 143 -177 143 -177 152.5 -168 c 128,-1,38
 162 -159 162 -159 162 -143 c 0,39,40
 162 -133 162 -133 159.5 -125.5 c 128,-1,41
 157 -118 157 -118 149 -113.5 c 128,-1,42
 141 -109 141 -109 127 -106 c 128,-1,43
 113 -103 113 -103 90 -101 c 1,44,-1
 129 -7 l 1,45,46
 96 1 96 1 78.5 23 c 128,-1,47
 61 45 61 45 61 75 c 0,48,49
 61 91 61 91 62 108.5 c 128,-1,50
 63 126 63 126 68 145 c 2,51,-1
 150 471 l 1,52,-1
 58 471 l 1,53,-1
 58 525 l 1,0,-1
EndSplineSet
Substitution2: "'locl' Localized Forms in Latin lookup 9 subtable" tcommaaccent
EndChar

StartChar: Uogonek
Encoding: 370 370 284
Width: 752
Flags: W
LayerCount: 2
Fore
SplineSet
657 244 m 2,0,1
 635 139 635 139 581.5 80 c 128,-1,2
 528 21 528 21 443 1 c 1,3,4
 392 -18 392 -18 358 -43 c 128,-1,5
 324 -68 324 -68 324 -110 c 0,6,7
 324 -137 324 -137 339 -147.5 c 128,-1,8
 354 -158 354 -158 387 -158 c 0,9,10
 421 -158 421 -158 450 -152 c 1,11,-1
 450 -183 l 1,12,13
 434 -194 434 -194 409 -202.5 c 128,-1,14
 384 -211 384 -211 347 -211 c 0,15,16
 294 -211 294 -211 261 -191.5 c 128,-1,17
 228 -172 228 -172 228 -128 c 0,18,19
 228 -87 228 -87 260.5 -58 c 128,-1,20
 293 -29 293 -29 341 -9 c 1,21,22
 276 -8 276 -8 230 7.5 c 128,-1,23
 184 23 184 23 155 50 c 128,-1,24
 126 77 126 77 112.5 114.5 c 128,-1,25
 99 152 99 152 99 196 c 0,26,27
 99 233 99 233 108 275 c 2,28,-1
 186 644 l 1,29,-1
 95 644 l 1,30,-1
 107 700 l 1,31,-1
 391 700 l 1,32,-1
 379 644 l 1,33,-1
 298 644 l 1,34,-1
 219 277 l 2,35,36
 215 257 215 257 213 240 c 128,-1,37
 211 223 211 223 211 206 c 0,38,39
 211 134 211 134 251 96 c 128,-1,40
 291 58 291 58 375 58 c 0,41,42
 551 58 551 58 592 246 c 2,43,-1
 677 644 l 1,44,-1
 596 644 l 1,45,-1
 608 700 l 1,46,-1
 845 700 l 1,47,-1
 833 644 l 1,48,-1
 742 644 l 1,49,-1
 657 244 l 2,0,1
EndSplineSet
Position2: "'cpsp' Capital Spacing lookup 0 subtable" dx=40 dy=0 dh=80 dv=0
EndChar

StartChar: uogonek
Encoding: 371 371 285
Width: 600
Flags: W
LayerCount: 2
Fore
SplineSet
540 54 m 1,0,-1
 540 0 l 1,1,-1
 532 0 l 1,2,3
 510 -7 510 -7 489 -17.5 c 128,-1,4
 468 -28 468 -28 451.5 -42.5 c 128,-1,5
 435 -57 435 -57 424.5 -76 c 128,-1,6
 414 -95 414 -95 414 -118 c 0,7,8
 414 -144 414 -144 429 -160.5 c 128,-1,9
 444 -177 444 -177 480 -177 c 0,10,11
 491 -177 491 -177 501 -175 c 128,-1,12
 511 -173 511 -173 526 -168 c 1,13,-1
 526 -201 l 1,14,15
 509 -210 509 -210 485 -216 c 128,-1,16
 461 -222 461 -222 441 -222 c 0,17,18
 375 -222 375 -222 347 -197 c 128,-1,19
 319 -172 319 -172 319 -134 c 0,20,21
 319 -108 319 -108 330.5 -86.5 c 128,-1,22
 342 -65 342 -65 362 -48.5 c 128,-1,23
 382 -32 382 -32 409 -20 c 128,-1,24
 436 -8 436 -8 467 0 c 1,25,-1
 356 0 l 1,26,-1
 377 118 l 1,27,-1
 373 118 l 1,28,29
 358 97 358 97 336 74.5 c 128,-1,30
 314 52 314 52 286.5 33.5 c 128,-1,31
 259 15 259 15 226.5 2.5 c 128,-1,32
 194 -10 194 -10 158 -10 c 0,33,34
 112 -10 112 -10 85 14.5 c 128,-1,35
 58 39 58 39 58 86 c 0,36,37
 58 100 58 100 60.5 122.5 c 128,-1,38
 63 145 63 145 69 174 c 2,39,-1
 132 471 l 1,40,-1
 63 471 l 1,41,-1
 63 525 l 1,42,-1
 243 525 l 1,43,-1
 174 226 l 2,44,45
 168 200 168 200 162 170.5 c 128,-1,46
 156 141 156 141 156 113 c 0,47,48
 156 83 156 83 169 68.5 c 128,-1,49
 182 54 182 54 203 54 c 0,50,51
 237 54 237 54 267.5 70 c 128,-1,52
 298 86 298 86 322.5 107.5 c 128,-1,53
 347 129 347 129 363.5 152 c 128,-1,54
 380 175 380 175 388 190 c 1,55,-1
 455 525 l 1,56,-1
 550 525 l 1,57,-1
 459 54 l 1,58,-1
 540 54 l 1,0,-1
EndSplineSet
EndChar

StartChar: longs
Encoding: 383 383 293
Width: 327
Flags: W
LayerCount: 2
Fore
SplineSet
140 471 m 1,0,-1
 61 471 l 1,1,-1
 61 525 l 1,2,-1
 154 525 l 1,3,-1
 162 571 l 2,4,5
 171 621 171 621 191.5 655 c 128,-1,6
 212 689 212 689 243 710 c 128,-1,7
 274 731 274 731 313 740.5 c 128,-1,8
 352 750 352 750 397 750 c 0,9,10
 416 750 416 750 441 745.5 c 128,-1,11
 466 741 466 741 484 733 c 1,12,-1
 457 619 l 1,13,-1
 400 619 l 1,14,-1
 414 688 l 1,15,16
 403 692 403 692 391 694 c 128,-1,17
 379 696 379 696 368 696 c 0,18,19
 330 696 330 696 300 668.5 c 128,-1,20
 270 641 270 641 259 577 c 2,21,-1
 167 45 l 2,22,23
 154 -29 154 -29 127 -75.5 c 128,-1,24
 100 -122 100 -122 68.5 -149.5 c 128,-1,25
 37 -177 37 -177 7 -189.5 c 128,-1,26
 -23 -202 -23 -202 -41 -207 c 1,27,-1
 -60 -166 l 1,28,29
 -46 -160 -46 -160 -27.5 -149 c 128,-1,30
 -9 -138 -9 -138 10 -116.5 c 128,-1,31
 29 -95 29 -95 45 -61 c 128,-1,32
 61 -27 61 -27 70 25 c 2,33,-1
 140 471 l 1,0,-1
EndSplineSet
EndChar

StartChar: uni0237
Encoding: 567 567 301
Width: 300
Flags: W
LayerCount: 2
Fore
SplineSet
147 471 m 1,0,-1
 79 471 l 1,1,-1
 79 525 l 1,2,-1
 256 525 l 1,3,-1
 151 45 l 2,4,5
 134 -30 134 -30 103.5 -77 c 128,-1,6
 73 -124 73 -124 39 -152 c 128,-1,7
 5 -180 5 -180 -27 -192 c 128,-1,8
 -59 -204 -59 -204 -77 -209 c 1,9,-1
 -93 -168 l 1,10,11
 -80 -162 -80 -162 -60.5 -151.5 c 128,-1,12
 -41 -141 -41 -141 -21 -120 c 128,-1,13
 -1 -99 -1 -99 18 -64.5 c 128,-1,14
 37 -30 37 -30 49 25 c 2,15,-1
 147 471 l 1,0,-1
EndSplineSet
EndChar

StartChar: circumflex
Encoding: 710 710 303
Width: 439
Flags: W
LayerCount: 2
Fore
SplineSet
180 619 m 1,0,-1
 148 636 l 1,1,-1
 343 832 l 1,2,-1
 372 832 l 1,3,-1
 428 637 l 1,4,-1
 396 619 l 1,5,-1
 326 731 l 1,6,-1
 180 619 l 1,0,-1
EndSplineSet
EndChar

StartChar: caron
Encoding: 711 711 304
Width: 437
Flags: W
LayerCount: 2
Fore
SplineSet
463 806 m 1,0,-1
 495 789 l 1,1,-1
 296 594 l 1,2,-1
 267 594 l 1,3,-1
 190 788 l 1,4,-1
 230 806 l 1,5,-1
 309 696 l 1,6,-1
 463 806 l 1,0,-1
EndSplineSet
AlternateSubs2: "'aalt' Access All Alternates lookup 1 subtable" caron.l caron.L
EndChar

StartChar: breve
Encoding: 728 728 305
Width: 441
Flags: W
LayerCount: 2
Fore
SplineSet
490 756 m 1,0,1
 480 732 480 732 461 709 c 128,-1,2
 442 686 442 686 417.5 668 c 128,-1,3
 393 650 393 650 365 638.5 c 128,-1,4
 337 627 337 627 309 627 c 0,5,6
 279 627 279 627 257 637 c 128,-1,7
 235 647 235 647 220 665 c 128,-1,8
 205 683 205 683 196 707 c 128,-1,9
 187 731 187 731 183 758 c 1,10,-1
 215 772 l 1,11,12
 226 741 226 741 250.5 722 c 128,-1,13
 275 703 275 703 310 703 c 0,14,15
 360 703 360 703 397 717.5 c 128,-1,16
 434 732 434 732 463 768 c 1,17,-1
 490 756 l 1,0,1
EndSplineSet
EndChar

StartChar: dotaccent
Encoding: 729 729 306
Width: 353
Flags: W
LayerCount: 2
Fore
SplineSet
207 687 m 256,0,1
 207 716 207 716 227.5 733 c 128,-1,2
 248 750 248 750 280 750 c 0,3,4
 314 750 314 750 333.5 733 c 128,-1,5
 353 716 353 716 353 687 c 256,6,7
 353 658 353 658 333.5 641 c 128,-1,8
 314 624 314 624 280 624 c 0,9,10
 248 624 248 624 227.5 641 c 128,-1,11
 207 658 207 658 207 687 c 256,0,1
EndSplineSet
EndChar

StartChar: ring
Encoding: 730 730 307
Width: 398
Flags: W
LayerCount: 2
Fore
SplineSet
174 717 m 0,0,1
 174 760 174 760 206 789.5 c 128,-1,2
 238 819 238 819 287 819 c 0,3,4
 332 819 332 819 362.5 792.5 c 128,-1,5
 393 766 393 766 393 720 c 0,6,7
 393 699 393 699 384 681 c 128,-1,8
 375 663 375 663 360.5 650 c 128,-1,9
 346 637 346 637 326.5 629.5 c 128,-1,10
 307 622 307 622 286 622 c 0,11,12
 235 622 235 622 204.5 647.5 c 128,-1,13
 174 673 174 673 174 717 c 0,0,1
234 719 m 256,14,15
 234 693 234 693 249 679.5 c 128,-1,16
 264 666 264 666 282 666 c 0,17,18
 304 666 304 666 318.5 678 c 128,-1,19
 333 690 333 690 333 716 c 0,20,21
 333 745 333 745 319 760 c 128,-1,22
 305 775 305 775 283 775 c 0,23,24
 257 775 257 775 245.5 760 c 128,-1,25
 234 745 234 745 234 719 c 256,14,15
EndSplineSet
EndChar

StartChar: ogonek
Encoding: 731 731 308
Width: 470
Flags: W
LayerCount: 2
Fore
SplineSet
338 21 m 1,0,1
 312 12 312 12 287 1 c 128,-1,2
 262 -10 262 -10 243 -24.5 c 128,-1,3
 224 -39 224 -39 212.5 -57.5 c 128,-1,4
 201 -76 201 -76 201 -100 c 0,5,6
 201 -120 201 -120 213 -136.5 c 128,-1,7
 225 -153 225 -153 255 -153 c 256,8,9
 285 -153 285 -153 314 -143 c 1,10,-1
 314 -179 l 1,11,12
 298 -188 298 -188 273.5 -194 c 128,-1,13
 249 -200 249 -200 229 -200 c 0,14,15
 163 -200 163 -200 134 -176.5 c 128,-1,16
 105 -153 105 -153 105 -117 c 0,17,18
 105 -89 105 -89 120.5 -68.5 c 128,-1,19
 136 -48 136 -48 162 -32.5 c 128,-1,20
 188 -17 188 -17 222.5 -4.5 c 128,-1,21
 257 8 257 8 295 21 c 1,22,-1
 338 21 l 1,0,1
EndSplineSet
EndChar

StartChar: tilde
Encoding: 732 732 309
Width: 418
Flags: W
LayerCount: 2
Fore
SplineSet
419 705 m 1,0,1
 383 671 383 671 352.5 658.5 c 128,-1,2
 322 646 322 646 297 646 c 0,3,4
 277 646 277 646 259 651.5 c 128,-1,5
 241 657 241 657 224 663.5 c 128,-1,6
 207 670 207 670 191 675.5 c 128,-1,7
 175 681 175 681 158 681 c 0,8,9
 144 681 144 681 128.5 675.5 c 128,-1,10
 113 670 113 670 95 655 c 1,11,-1
 73 687 l 1,12,13
 115 723 115 723 147.5 736 c 128,-1,14
 180 749 180 749 206 749 c 0,15,16
 226 749 226 749 243.5 743.5 c 128,-1,17
 261 738 261 738 277 732 c 128,-1,18
 293 726 293 726 309 720.5 c 128,-1,19
 325 715 325 715 342 715 c 0,20,21
 356 715 356 715 371 719.5 c 128,-1,22
 386 724 386 724 403 736 c 1,23,-1
 419 705 l 1,0,1
EndSplineSet
EndChar

StartChar: hungarumlaut
Encoding: 733 733 310
Width: 627
Flags: W
LayerCount: 2
Fore
SplineSet
338 806 m 1,0,-1
 435 784 l 1,1,-1
 435 758 l 1,2,-1
 280 628 l 1,3,-1
 253 644 l 1,4,-1
 338 806 l 1,0,-1
534 806 m 1,5,-1
 632 777 l 1,6,-1
 632 752 l 1,7,-1
 408 628 l 1,8,-1
 385 646 l 1,9,-1
 534 806 l 1,5,-1
EndSplineSet
EndChar

StartChar: uni0394
Encoding: 916 916 312
AltUni2: 002206.ffffffff.0
Width: 728
Flags: W
LayerCount: 2
Fore
SplineSet
22 0 m 1,0,-1
 22 32 l 1,1,-1
 351 700 l 1,2,-1
 384 700 l 1,3,-1
 706 32 l 1,4,-1
 706 0 l 1,5,-1
 22 0 l 1,0,-1
344 559 m 1,6,-1
 103 62 l 1,7,-1
 572 62 l 1,8,-1
 344 559 l 1,6,-1
EndSplineSet
EndChar

StartChar: uni03A9
Encoding: 937 937 313
AltUni2: 002126.ffffffff.0
Width: 895
Flags: W
LayerCount: 2
Fore
SplineSet
62 0 m 1,0,-1
 62 146 l 1,1,-1
 126 146 l 1,2,-1
 126 78 l 1,3,-1
 333 78 l 1,4,5
 283 94 283 94 238 121.5 c 128,-1,6
 193 149 193 149 158.5 187 c 128,-1,7
 124 225 124 225 104 273 c 128,-1,8
 84 321 84 321 84 379 c 0,9,10
 84 454 84 454 110 515.5 c 128,-1,11
 136 577 136 577 184 620.5 c 128,-1,12
 232 664 232 664 301 687.5 c 128,-1,13
 370 711 370 711 456 711 c 0,14,15
 543 711 543 711 609.5 688 c 128,-1,16
 676 665 676 665 721.5 623 c 128,-1,17
 767 581 767 581 790.5 521.5 c 128,-1,18
 814 462 814 462 814 389 c 0,19,20
 814 327 814 327 792 276 c 128,-1,21
 770 225 770 225 735 185.5 c 128,-1,22
 700 146 700 146 657 119 c 128,-1,23
 614 92 614 92 572 78 c 1,24,-1
 769 78 l 1,25,-1
 769 146 l 1,26,-1
 832 146 l 1,27,-1
 832 0 l 1,28,-1
 513 0 l 1,29,-1
 513 85 l 1,30,31
 540 95 540 95 570.5 119 c 128,-1,32
 601 143 601 143 627.5 180 c 128,-1,33
 654 217 654 217 671.5 266.5 c 128,-1,34
 689 316 689 316 689 377 c 0,35,36
 689 435 689 435 675 486.5 c 128,-1,37
 661 538 661 538 632 576 c 128,-1,38
 603 614 603 614 559 636 c 128,-1,39
 515 658 515 658 456 658 c 0,40,41
 389 658 389 658 342 636.5 c 128,-1,42
 295 615 295 615 265.5 578 c 128,-1,43
 236 541 236 541 222.5 492 c 128,-1,44
 209 443 209 443 209 388 c 0,45,46
 209 326 209 326 227.5 275 c 128,-1,47
 246 224 246 224 274 185 c 128,-1,48
 302 146 302 146 334 120.5 c 128,-1,49
 366 95 366 95 393 85 c 1,50,-1
 393 0 l 1,51,-1
 62 0 l 1,0,-1
EndSplineSet
EndChar

StartChar: pi
Encoding: 960 960 314
Width: 681
Flags: W
LayerCount: 2
Fore
SplineSet
587 50 m 1,0,-1
 576 0 l 1,1,-1
 390 0 l 1,2,-1
 487 458 l 1,3,-1
 277 458 l 1,4,-1
 236 261 l 2,5,6
 228 226 228 226 217.5 190 c 128,-1,7
 207 154 207 154 194 120 c 128,-1,8
 181 86 181 86 166 55 c 128,-1,9
 151 24 151 24 135 0 c 1,10,-1
 15 0 l 1,11,12
 46 39 46 39 78 96 c 128,-1,13
 110 153 110 153 138.5 217 c 128,-1,14
 167 281 167 281 189 344 c 128,-1,15
 211 407 211 407 222 458 c 1,16,-1
 203 458 l 2,17,18
 171 458 171 458 142.5 443 c 128,-1,19
 114 428 114 428 82 396 c 1,20,-1
 57 410 l 1,21,22
 69 437 69 437 84 458.5 c 128,-1,23
 99 480 99 480 121 495 c 128,-1,24
 143 510 143 510 174 517.5 c 128,-1,25
 205 525 205 525 250 525 c 2,26,-1
 564 525 l 2,27,28
 600 525 600 525 624 525.5 c 128,-1,29
 648 526 648 526 665 529 c 128,-1,30
 682 532 682 532 694 537.5 c 128,-1,31
 706 543 706 543 719 552 c 1,32,-1
 734 543 l 1,33,34
 722 508 722 508 691.5 483 c 128,-1,35
 661 458 661 458 613 458 c 2,36,-1
 599 458 l 1,37,-1
 513 50 l 1,38,-1
 587 50 l 1,0,-1
EndSplineSet
EndChar

StartChar: afii10051
Encoding: 1026 1026 316
Width: 844
Flags: W
LayerCount: 2
Fore
SplineSet
430 0 m 1,0,-1
 135 0 l 1,1,-1
 146 56 l 1,2,-1
 251 56 l 1,3,-1
 376 644 l 1,4,-1
 197 644 l 1,5,-1
 173 622 l 1,6,-1
 145 493 l 1,7,-1
 73 493 l 1,8,-1
 117 700 l 1,9,-1
 771 700 l 1,10,-1
 727 493 l 1,11,-1
 655 493 l 1,12,-1
 683 622 l 1,13,-1
 667 644 l 1,14,-1
 488 644 l 1,15,-1
 434 389 l 1,16,17
 472 405 472 405 519.5 419.5 c 128,-1,18
 567 434 567 434 632 434 c 0,19,20
 728 434 728 434 769.5 396.5 c 128,-1,21
 811 359 811 359 811 277 c 0,22,23
 811 206 811 206 786.5 153 c 128,-1,24
 762 100 762 100 722 65.5 c 128,-1,25
 682 31 682 31 630.5 14 c 128,-1,26
 579 -3 579 -3 525 -3 c 1,27,-1
 529 34 l 1,28,29
 561 39 561 39 591 57 c 128,-1,30
 621 75 621 75 644.5 105 c 128,-1,31
 668 135 668 135 682.5 177.5 c 128,-1,32
 697 220 697 220 697 274 c 0,33,34
 697 327 697 327 675 353.5 c 128,-1,35
 653 380 653 380 596 380 c 0,36,37
 549 380 549 380 503.5 368.5 c 128,-1,38
 458 357 458 357 424 340 c 1,39,-1
 363 56 l 1,40,-1
 441 56 l 1,41,-1
 430 0 l 1,0,-1
EndSplineSet
Position2: "'cpsp' Capital Spacing lookup 0 subtable" dx=40 dy=0 dh=80 dv=0
EndChar

StartChar: afii10053
Encoding: 1028 1028 318
Width: 688
Flags: W
LayerCount: 2
Fore
SplineSet
559 184 m 1,0,-1
 623 184 l 1,1,-1
 590 27 l 1,2,3
 573 18 573 18 549.5 11 c 128,-1,4
 526 4 526 4 500 -1.5 c 128,-1,5
 474 -7 474 -7 447 -9.5 c 128,-1,6
 420 -12 420 -12 395 -12 c 0,7,8
 297 -12 297 -12 234.5 11 c 128,-1,9
 172 34 172 34 137 71.5 c 128,-1,10
 102 109 102 109 89 156 c 128,-1,11
 76 203 76 203 76 252 c 0,12,13
 76 352 76 352 106 436.5 c 128,-1,14
 136 521 136 521 192 582.5 c 128,-1,15
 248 644 248 644 328.5 678 c 128,-1,16
 409 712 409 712 511 712 c 0,17,18
 584 712 584 712 629.5 701.5 c 128,-1,19
 675 691 675 691 710 674 c 1,20,-1
 673 503 l 1,21,-1
 609 503 l 1,22,-1
 632 608 l 1,23,-1
 622 628 l 1,24,25
 611 633 611 633 585 640.5 c 128,-1,26
 559 648 559 648 507 648 c 0,27,28
 453 648 453 648 406.5 630 c 128,-1,29
 360 612 360 612 323 579 c 128,-1,30
 286 546 286 546 259 498.5 c 128,-1,31
 232 451 232 451 217 392 c 1,32,-1
 554 392 l 1,33,-1
 541 328 l 1,34,-1
 205 328 l 1,35,36
 203 310 203 310 202 292 c 128,-1,37
 201 274 201 274 201 255 c 0,38,39
 201 212 201 212 212.5 175 c 128,-1,40
 224 138 224 138 249.5 110.5 c 128,-1,41
 275 83 275 83 315.5 67.5 c 128,-1,42
 356 52 356 52 413 52 c 0,43,44
 449 52 449 52 478.5 57.5 c 128,-1,45
 508 63 508 63 522 72 c 1,46,-1
 540 91 l 1,47,-1
 559 184 l 1,0,-1
EndSplineSet
Position2: "'cpsp' Capital Spacing lookup 0 subtable" dx=40 dy=0 dh=80 dv=0
EndChar

StartChar: afii10056
Encoding: 1031 1031 321
Width: 389
Flags: W
LayerCount: 2
Fore
SplineSet
137 796 m 0,0,1
 137 825 137 825 155.5 839.5 c 128,-1,2
 174 854 174 854 202 854 c 0,3,4
 231 854 231 854 250 839.5 c 128,-1,5
 269 825 269 825 269 796 c 0,6,7
 269 770 269 770 250 756 c 128,-1,8
 231 742 231 742 202 742 c 0,9,10
 174 742 174 742 155.5 756 c 128,-1,11
 137 770 137 770 137 796 c 0,0,1
338 796 m 0,12,13
 338 825 338 825 357 839.5 c 128,-1,14
 376 854 376 854 403 854 c 0,15,16
 432 854 432 854 451 839.5 c 128,-1,17
 470 825 470 825 470 796 c 0,18,19
 470 770 470 770 451 756 c 128,-1,20
 432 742 432 742 403 742 c 0,21,22
 376 742 376 742 357 756 c 128,-1,23
 338 770 338 770 338 796 c 0,12,13
293 0 m 1,24,-1
 -1 0 l 1,25,-1
 11 56 l 1,26,-1
 102 56 l 1,27,-1
 227 644 l 1,28,-1
 136 644 l 1,29,-1
 148 700 l 1,30,-1
 442 700 l 1,31,-1
 430 644 l 1,32,-1
 339 644 l 1,33,-1
 214 56 l 1,34,-1
 305 56 l 1,35,-1
 293 0 l 1,24,-1
EndSplineSet
Position2: "'cpsp' Capital Spacing lookup 0 subtable" dx=40 dy=0 dh=80 dv=0
EndChar

StartChar: afii10058
Encoding: 1033 1033 323
Width: 1037
Flags: W
LayerCount: 2
Fore
SplineSet
651 417 m 1,0,1
 672 421 672 421 701.5 422.5 c 128,-1,2
 731 424 731 424 754 424 c 0,3,4
 810 424 810 424 856 414.5 c 128,-1,5
 902 405 902 405 935 384.5 c 128,-1,6
 968 364 968 364 986 332 c 128,-1,7
 1004 300 1004 300 1004 255 c 0,8,9
 1004 191 1004 191 977.5 142.5 c 128,-1,10
 951 94 951 94 904 62 c 128,-1,11
 857 30 857 30 790.5 13.5 c 128,-1,12
 724 -3 724 -3 645 -3 c 0,13,14
 640 -3 640 -3 623.5 -2.5 c 128,-1,15
 607 -2 607 -2 586.5 -1.5 c 128,-1,16
 566 -1 566 -1 543.5 -0.5 c 128,-1,17
 521 0 521 0 504 0 c 2,18,-1
 361 0 l 1,19,-1
 371 56 l 1,20,-1
 462 56 l 1,21,-1
 587 644 l 1,22,-1
 378 644 l 1,23,24
 354 550 354 550 333 477 c 128,-1,25
 312 404 312 404 292.5 348 c 128,-1,26
 273 292 273 292 255 249.5 c 128,-1,27
 237 207 237 207 220 174.5 c 128,-1,28
 203 142 203 142 186 116.5 c 128,-1,29
 169 91 169 91 152 68 c 0,30,31
 139 51 139 51 122 34 c 128,-1,32
 105 17 105 17 87 0 c 1,33,-1
 -28 0 l 1,34,-1
 -2 126 l 1,35,-1
 114 126 l 1,36,37
 135 151 135 151 159 192.5 c 128,-1,38
 183 234 183 234 208.5 296.5 c 128,-1,39
 234 359 234 359 259.5 445 c 128,-1,40
 285 531 285 531 309 644 c 1,41,-1
 205 644 l 1,42,-1
 217 700 l 1,43,-1
 811 700 l 1,44,-1
 799 644 l 1,45,-1
 699 644 l 1,46,-1
 651 417 l 1,0,1
717 368 m 0,47,48
 690 368 690 368 672 366 c 128,-1,49
 654 364 654 364 639 362 c 1,50,-1
 575 58 l 1,51,52
 581 57 581 57 591.5 56 c 128,-1,53
 602 55 602 55 613.5 54.5 c 128,-1,54
 625 54 625 54 636 53.5 c 128,-1,55
 647 53 647 53 653 53 c 0,56,57
 693 53 693 53 733 63 c 128,-1,58
 773 73 773 73 805.5 96.5 c 128,-1,59
 838 120 838 120 858.5 157.5 c 128,-1,60
 879 195 879 195 879 249 c 0,61,62
 879 274 879 274 871.5 296 c 128,-1,63
 864 318 864 318 845.5 334 c 128,-1,64
 827 350 827 350 796 359 c 128,-1,65
 765 368 765 368 717 368 c 0,47,48
EndSplineSet
Position2: "'cpsp' Capital Spacing lookup 0 subtable" dx=40 dy=0 dh=80 dv=0
EndChar

StartChar: afii10059
Encoding: 1034 1034 324
Width: 1103
Flags: W
LayerCount: 2
Fore
SplineSet
727 397 m 1,0,1
 748 400 748 400 777 402 c 128,-1,2
 806 404 806 404 829 404 c 0,3,4
 884 404 884 404 928.5 393 c 128,-1,5
 973 382 973 382 1004.5 360 c 128,-1,6
 1036 338 1036 338 1053 306.5 c 128,-1,7
 1070 275 1070 275 1070 233 c 0,8,9
 1070 116 1070 116 979.5 56.5 c 128,-1,10
 889 -3 889 -3 726 -3 c 0,11,12
 720 -3 720 -3 704 -2.5 c 128,-1,13
 688 -2 688 -2 667.5 -1.5 c 128,-1,14
 647 -1 647 -1 625 -0.5 c 128,-1,15
 603 0 603 0 586 0 c 2,16,-1
 448 0 l 1,17,-1
 459 56 l 1,18,-1
 542 56 l 1,19,-1
 601 331 l 1,20,-1
 251 331 l 1,21,-1
 192 56 l 1,22,-1
 275 56 l 1,23,-1
 264 0 l 1,24,-1
 -21 0 l 1,25,-1
 -11 56 l 1,26,-1
 80 56 l 1,27,-1
 205 644 l 1,28,-1
 114 644 l 1,29,-1
 126 700 l 1,30,-1
 412 700 l 1,31,-1
 400 644 l 1,32,-1
 317 644 l 1,33,-1
 263 387 l 1,34,-1
 613 387 l 1,35,-1
 667 644 l 1,36,-1
 584 644 l 1,37,-1
 596 700 l 1,38,-1
 892 700 l 1,39,-1
 880 644 l 1,40,-1
 779 644 l 1,41,-1
 727 397 l 1,0,1
791 348 m 0,42,43
 765 348 765 348 747.5 346 c 128,-1,44
 730 344 730 344 715 342 c 1,45,-1
 655 58 l 1,46,47
 659 56 659 56 669.5 55.5 c 128,-1,48
 680 55 680 55 692 54 c 128,-1,49
 704 53 704 53 715 53 c 128,-1,50
 726 53 726 53 732 53 c 0,51,52
 770 53 770 53 808 62 c 128,-1,53
 846 71 846 71 876.5 92.5 c 128,-1,54
 907 114 907 114 926 149.5 c 128,-1,55
 945 185 945 185 945 239 c 0,56,57
 945 261 945 261 938 281 c 128,-1,58
 931 301 931 301 913 316 c 128,-1,59
 895 331 895 331 865.5 339.5 c 128,-1,60
 836 348 836 348 791 348 c 0,42,43
EndSplineSet
Position2: "'cpsp' Capital Spacing lookup 0 subtable" dx=40 dy=0 dh=80 dv=0
EndChar

StartChar: afii10060
Encoding: 1035 1035 325
Width: 876
Flags: W
LayerCount: 2
Fore
SplineSet
419 0 m 1,0,-1
 124 0 l 1,1,-1
 136 56 l 1,2,-1
 241 56 l 1,3,-1
 366 644 l 1,4,-1
 187 644 l 1,5,-1
 163 622 l 1,6,-1
 135 493 l 1,7,-1
 63 493 l 1,8,-1
 107 700 l 1,9,-1
 761 700 l 1,10,-1
 717 493 l 1,11,-1
 645 493 l 1,12,-1
 673 622 l 1,13,-1
 657 644 l 1,14,-1
 478 644 l 1,15,-1
 424 388 l 1,16,17
 458 404 458 404 506 418.5 c 128,-1,18
 554 433 554 433 617 433 c 0,19,20
 698 433 698 433 741.5 395.5 c 128,-1,21
 785 358 785 358 785 287 c 0,22,23
 785 273 785 273 783.5 258.5 c 128,-1,24
 782 244 782 244 778 228 c 2,25,-1
 741 56 l 1,26,-1
 832 56 l 1,27,-1
 820 0 l 1,28,-1
 617 0 l 1,29,-1
 660 205 l 2,30,31
 669 247 669 247 669 278 c 0,32,33
 669 328 669 328 645 352.5 c 128,-1,34
 621 377 621 377 565 377 c 0,35,36
 517 377 517 377 482.5 365 c 128,-1,37
 448 353 448 353 413 336 c 1,38,-1
 353 56 l 1,39,-1
 431 56 l 1,40,-1
 419 0 l 1,0,-1
EndSplineSet
Position2: "'cpsp' Capital Spacing lookup 0 subtable" dx=40 dy=0 dh=80 dv=0
EndChar

StartChar: afii10145
Encoding: 1039 1039 328
Width: 798
Flags: W
LayerCount: 2
Fore
SplineSet
532 56 m 1,0,-1
 657 644 l 1,1,-1
 574 644 l 1,2,-1
 586 700 l 1,3,-1
 871 700 l 1,4,-1
 860 644 l 1,5,-1
 769 644 l 1,6,-1
 644 56 l 1,7,-1
 735 56 l 1,8,-1
 723 0 l 1,9,-1
 400 0 l 1,10,-1
 328 -200 l 1,11,-1
 278 -200 l 1,12,-1
 294 0 l 1,13,-1
 -21 0 l 1,14,-1
 -9 56 l 1,15,-1
 82 56 l 1,16,-1
 207 644 l 1,17,-1
 116 644 l 1,18,-1
 128 700 l 1,19,-1
 414 700 l 1,20,-1
 402 644 l 1,21,-1
 319 644 l 1,22,-1
 194 56 l 1,23,-1
 532 56 l 1,0,-1
EndSplineSet
Position2: "'cpsp' Capital Spacing lookup 0 subtable" dx=40 dy=0 dh=80 dv=0
EndChar

StartChar: afii10018
Encoding: 1041 1041 330
Width: 665
Flags: W
LayerCount: 2
Fore
SplineSet
264 398 m 1,0,1
 285 401 285 401 321 403 c 128,-1,2
 357 405 357 405 387 405 c 0,3,4
 494 405 494 405 555 363 c 128,-1,5
 616 321 616 321 616 234 c 0,6,7
 616 177 616 177 589 132.5 c 128,-1,8
 562 88 562 88 514.5 58 c 128,-1,9
 467 28 467 28 403 12.5 c 128,-1,10
 339 -3 339 -3 265 -3 c 0,11,12
 259 -3 259 -3 242.5 -2.5 c 128,-1,13
 226 -2 226 -2 204.5 -1.5 c 128,-1,14
 183 -1 183 -1 160 -0.5 c 128,-1,15
 137 0 137 0 120 0 c 2,16,-1
 -21 0 l 1,17,-1
 -11 56 l 1,18,-1
 80 56 l 1,19,-1
 205 644 l 1,20,-1
 114 644 l 1,21,-1
 126 700 l 1,22,-1
 663 700 l 1,23,-1
 624 517 l 1,24,-1
 552 517 l 1,25,-1
 575 622 l 1,26,-1
 559 644 l 1,27,-1
 317 644 l 1,28,-1
 264 398 l 1,0,1
340 349 m 0,29,30
 314 349 314 349 290.5 347.5 c 128,-1,31
 267 346 267 346 252 343 c 1,32,-1
 193 58 l 1,33,34
 198 56 198 56 208.5 55.5 c 128,-1,35
 219 55 219 55 231 54 c 128,-1,36
 243 53 243 53 254 53 c 128,-1,37
 265 53 265 53 271 53 c 0,38,39
 319 53 319 53 361 64 c 128,-1,40
 403 75 403 75 433.5 97 c 128,-1,41
 464 119 464 119 482 152.5 c 128,-1,42
 500 186 500 186 500 231 c 0,43,44
 500 257 500 257 491.5 278.5 c 128,-1,45
 483 300 483 300 464 316 c 128,-1,46
 445 332 445 332 414.5 340.5 c 128,-1,47
 384 349 384 349 340 349 c 0,29,30
EndSplineSet
Position2: "'cpsp' Capital Spacing lookup 0 subtable" dx=40 dy=0 dh=80 dv=0
EndChar

StartChar: afii10020
Encoding: 1043 1043 332
Width: 547
Flags: W
LayerCount: 2
Fore
SplineSet
115 644 m 1,0,-1
 127 700 l 1,1,-1
 640 700 l 1,2,-1
 596 493 l 1,3,-1
 524 493 l 1,4,-1
 552 622 l 1,5,-1
 536 644 l 1,6,-1
 318 644 l 1,7,-1
 193 56 l 1,8,-1
 301 56 l 1,9,-1
 289 0 l 1,10,-1
 -21 0 l 1,11,-1
 -10 56 l 1,12,-1
 81 56 l 1,13,-1
 206 644 l 1,14,-1
 115 644 l 1,0,-1
EndSplineSet
Position2: "'cpsp' Capital Spacing lookup 0 subtable" dx=40 dy=0 dh=80 dv=0
EndChar

StartChar: afii10021
Encoding: 1044 1044 333
Width: 759
Flags: W
LayerCount: 2
Fore
SplineSet
806 644 m 1,0,-1
 715 644 l 1,1,-1
 590 56 l 1,2,-1
 694 56 l 1,3,-1
 647 -162 l 1,4,-1
 572 -162 l 1,5,-1
 602 -22 l 1,6,-1
 587 0 l 1,7,-1
 45 0 l 1,8,-1
 20 -22 l 1,9,-1
 -10 -162 l 1,10,-1
 -84 -162 l 1,11,-1
 -37 56 l 1,12,-1
 60 56 l 1,13,14
 99 98 99 98 138 164 c 128,-1,15
 177 230 177 230 212.5 308.5 c 128,-1,16
 248 387 248 387 276.5 473.5 c 128,-1,17
 305 560 305 560 322 644 c 1,18,-1
 214 644 l 1,19,-1
 226 700 l 1,20,-1
 818 700 l 1,21,-1
 806 644 l 1,0,-1
478 56 m 1,22,-1
 603 644 l 1,23,-1
 392 644 l 1,24,25
 360 520 360 520 326 424 c 128,-1,26
 292 328 292 328 258 256.5 c 128,-1,27
 224 185 224 185 193 136 c 128,-1,28
 162 87 162 87 137 56 c 1,29,-1
 478 56 l 1,22,-1
EndSplineSet
Position2: "'cpsp' Capital Spacing lookup 0 subtable" dx=40 dy=0 dh=80 dv=0
EndChar

StartChar: afii10024
Encoding: 1046 1046 335
Width: 1037
Flags: W
LayerCount: 2
Fore
SplineSet
412 332 m 1,0,-1
 113 0 l 1,1,-1
 -46 0 l 1,2,-1
 -34 56 l 1,3,-1
 25 56 l 1,4,5
 115 146 115 146 185 217 c 0,6,7
 215 247 215 247 244 276 c 128,-1,8
 273 305 273 305 295.5 328 c 128,-1,9
 318 351 318 351 332 365 c 128,-1,10
 346 379 346 379 346 379 c 1,11,-1
 182 644 l 1,12,-1
 104 644 l 1,13,-1
 116 700 l 1,14,-1
 358 700 l 1,15,-1
 346 644 l 1,16,-1
 271 644 l 1,17,-1
 414 382 l 1,18,-1
 492 382 l 1,19,-1
 548 644 l 1,20,-1
 471 644 l 1,21,-1
 483 700 l 1,22,-1
 745 700 l 1,23,-1
 733 644 l 1,24,-1
 656 644 l 1,25,-1
 600 382 l 1,26,-1
 675 382 l 1,27,-1
 920 644 l 1,28,-1
 840 644 l 1,29,-1
 852 700 l 1,30,-1
 1111 700 l 1,31,-1
 1099 644 l 1,32,-1
 1014 644 l 1,33,-1
 740 376 l 1,34,-1
 942 56 l 1,35,-1
 1002 56 l 1,36,-1
 990 0 l 1,37,-1
 846 0 l 1,38,-1
 662 332 l 1,39,-1
 590 332 l 1,40,-1
 531 56 l 1,41,-1
 608 56 l 1,42,-1
 596 0 l 1,43,-1
 334 0 l 1,44,-1
 346 56 l 1,45,-1
 423 56 l 1,46,-1
 482 332 l 1,47,-1
 412 332 l 1,0,-1
EndSplineSet
Position2: "'cpsp' Capital Spacing lookup 0 subtable" dx=40 dy=0 dh=80 dv=0
EndChar

StartChar: afii10025
Encoding: 1047 1047 336
Width: 616
Flags: W
LayerCount: 2
Fore
SplineSet
235 -12 m 0,0,1
 193 -12 193 -12 157 -6 c 128,-1,2
 121 0 121 0 93 9.5 c 128,-1,3
 65 19 65 19 46 30 c 128,-1,4
 27 41 27 41 19 50 c 0,5,6
 19 51 19 51 24.5 77.5 c 128,-1,7
 30 104 30 104 37 135 c 2,8,-1
 55 217 l 1,9,-1
 119 217 l 1,10,-1
 94 96 l 1,11,-1
 105 77 l 1,12,13
 127 63 127 63 160 53.5 c 128,-1,14
 193 44 193 44 225 44 c 0,15,16
 325 44 325 44 381 94.5 c 128,-1,17
 437 145 437 145 437 227 c 0,18,19
 437 280 437 280 401 304 c 128,-1,20
 365 328 365 328 299 328 c 2,21,-1
 210 328 l 1,22,-1
 224 392 l 1,23,-1
 354 392 l 1,24,25
 417 411 417 411 451.5 456 c 128,-1,26
 486 501 486 501 486 555 c 0,27,28
 486 574 486 574 480 592.5 c 128,-1,29
 474 611 474 611 459.5 625 c 128,-1,30
 445 639 445 639 420.5 647.5 c 128,-1,31
 396 656 396 656 359 656 c 0,32,33
 342 656 342 656 324 654.5 c 128,-1,34
 306 653 306 653 289.5 650 c 128,-1,35
 273 647 273 647 259.5 643.5 c 128,-1,36
 246 640 246 640 239 636 c 1,37,-1
 222 617 l 1,38,-1
 201 518 l 1,39,-1
 137 518 l 1,40,-1
 170 671 l 1,41,42
 191 682 191 682 217 689.5 c 128,-1,43
 243 697 243 697 270 702 c 128,-1,44
 297 707 297 707 324.5 709.5 c 128,-1,45
 352 712 352 712 376 712 c 0,46,47
 422 712 422 712 463 704 c 128,-1,48
 504 696 504 696 535 678 c 128,-1,49
 566 660 566 660 584 631 c 128,-1,50
 602 602 602 602 602 561 c 0,51,52
 602 534 602 534 592 505.5 c 128,-1,53
 582 477 582 477 561 451.5 c 128,-1,54
 540 426 540 426 507 405 c 128,-1,55
 474 384 474 384 427 374 c 1,56,-1
 427 370 l 1,57,58
 450 365 450 365 472.5 355 c 128,-1,59
 495 345 495 345 513 328 c 128,-1,60
 531 311 531 311 542 286.5 c 128,-1,61
 553 262 553 262 553 229 c 0,62,63
 553 166 553 166 525.5 120.5 c 128,-1,64
 498 75 498 75 453.5 45.5 c 128,-1,65
 409 16 409 16 352 2 c 128,-1,66
 295 -12 295 -12 235 -12 c 0,0,1
EndSplineSet
Position2: "'cpsp' Capital Spacing lookup 0 subtable" dx=40 dy=0 dh=80 dv=0
EndChar

StartChar: afii10026
Encoding: 1048 1048 337
Width: 823
Flags: W
LayerCount: 2
Fore
SplineSet
265 0 m 1,0,-1
 -21 0 l 1,1,-1
 -10 56 l 1,2,-1
 81 56 l 1,3,-1
 206 644 l 1,4,-1
 115 644 l 1,5,-1
 127 700 l 1,6,-1
 414 700 l 1,7,-1
 402 644 l 1,8,-1
 318 644 l 1,9,-1
 227 215 l 1,10,-1
 199 140 l 1,11,-1
 266 221 l 1,12,-1
 683 622 l 1,13,-1
 687 644 l 1,14,-1
 596 644 l 1,15,-1
 608 700 l 1,16,-1
 896 700 l 1,17,-1
 884 644 l 1,18,-1
 793 644 l 1,19,-1
 668 56 l 1,20,-1
 759 56 l 1,21,-1
 747 0 l 1,22,-1
 459 0 l 1,23,-1
 471 56 l 1,24,-1
 556 56 l 1,25,-1
 647 484 l 1,26,-1
 674 559 l 1,27,-1
 612 482 l 1,28,-1
 190 76 l 1,29,-1
 186 56 l 1,30,-1
 277 56 l 1,31,-1
 265 0 l 1,0,-1
EndSplineSet
Position2: "'cpsp' Capital Spacing lookup 0 subtable" dx=40 dy=0 dh=80 dv=0
EndChar

StartChar: afii10029
Encoding: 1051 1051 340
Width: 729
Flags: W
LayerCount: 2
Fore
SplineSet
378 644 m 1,0,1
 354 550 354 550 333 477 c 128,-1,2
 312 404 312 404 292.5 348 c 128,-1,3
 273 292 273 292 255 249.5 c 128,-1,4
 237 207 237 207 220 174.5 c 128,-1,5
 203 142 203 142 186 116.5 c 128,-1,6
 169 91 169 91 152 68 c 0,7,8
 139 51 139 51 122 34 c 128,-1,9
 105 17 105 17 87 0 c 1,10,-1
 -28 0 l 1,11,-1
 -2 126 l 1,12,-1
 114 126 l 1,13,14
 135 151 135 151 159 192.5 c 128,-1,15
 183 234 183 234 208.5 296.5 c 128,-1,16
 234 359 234 359 259.5 445 c 128,-1,17
 285 531 285 531 309 644 c 1,18,-1
 205 644 l 1,19,-1
 217 700 l 1,20,-1
 802 700 l 1,21,-1
 790 644 l 1,22,-1
 699 644 l 1,23,-1
 574 56 l 1,24,-1
 665 56 l 1,25,-1
 653 0 l 1,26,-1
 364 0 l 1,27,-1
 376 56 l 1,28,-1
 462 56 l 1,29,-1
 587 644 l 1,30,-1
 378 644 l 1,0,1
EndSplineSet
Position2: "'cpsp' Capital Spacing lookup 0 subtable" dx=40 dy=0 dh=80 dv=0
EndChar

StartChar: afii10033
Encoding: 1055 1055 344
Width: 798
Flags: W
LayerCount: 2
Fore
SplineSet
318 644 m 1,0,-1
 193 56 l 1,1,-1
 276 56 l 1,2,-1
 264 0 l 1,3,-1
 -21 0 l 1,4,-1
 -10 56 l 1,5,-1
 81 56 l 1,6,-1
 206 644 l 1,7,-1
 115 644 l 1,8,-1
 127 700 l 1,9,-1
 871 700 l 1,10,-1
 859 644 l 1,11,-1
 768 644 l 1,12,-1
 643 56 l 1,13,-1
 734 56 l 1,14,-1
 722 0 l 1,15,-1
 436 0 l 1,16,-1
 448 56 l 1,17,-1
 531 56 l 1,18,-1
 656 644 l 1,19,-1
 318 644 l 1,0,-1
EndSplineSet
Position2: "'cpsp' Capital Spacing lookup 0 subtable" dx=40 dy=0 dh=80 dv=0
EndChar

StartChar: afii10037
Encoding: 1059 1059 348
Width: 732
Flags: W
LayerCount: 2
Fore
SplineSet
660 644 m 1,0,-1
 567 644 l 1,1,-1
 579 700 l 1,2,-1
 834 700 l 1,3,-1
 822 644 l 1,4,-1
 741 644 l 1,5,-1
 470 219 l 2,6,7
 449 187 449 187 421 151 c 128,-1,8
 393 115 393 115 364.5 84 c 128,-1,9
 336 53 336 53 311 30 c 128,-1,10
 286 7 286 7 271 0 c 1,11,-1
 174 0 l 1,12,-1
 200 123 l 1,13,-1
 317 123 l 1,14,15
 324 129 324 129 332.5 137.5 c 128,-1,16
 341 146 341 146 349 155 c 128,-1,17
 357 164 357 164 363.5 172.5 c 128,-1,18
 370 181 370 181 373 187 c 1,19,-1
 175 644 l 1,20,-1
 90 644 l 1,21,-1
 102 700 l 1,22,-1
 399 700 l 1,23,-1
 387 644 l 1,24,-1
 297 644 l 1,25,-1
 418 335 l 1,26,-1
 437 266 l 1,27,-1
 441 266 l 1,28,-1
 476 332 l 1,29,-1
 660 644 l 1,0,-1
EndSplineSet
Position2: "'cpsp' Capital Spacing lookup 0 subtable" dx=40 dy=0 dh=80 dv=0
EndChar

StartChar: afii10038
Encoding: 1060 1060 349
Width: 875
Flags: W
LayerCount: 2
Fore
SplineSet
386 603 m 0,0,1
 401 603 401 603 424.5 602 c 128,-1,2
 448 601 448 601 462 599 c 1,3,-1
 471 644 l 1,4,-1
 393 644 l 1,5,-1
 405 700 l 1,6,-1
 664 700 l 1,7,-1
 652 644 l 1,8,-1
 574 644 l 1,9,-1
 564 596 l 1,10,11
 585 601 585 601 612.5 602 c 128,-1,12
 640 603 640 603 659 603 c 0,13,14
 711 603 711 603 750.5 589.5 c 128,-1,15
 790 576 790 576 815.5 553 c 128,-1,16
 841 530 841 530 854 497.5 c 128,-1,17
 867 465 867 465 867 428 c 0,18,19
 867 363 867 363 846.5 304.5 c 128,-1,20
 826 246 826 246 784.5 202.5 c 128,-1,21
 743 159 743 159 680.5 133.5 c 128,-1,22
 618 108 618 108 534 108 c 0,23,24
 528 108 528 108 518.5 108.5 c 128,-1,25
 509 109 509 109 498.5 109.5 c 128,-1,26
 488 110 488 110 478 111.5 c 128,-1,27
 468 113 468 113 462 115 c 1,28,-1
 449 56 l 1,29,-1
 527 56 l 1,30,-1
 515 0 l 1,31,-1
 256 0 l 1,32,-1
 268 56 l 1,33,-1
 346 56 l 1,34,-1
 358 113 l 1,35,36
 335 110 335 110 307 109 c 128,-1,37
 279 108 279 108 257 108 c 0,38,39
 206 108 206 108 168.5 122.5 c 128,-1,40
 131 137 131 137 106 161.5 c 128,-1,41
 81 186 81 186 68.5 219 c 128,-1,42
 56 252 56 252 56 290 c 0,43,44
 56 355 56 355 77 412 c 128,-1,45
 98 469 98 469 139.5 511.5 c 128,-1,46
 181 554 181 554 243 578.5 c 128,-1,47
 305 603 305 603 386 603 c 0,0,1
611 549 m 0,48,49
 594 549 594 549 581 548 c 128,-1,50
 568 547 568 547 552 543 c 1,51,-1
 471 165 l 1,52,53
 482 163 482 163 497 162.5 c 128,-1,54
 512 162 512 162 522 162 c 0,55,56
 579 162 579 162 621.5 183.5 c 128,-1,57
 664 205 664 205 692 241.5 c 128,-1,58
 720 278 720 278 733.5 327 c 128,-1,59
 747 376 747 376 747 431 c 0,60,61
 747 457 747 457 741 478.5 c 128,-1,62
 735 500 735 500 719.5 516 c 128,-1,63
 704 532 704 532 677.5 540.5 c 128,-1,64
 651 549 651 549 611 549 c 0,48,49
314 162 m 0,65,66
 328 162 328 162 341 163 c 128,-1,67
 354 164 354 164 371 167 c 1,68,-1
 451 546 l 1,69,70
 424 549 424 549 396 549 c 0,71,72
 339 549 339 549 297.5 529 c 128,-1,73
 256 509 256 509 229 474 c 128,-1,74
 202 439 202 439 189 391.5 c 128,-1,75
 176 344 176 344 176 289 c 0,76,77
 176 264 176 264 183 241 c 128,-1,78
 190 218 190 218 206 200.5 c 128,-1,79
 222 183 222 183 248.5 172.5 c 128,-1,80
 275 162 275 162 314 162 c 0,65,66
EndSplineSet
Position2: "'cpsp' Capital Spacing lookup 0 subtable" dx=40 dy=0 dh=80 dv=0
EndChar

StartChar: afii10040
Encoding: 1062 1062 351
Width: 799
Flags: W
LayerCount: 2
Fore
SplineSet
528 56 m 1,0,-1
 653 644 l 1,1,-1
 570 644 l 1,2,-1
 582 700 l 1,3,-1
 868 700 l 1,4,-1
 856 644 l 1,5,-1
 765 644 l 1,6,-1
 640 56 l 1,7,-1
 751 56 l 1,8,-1
 704 -162 l 1,9,-1
 635 -162 l 1,10,-1
 665 -22 l 1,11,-1
 650 0 l 1,12,-1
 -21 0 l 1,13,-1
 -9 56 l 1,14,-1
 82 56 l 1,15,-1
 207 644 l 1,16,-1
 116 644 l 1,17,-1
 128 700 l 1,18,-1
 414 700 l 1,19,-1
 402 644 l 1,20,-1
 319 644 l 1,21,-1
 194 56 l 1,22,-1
 528 56 l 1,0,-1
EndSplineSet
Position2: "'cpsp' Capital Spacing lookup 0 subtable" dx=40 dy=0 dh=80 dv=0
EndChar

StartChar: afii10041
Encoding: 1063 1063 352
Width: 718
Flags: W
LayerCount: 2
Fore
SplineSet
573 56 m 1,0,-1
 654 56 l 1,1,-1
 642 0 l 1,2,-1
 345 0 l 1,3,-1
 357 56 l 1,4,-1
 461 56 l 1,5,-1
 515 310 l 1,6,7
 481 293 481 293 429 279 c 128,-1,8
 377 265 377 265 312 265 c 0,9,10
 231 265 231 265 182.5 301.5 c 128,-1,11
 134 338 134 338 134 416 c 0,12,13
 134 430 134 430 135.5 446.5 c 128,-1,14
 137 463 137 463 141 480 c 2,15,-1
 176 644 l 1,16,-1
 95 644 l 1,17,-1
 107 700 l 1,18,-1
 373 700 l 1,19,-1
 361 644 l 1,20,-1
 288 644 l 1,21,-1
 253 482 l 2,22,23
 250 467 250 467 248 452.5 c 128,-1,24
 246 438 246 438 246 425 c 0,25,26
 246 377 246 377 271.5 349 c 128,-1,27
 297 321 297 321 357 321 c 0,28,29
 404 321 404 321 447.5 333 c 128,-1,30
 491 345 491 345 526 362 c 1,31,-1
 586 644 l 1,32,-1
 506 644 l 1,33,-1
 518 700 l 1,34,-1
 791 700 l 1,35,-1
 779 644 l 1,36,-1
 698 644 l 1,37,-1
 573 56 l 1,0,-1
EndSplineSet
Position2: "'cpsp' Capital Spacing lookup 0 subtable" dx=40 dy=0 dh=80 dv=0
EndChar

StartChar: afii10042
Encoding: 1064 1064 353
Width: 1064
Flags: W
LayerCount: 2
Fore
SplineSet
115 644 m 1,0,-1
 127 700 l 1,1,-1
 402 700 l 1,2,-1
 390 644 l 1,3,-1
 318 644 l 1,4,-1
 193 56 l 1,5,-1
 439 56 l 1,6,-1
 564 644 l 1,7,-1
 492 644 l 1,8,-1
 504 700 l 1,9,-1
 760 700 l 1,10,-1
 748 644 l 1,11,-1
 676 644 l 1,12,-1
 551 56 l 1,13,-1
 797 56 l 1,14,-1
 922 644 l 1,15,-1
 850 644 l 1,16,-1
 862 700 l 1,17,-1
 1137 700 l 1,18,-1
 1125 644 l 1,19,-1
 1034 644 l 1,20,-1
 909 56 l 1,21,-1
 1000 56 l 1,22,-1
 988 0 l 1,23,-1
 -21 0 l 1,24,-1
 -10 56 l 1,25,-1
 81 56 l 1,26,-1
 206 644 l 1,27,-1
 115 644 l 1,0,-1
EndSplineSet
Position2: "'cpsp' Capital Spacing lookup 0 subtable" dx=40 dy=0 dh=80 dv=0
EndChar

StartChar: afii10043
Encoding: 1065 1065 354
Width: 1069
Flags: W
LayerCount: 2
Fore
SplineSet
116 644 m 1,0,-1
 128 700 l 1,1,-1
 403 700 l 1,2,-1
 391 644 l 1,3,-1
 319 644 l 1,4,-1
 194 56 l 1,5,-1
 440 56 l 1,6,-1
 565 644 l 1,7,-1
 493 644 l 1,8,-1
 505 700 l 1,9,-1
 761 700 l 1,10,-1
 749 644 l 1,11,-1
 677 644 l 1,12,-1
 552 56 l 1,13,-1
 798 56 l 1,14,-1
 923 644 l 1,15,-1
 851 644 l 1,16,-1
 863 700 l 1,17,-1
 1138 700 l 1,18,-1
 1126 644 l 1,19,-1
 1035 644 l 1,20,-1
 910 56 l 1,21,-1
 1022 56 l 1,22,-1
 975 -162 l 1,23,-1
 906 -162 l 1,24,-1
 936 -22 l 1,25,-1
 921 0 l 1,26,-1
 -21 0 l 1,27,-1
 -9 56 l 1,28,-1
 82 56 l 1,29,-1
 207 644 l 1,30,-1
 116 644 l 1,0,-1
EndSplineSet
Position2: "'cpsp' Capital Spacing lookup 0 subtable" dx=40 dy=0 dh=80 dv=0
EndChar

StartChar: afii10044
Encoding: 1066 1066 355
Width: 793
Flags: W
LayerCount: 2
Fore
SplineSet
407 417 m 1,0,1
 428 421 428 421 457.5 422.5 c 128,-1,2
 487 424 487 424 510 424 c 0,3,4
 566 424 566 424 612 414.5 c 128,-1,5
 658 405 658 405 691 384 c 128,-1,6
 724 363 724 363 742 331 c 128,-1,7
 760 299 760 299 760 254 c 0,8,9
 760 190 760 190 733.5 142 c 128,-1,10
 707 94 707 94 660 61.5 c 128,-1,11
 613 29 613 29 546.5 13 c 128,-1,12
 480 -3 480 -3 401 -3 c 0,13,14
 396 -3 396 -3 379.5 -2.5 c 128,-1,15
 363 -2 363 -2 342.5 -1.5 c 128,-1,16
 322 -1 322 -1 299.5 -0.5 c 128,-1,17
 277 0 277 0 260 0 c 2,18,-1
 117 0 l 1,19,-1
 127 56 l 1,20,-1
 218 56 l 1,21,-1
 343 644 l 1,22,-1
 188 644 l 1,23,-1
 164 622 l 1,24,-1
 136 493 l 1,25,-1
 72 493 l 1,26,-1
 116 700 l 1,27,-1
 567 700 l 1,28,-1
 555 644 l 1,29,-1
 455 644 l 1,30,-1
 407 417 l 1,0,1
473 368 m 0,31,32
 446 368 446 368 428 366 c 128,-1,33
 410 364 410 364 395 362 c 1,34,-1
 331 58 l 1,35,36
 337 57 337 57 347.5 56 c 128,-1,37
 358 55 358 55 369.5 54.5 c 128,-1,38
 381 54 381 54 392 53.5 c 128,-1,39
 403 53 403 53 409 53 c 0,40,41
 449 53 449 53 489 63 c 128,-1,42
 529 73 529 73 561.5 95.5 c 128,-1,43
 594 118 594 118 614.5 155.5 c 128,-1,44
 635 193 635 193 635 247 c 0,45,46
 635 272 635 272 627.5 294.5 c 128,-1,47
 620 317 620 317 601.5 333 c 128,-1,48
 583 349 583 349 552 358.5 c 128,-1,49
 521 368 521 368 473 368 c 0,31,32
EndSplineSet
Position2: "'cpsp' Capital Spacing lookup 0 subtable" dx=40 dy=0 dh=80 dv=0
EndChar

StartChar: afii10045
Encoding: 1067 1067 356
Width: 942
Flags: W
LayerCount: 2
Fore
SplineSet
713 644 m 1,0,-1
 725 700 l 1,1,-1
 1015 700 l 1,2,-1
 1003 644 l 1,3,-1
 912 644 l 1,4,-1
 787 56 l 1,5,-1
 878 56 l 1,6,-1
 867 0 l 1,7,-1
 577 0 l 1,8,-1
 588 56 l 1,9,-1
 675 56 l 1,10,-1
 800 644 l 1,11,-1
 713 644 l 1,0,-1
269 417 m 1,12,13
 290 421 290 421 318.5 422.5 c 128,-1,14
 347 424 347 424 370 424 c 0,15,16
 483 424 483 424 545 382 c 128,-1,17
 607 340 607 340 607 254 c 0,18,19
 607 194 607 194 582.5 146.5 c 128,-1,20
 558 99 558 99 513 66 c 128,-1,21
 468 33 468 33 404 15 c 128,-1,22
 340 -3 340 -3 261 -3 c 0,23,24
 256 -3 256 -3 240 -2.5 c 128,-1,25
 224 -2 224 -2 203.5 -1.5 c 128,-1,26
 183 -1 183 -1 161 -0.5 c 128,-1,27
 139 0 139 0 122 0 c 2,28,-1
 -21 0 l 1,29,-1
 -11 56 l 1,30,-1
 80 56 l 1,31,-1
 205 644 l 1,32,-1
 114 644 l 1,33,-1
 126 700 l 1,34,-1
 429 700 l 1,35,-1
 417 644 l 1,36,-1
 317 644 l 1,37,-1
 269 417 l 1,12,13
333 368 m 0,38,39
 306 368 306 368 289 366 c 128,-1,40
 272 364 272 364 257 362 c 1,41,-1
 193 58 l 1,42,43
 199 57 199 57 209 56 c 128,-1,44
 219 55 219 55 230.5 54.5 c 128,-1,45
 242 54 242 54 252.5 53.5 c 128,-1,46
 263 53 263 53 269 53 c 0,47,48
 307 53 307 53 345 63 c 128,-1,49
 383 73 383 73 413.5 96 c 128,-1,50
 444 119 444 119 463 156 c 128,-1,51
 482 193 482 193 482 247 c 0,52,53
 482 272 482 272 475.5 294.5 c 128,-1,54
 469 317 469 317 452.5 333 c 128,-1,55
 436 349 436 349 407 358.5 c 128,-1,56
 378 368 378 368 333 368 c 0,38,39
EndSplineSet
Position2: "'cpsp' Capital Spacing lookup 0 subtable" dx=40 dy=0 dh=80 dv=0
EndChar

StartChar: afii10046
Encoding: 1068 1068 357
Width: 655
Flags: W
LayerCount: 2
Fore
SplineSet
269 417 m 1,0,1
 290 421 290 421 319.5 422.5 c 128,-1,2
 349 424 349 424 372 424 c 0,3,4
 428 424 428 424 474 414.5 c 128,-1,5
 520 405 520 405 553 384.5 c 128,-1,6
 586 364 586 364 604 332 c 128,-1,7
 622 300 622 300 622 255 c 0,8,9
 622 191 622 191 595.5 142.5 c 128,-1,10
 569 94 569 94 522 62 c 128,-1,11
 475 30 475 30 408.5 13.5 c 128,-1,12
 342 -3 342 -3 263 -3 c 0,13,14
 258 -3 258 -3 241.5 -2.5 c 128,-1,15
 225 -2 225 -2 204.5 -1.5 c 128,-1,16
 184 -1 184 -1 161.5 -0.5 c 128,-1,17
 139 0 139 0 122 0 c 2,18,-1
 -21 0 l 1,19,-1
 -11 56 l 1,20,-1
 80 56 l 1,21,-1
 205 644 l 1,22,-1
 114 644 l 1,23,-1
 126 700 l 1,24,-1
 429 700 l 1,25,-1
 417 644 l 1,26,-1
 317 644 l 1,27,-1
 269 417 l 1,0,1
335 368 m 0,28,29
 308 368 308 368 290 366 c 128,-1,30
 272 364 272 364 257 362 c 1,31,-1
 193 58 l 1,32,33
 199 57 199 57 209.5 56 c 128,-1,34
 220 55 220 55 231.5 54.5 c 128,-1,35
 243 54 243 54 254 53.5 c 128,-1,36
 265 53 265 53 271 53 c 0,37,38
 311 53 311 53 351 63 c 128,-1,39
 391 73 391 73 423.5 96.5 c 128,-1,40
 456 120 456 120 476.5 157.5 c 128,-1,41
 497 195 497 195 497 249 c 0,42,43
 497 274 497 274 489.5 296 c 128,-1,44
 482 318 482 318 463.5 334 c 128,-1,45
 445 350 445 350 414 359 c 128,-1,46
 383 368 383 368 335 368 c 0,28,29
EndSplineSet
Position2: "'cpsp' Capital Spacing lookup 0 subtable" dx=40 dy=0 dh=80 dv=0
EndChar

StartChar: afii10047
Encoding: 1069 1069 358
Width: 680
Flags: W
LayerCount: 2
Fore
SplineSet
227 328 m 1,0,-1
 241 392 l 1,1,-1
 544 392 l 1,2,3
 545 403 545 403 545.5 414 c 128,-1,4
 546 425 546 425 546 436 c 0,5,6
 546 540 546 540 497 594 c 128,-1,7
 448 648 448 648 334 648 c 0,8,9
 301 648 301 648 274.5 642 c 128,-1,10
 248 636 248 636 235 629 c 1,11,-1
 217 609 l 1,12,-1
 197 517 l 1,13,-1
 133 517 l 1,14,-1
 166 671 l 1,15,16
 207 694 207 694 260 703 c 128,-1,17
 313 712 313 712 361 712 c 0,18,19
 443 712 443 712 500 691.5 c 128,-1,20
 557 671 557 671 593 635.5 c 128,-1,21
 629 600 629 600 645.5 552 c 128,-1,22
 662 504 662 504 662 450 c 0,23,24
 662 349 662 349 633 264.5 c 128,-1,25
 604 180 604 180 549.5 118.5 c 128,-1,26
 495 57 495 57 417.5 22.5 c 128,-1,27
 340 -12 340 -12 243 -12 c 0,28,29
 157 -12 157 -12 104 6 c 128,-1,30
 51 24 51 24 31 44 c 1,31,-1
 68 217 l 1,32,-1
 132 217 l 1,33,-1
 107 104 l 1,34,-1
 117 83 l 1,35,36
 131 72 131 72 160.5 62 c 128,-1,37
 190 52 190 52 232 52 c 0,38,39
 281 52 281 52 329.5 64.5 c 128,-1,40
 378 77 378 77 419.5 108.5 c 128,-1,41
 461 140 461 140 492 193.5 c 128,-1,42
 523 247 523 247 535 328 c 1,43,-1
 227 328 l 1,0,-1
EndSplineSet
Position2: "'cpsp' Capital Spacing lookup 0 subtable" dx=40 dy=0 dh=80 dv=0
EndChar

StartChar: afii10048
Encoding: 1070 1070 359
Width: 1070
Flags: W
LayerCount: 2
Fore
SplineSet
375 279 m 0,0,1
 375 292 375 292 375 304.5 c 128,-1,2
 375 317 375 317 377 331 c 1,3,-1
 252 331 l 1,4,-1
 193 56 l 1,5,-1
 278 56 l 1,6,-1
 266 0 l 1,7,-1
 -21 0 l 1,8,-1
 -10 56 l 1,9,-1
 81 56 l 1,10,-1
 206 644 l 1,11,-1
 115 644 l 1,12,-1
 127 700 l 1,13,-1
 415 700 l 1,14,-1
 403 644 l 1,15,-1
 318 644 l 1,16,-1
 264 387 l 1,17,-1
 387 387 l 1,18,19
 401 451 401 451 432.5 509.5 c 128,-1,20
 464 568 464 568 512.5 613 c 128,-1,21
 561 658 561 658 627 685 c 128,-1,22
 693 712 693 712 777 712 c 0,23,24
 844 712 844 712 895 691.5 c 128,-1,25
 946 671 946 671 981 634.5 c 128,-1,26
 1016 598 1016 598 1034 546 c 128,-1,27
 1052 494 1052 494 1052 431 c 0,28,29
 1052 351 1052 351 1027.5 271.5 c 128,-1,30
 1003 192 1003 192 954 129 c 128,-1,31
 905 66 905 66 831.5 27 c 128,-1,32
 758 -12 758 -12 660 -12 c 0,33,34
 603 -12 603 -12 551 4 c 128,-1,35
 499 20 499 20 460 55 c 128,-1,36
 421 90 421 90 398 145 c 128,-1,37
 375 200 375 200 375 279 c 0,0,1
500 282 m 256,38,39
 500 218 500 218 512.5 173 c 128,-1,40
 525 128 525 128 547.5 99.5 c 128,-1,41
 570 71 570 71 601.5 57.5 c 128,-1,42
 633 44 633 44 671 44 c 0,43,44
 743 44 743 44 792 81 c 128,-1,45
 841 118 841 118 871 175 c 128,-1,46
 901 232 901 232 914 300 c 128,-1,47
 927 368 927 368 927 430 c 0,48,49
 927 537 927 537 886.5 596.5 c 128,-1,50
 846 656 846 656 757 656 c 0,51,52
 692 656 692 656 644 621.5 c 128,-1,53
 596 587 596 587 564 533 c 128,-1,54
 532 479 532 479 516 412.5 c 128,-1,55
 500 346 500 346 500 282 c 256,38,39
EndSplineSet
Position2: "'cpsp' Capital Spacing lookup 0 subtable" dx=40 dy=0 dh=80 dv=0
EndChar

StartChar: afii10049
Encoding: 1071 1071 360
Width: 703
Flags: W
LayerCount: 2
Fore
SplineSet
776 700 m 1,0,-1
 764 644 l 1,1,-1
 673 644 l 1,2,-1
 548 56 l 1,3,-1
 639 56 l 1,4,-1
 627 0 l 1,5,-1
 327 0 l 1,6,-1
 339 56 l 1,7,-1
 436 56 l 1,8,-1
 486 292 l 1,9,-1
 374 292 l 1,10,11
 374 291 374 291 362.5 278.5 c 128,-1,12
 351 266 351 266 333 245.5 c 128,-1,13
 315 225 315 225 292 198.5 c 128,-1,14
 269 172 269 172 245 145 c 0,15,16
 189 81 189 81 118 0 c 1,17,-1
 -44 0 l 1,18,-1
 -32 56 l 1,19,-1
 29 56 l 1,20,-1
 270 306 l 1,21,22
 257 309 257 309 237 318.5 c 128,-1,23
 217 328 217 328 198 346.5 c 128,-1,24
 179 365 179 365 165 393.5 c 128,-1,25
 151 422 151 422 151 462 c 0,26,27
 151 577 151 577 240.5 640 c 128,-1,28
 330 703 330 703 504 703 c 0,29,30
 527 703 527 703 561.5 701.5 c 128,-1,31
 596 700 596 700 631 700 c 2,32,-1
 776 700 l 1,0,-1
418 343 m 0,33,34
 438 343 438 343 461 344 c 128,-1,35
 484 345 484 345 498 348 c 1,36,-1
 561 642 l 1,37,38
 550 644 550 644 529.5 645.5 c 128,-1,39
 509 647 509 647 492 647 c 0,40,41
 443 647 443 647 403.5 636.5 c 128,-1,42
 364 626 364 626 335.5 604 c 128,-1,43
 307 582 307 582 291.5 547 c 128,-1,44
 276 512 276 512 276 463 c 0,45,46
 276 430 276 430 287.5 407 c 128,-1,47
 299 384 299 384 318.5 369.5 c 128,-1,48
 338 355 338 355 363.5 349 c 128,-1,49
 389 343 389 343 418 343 c 0,33,34
EndSplineSet
Position2: "'cpsp' Capital Spacing lookup 0 subtable" dx=40 dy=0 dh=80 dv=0
EndChar

StartChar: afii10066
Encoding: 1073 1073 362
Width: 569
Flags: W
LayerCount: 2
Fore
SplineSet
44 201 m 0,0,1
 44 274 44 274 57 347 c 128,-1,2
 70 420 70 420 97 484 c 128,-1,3
 124 548 124 548 165 598.5 c 128,-1,4
 206 649 206 649 262 677 c 256,5,6
 318 705 318 705 380 713 c 128,-1,7
 442 721 442 721 508 725 c 1,8,-1
 543 780 l 1,9,-1
 597 780 l 1,10,-1
 551 634 l 1,11,12
 463 634 463 634 395.5 629 c 128,-1,13
 328 624 328 624 277 600 c 128,-1,14
 226 576 226 576 189 526 c 128,-1,15
 152 476 152 476 125 386 c 1,16,-1
 130 386 l 1,17,18
 180 456 180 456 242 485.5 c 128,-1,19
 304 515 304 515 373 515 c 0,20,21
 443 515 443 515 486.5 467.5 c 128,-1,22
 530 420 530 420 530 337 c 0,23,24
 530 274 530 274 509.5 212 c 128,-1,25
 489 150 489 150 451 100.5 c 128,-1,26
 413 51 413 51 359 20.5 c 128,-1,27
 305 -10 305 -10 238 -10 c 0,28,29
 149 -10 149 -10 96.5 41.5 c 128,-1,30
 44 93 44 93 44 201 c 0,0,1
323 448 m 0,31,32
 277 448 277 448 237.5 422 c 128,-1,33
 198 396 198 396 170 362 c 1,34,35
 157 322 157 322 149.5 280.5 c 128,-1,36
 142 239 142 239 142 201 c 0,37,38
 142 167 142 167 148.5 137 c 128,-1,39
 155 107 155 107 168 85 c 128,-1,40
 181 63 181 63 201.5 50 c 128,-1,41
 222 37 222 37 251 37 c 0,42,43
 282 37 282 37 312.5 60 c 128,-1,44
 343 83 343 83 367 122 c 128,-1,45
 391 161 391 161 406 213 c 128,-1,46
 421 265 421 265 421 324 c 0,47,48
 421 385 421 385 394.5 416.5 c 128,-1,49
 368 448 368 448 323 448 c 0,31,32
EndSplineSet
EndChar

StartChar: afii10067
Encoding: 1074 1074 363
Width: 558
Flags: W
LayerCount: 2
Fore
SplineSet
508 436 m 0,0,1
 508 387 508 387 468.5 351.5 c 128,-1,2
 429 316 429 316 356 291 c 1,3,4
 393 289 393 289 418 279 c 128,-1,5
 443 269 443 269 458.5 254 c 128,-1,6
 474 239 474 239 480.5 221 c 128,-1,7
 487 203 487 203 487 187 c 0,8,9
 487 153 487 153 469.5 118 c 128,-1,10
 452 83 452 83 420 54.5 c 128,-1,11
 388 26 388 26 344 8 c 128,-1,12
 300 -10 300 -10 246 -10 c 0,13,14
 196 -10 196 -10 158.5 3 c 128,-1,15
 121 16 121 16 95.5 39.5 c 128,-1,16
 70 63 70 63 57 94.5 c 128,-1,17
 44 126 44 126 44 163 c 0,18,19
 44 218 44 218 55 266 c 128,-1,20
 66 314 66 314 85.5 354 c 128,-1,21
 105 394 105 394 131.5 425.5 c 128,-1,22
 158 457 158 457 189 480 c 0,23,24
 222 504 222 504 268 519.5 c 128,-1,25
 314 535 314 535 377 535 c 0,26,27
 404 535 404 535 428 529 c 128,-1,28
 452 523 452 523 469.5 510.5 c 128,-1,29
 487 498 487 498 497.5 479.5 c 128,-1,30
 508 461 508 461 508 436 c 0,0,1
383 169 m 0,31,32
 383 212 383 212 360 232.5 c 128,-1,33
 337 253 337 253 284 261 c 1,34,35
 272 259 272 259 256 257.5 c 128,-1,36
 240 256 240 256 223 254.5 c 128,-1,37
 206 253 206 253 188.5 251.5 c 128,-1,38
 171 250 171 250 156 249 c 1,39,40
 148 219 148 219 148 172 c 0,41,42
 148 112 148 112 174.5 74.5 c 128,-1,43
 201 37 201 37 258 37 c 0,44,45
 280 37 280 37 302.5 46 c 128,-1,46
 325 55 325 55 343 72 c 128,-1,47
 361 89 361 89 372 113.5 c 128,-1,48
 383 138 383 138 383 169 c 0,31,32
356 488 m 0,49,50
 327 488 327 488 299 477.5 c 128,-1,51
 271 467 271 467 245.5 444 c 128,-1,52
 220 421 220 421 198.5 383 c 128,-1,53
 177 345 177 345 161 290 c 1,54,55
 212 290 212 290 256.5 301.5 c 128,-1,56
 301 313 301 313 334.5 332.5 c 128,-1,57
 368 352 368 352 387 378 c 128,-1,58
 406 404 406 404 406 432 c 0,59,60
 406 454 406 454 395 471 c 128,-1,61
 384 488 384 488 356 488 c 0,49,50
EndSplineSet
EndChar

StartChar: afii10068
Encoding: 1075 1075 364
Width: 431
Flags: W
LayerCount: 2
Fore
SplineSet
17 100 m 0,0,1
 17 136 17 136 37.5 165.5 c 128,-1,2
 58 195 58 195 89.5 220.5 c 128,-1,3
 121 246 121 246 157 269 c 128,-1,4
 193 292 193 292 224.5 315.5 c 128,-1,5
 256 339 256 339 276.5 363.5 c 128,-1,6
 297 388 297 388 297 416 c 0,7,8
 297 437 297 437 286.5 454 c 128,-1,9
 276 471 276 471 250 471 c 0,10,11
 228 471 228 471 207 462.5 c 128,-1,12
 186 454 186 454 167 442 c 128,-1,13
 148 430 148 430 132.5 417 c 128,-1,14
 117 404 117 404 107 394 c 1,15,-1
 79 428 l 1,16,17
 88 444 88 444 108 463 c 128,-1,18
 128 482 128 482 155 498 c 128,-1,19
 182 514 182 514 213.5 524.5 c 128,-1,20
 245 535 245 535 278 535 c 0,21,22
 310 535 310 535 334 527 c 128,-1,23
 358 519 358 519 373.5 505.5 c 128,-1,24
 389 492 389 492 397 474.5 c 128,-1,25
 405 457 405 457 405 438 c 0,26,27
 405 399 405 399 384.5 368 c 128,-1,28
 364 337 364 337 332.5 311.5 c 128,-1,29
 301 286 301 286 265 263.5 c 128,-1,30
 229 241 229 241 197.5 218.5 c 128,-1,31
 166 196 166 196 145.5 172 c 128,-1,32
 125 148 125 148 125 120 c 0,33,34
 125 93 125 93 141 73.5 c 128,-1,35
 157 54 157 54 189 54 c 0,36,37
 216 54 216 54 241 63 c 128,-1,38
 266 72 266 72 286.5 84.5 c 128,-1,39
 307 97 307 97 323 110.5 c 128,-1,40
 339 124 339 124 349 134 c 1,41,-1
 383 103 l 1,42,43
 369 84 369 84 345.5 64 c 128,-1,44
 322 44 322 44 291.5 27.5 c 128,-1,45
 261 11 261 11 224 0.5 c 128,-1,46
 187 -10 187 -10 145 -10 c 0,47,48
 119 -10 119 -10 96 -2 c 128,-1,49
 73 6 73 6 55.5 20.5 c 128,-1,50
 38 35 38 35 27.5 55.5 c 128,-1,51
 17 76 17 76 17 100 c 0,0,1
EndSplineSet
EndChar

StartChar: afii10069
Encoding: 1076 1076 365
Width: 548
Flags: W
LayerCount: 2
Fore
SplineSet
32 177 m 0,0,1
 32 246 32 246 55 309 c 128,-1,2
 78 372 78 372 120 420 c 128,-1,3
 162 468 162 468 222 496.5 c 128,-1,4
 282 525 282 525 356 525 c 0,5,6
 376 525 376 525 395.5 520.5 c 128,-1,7
 415 516 415 516 427 508 c 1,8,9
 427 541 427 541 420 573 c 128,-1,10
 413 605 413 605 396.5 630 c 128,-1,11
 380 655 380 655 353.5 670.5 c 128,-1,12
 327 686 327 686 289 686 c 0,13,14
 254 686 254 686 224.5 674.5 c 128,-1,15
 195 663 195 663 170 650 c 1,16,-1
 151 687 l 1,17,18
 163 700 163 700 183 711.5 c 128,-1,19
 203 723 203 723 227 731.5 c 128,-1,20
 251 740 251 740 277.5 745 c 128,-1,21
 304 750 304 750 329 750 c 0,22,23
 372 750 372 750 408.5 735 c 128,-1,24
 445 720 445 720 472 688 c 128,-1,25
 499 656 499 656 514.5 607 c 128,-1,26
 530 558 530 558 530 490 c 0,27,28
 530 383 530 383 505.5 291.5 c 128,-1,29
 481 200 481 200 437 133 c 128,-1,30
 393 66 393 66 333 28 c 128,-1,31
 273 -10 273 -10 203 -10 c 0,32,33
 125 -10 125 -10 78.5 38.5 c 128,-1,34
 32 87 32 87 32 177 c 0,0,1
346 471 m 0,35,36
 287 471 287 471 247 441.5 c 128,-1,37
 207 412 207 412 182 367.5 c 128,-1,38
 157 323 157 323 146.5 270 c 128,-1,39
 136 217 136 217 136 170 c 0,40,41
 136 147 136 147 140.5 124.5 c 128,-1,42
 145 102 145 102 155.5 84 c 128,-1,43
 166 66 166 66 183.5 55 c 128,-1,44
 201 44 201 44 227 44 c 0,45,46
 261 44 261 44 296.5 73 c 128,-1,47
 332 102 332 102 360.5 155.5 c 128,-1,48
 389 209 389 209 407.5 283.5 c 128,-1,49
 426 358 426 358 426 449 c 1,50,51
 403 462 403 462 384.5 466.5 c 128,-1,52
 366 471 366 471 346 471 c 0,35,36
EndSplineSet
EndChar

StartChar: afii10072
Encoding: 1078 1078 367
Width: 913
Flags: W
LayerCount: 2
Fore
SplineSet
58 433 m 1,0,1
 88 481 88 481 135 506 c 128,-1,2
 182 531 182 531 224 531 c 0,3,4
 249 531 249 531 269 520 c 128,-1,5
 289 509 289 509 302 489.5 c 128,-1,6
 315 470 315 470 322 444.5 c 128,-1,7
 329 419 329 419 329 391 c 0,8,9
 329 366 329 366 326.5 340.5 c 128,-1,10
 324 315 324 315 319 290 c 1,11,-1
 420 290 l 1,12,-1
 469 525 l 1,13,-1
 561 525 l 1,14,-1
 510 290 l 1,15,-1
 610 290 l 1,16,17
 640 404 640 404 703 467.5 c 128,-1,18
 766 531 766 531 847 531 c 0,19,20
 864 531 864 531 888 528.5 c 128,-1,21
 912 526 912 526 925 518 c 1,22,-1
 899 406 l 1,23,-1
 838 406 l 1,24,-1
 856 476 l 1,25,26
 853 477 853 477 849.5 477 c 128,-1,27
 846 477 846 477 843 477 c 0,28,29
 811 477 811 477 782.5 454 c 128,-1,30
 754 431 754 431 733 390.5 c 128,-1,31
 712 350 712 350 699.5 294 c 128,-1,32
 687 238 687 238 687 172 c 0,33,34
 687 115 687 115 704.5 88 c 128,-1,35
 722 61 722 61 751 61 c 0,36,37
 769 61 769 61 794 80 c 128,-1,38
 819 99 819 99 834 125 c 1,39,-1
 866 101 l 1,40,41
 857 80 857 80 841 61 c 128,-1,42
 825 42 825 42 804 27 c 128,-1,43
 783 12 783 12 758.5 3 c 128,-1,44
 734 -6 734 -6 707 -6 c 0,45,46
 675 -6 675 -6 652.5 5.5 c 128,-1,47
 630 17 630 17 616 36.5 c 128,-1,48
 602 56 602 56 595.5 83 c 128,-1,49
 589 110 589 110 589 141 c 0,50,51
 589 162 589 162 591 189 c 128,-1,52
 593 216 593 216 598 243 c 1,53,-1
 501 243 l 1,54,-1
 448 0 l 1,55,-1
 357 0 l 1,56,-1
 409 243 l 1,57,-1
 308 243 l 1,58,59
 293 188 293 188 269.5 142.5 c 128,-1,60
 246 97 246 97 215.5 64 c 128,-1,61
 185 31 185 31 147.5 12.5 c 128,-1,62
 110 -6 110 -6 68 -6 c 0,63,64
 59 -6 59 -6 47 -5 c 128,-1,65
 35 -4 35 -4 23.5 -1.5 c 128,-1,66
 12 1 12 1 1.5 4.5 c 128,-1,67
 -9 8 -9 8 -15 13 c 1,68,-1
 9 123 l 1,69,-1
 69 123 l 1,70,-1
 53 49 l 1,71,72
 58 48 58 48 67 48 c 0,73,74
 101 48 101 48 130.5 72 c 128,-1,75
 160 96 160 96 182.5 138.5 c 128,-1,76
 205 181 205 181 218 239.5 c 128,-1,77
 231 298 231 298 231 368 c 0,78,79
 231 464 231 464 176 464 c 0,80,81
 167 464 167 464 155 458.5 c 128,-1,82
 143 453 143 453 130.5 444.5 c 128,-1,83
 118 436 118 436 106 425 c 128,-1,84
 94 414 94 414 86 403 c 1,85,-1
 58 433 l 1,0,1
EndSplineSet
EndChar

StartChar: afii10073
Encoding: 1079 1079 368
Width: 484
Flags: W
LayerCount: 2
Fore
SplineSet
40 143 m 1,0,-1
 104 143 l 1,1,-1
 85 71 l 1,2,3
 93 60 93 60 116 52 c 128,-1,4
 139 44 139 44 172 44 c 0,5,6
 199 44 199 44 225.5 51.5 c 128,-1,7
 252 59 252 59 273 73.5 c 128,-1,8
 294 88 294 88 307 109.5 c 128,-1,9
 320 131 320 131 320 159 c 0,10,11
 320 202 320 202 297.5 219 c 128,-1,12
 275 236 275 236 234 241 c 1,13,-1
 163 241 l 1,14,-1
 163 295 l 1,15,-1
 221 295 l 1,16,17
 251 304 251 304 272.5 318 c 128,-1,18
 294 332 294 332 308.5 349 c 128,-1,19
 323 366 323 366 330 384 c 128,-1,20
 337 402 337 402 337 418 c 0,21,22
 337 450 337 450 315.5 465.5 c 128,-1,23
 294 481 294 481 240 481 c 0,24,25
 219 481 219 481 198.5 474.5 c 128,-1,26
 178 468 178 468 159 460 c 1,27,-1
 136 385 l 1,28,-1
 72 385 l 1,29,-1
 98 490 l 1,30,31
 129 510 129 510 168.5 522.5 c 128,-1,32
 208 535 208 535 274 535 c 0,33,34
 310 535 310 535 340.5 529 c 128,-1,35
 371 523 371 523 393.5 510.5 c 128,-1,36
 416 498 416 498 428.5 479.5 c 128,-1,37
 441 461 441 461 441 436 c 0,38,39
 441 337 441 337 293 286 c 1,40,41
 327 286 327 286 352 276.5 c 128,-1,42
 377 267 377 267 393 252 c 128,-1,43
 409 237 409 237 416.5 218 c 128,-1,44
 424 199 424 199 424 180 c 0,45,46
 424 141 424 141 407 106.5 c 128,-1,47
 390 72 390 72 357.5 46 c 128,-1,48
 325 20 325 20 279.5 5 c 128,-1,49
 234 -10 234 -10 177 -10 c 0,50,51
 131 -10 131 -10 85 2.5 c 128,-1,52
 39 15 39 15 12 40 c 1,53,-1
 40 143 l 1,0,-1
EndSplineSet
EndChar

StartChar: afii10076
Encoding: 1082 1082 371
Width: 565
Flags: W
LayerCount: 2
Fore
SplineSet
235 249 m 1,0,-1
 195 249 l 1,1,-1
 145 0 l 1,2,-1
 46 0 l 1,3,-1
 143 471 l 1,4,-1
 65 471 l 1,5,-1
 65 525 l 1,6,-1
 254 525 l 1,7,-1
 203 289 l 1,8,-1
 236 289 l 1,9,-1
 416 436 l 1,10,-1
 416 525 l 1,11,-1
 549 525 l 1,12,-1
 549 471 l 1,13,-1
 318 299 l 1,14,-1
 465 54 l 1,15,-1
 522 54 l 1,16,-1
 522 0 l 1,17,-1
 373 0 l 1,18,-1
 235 249 l 1,0,-1
EndSplineSet
EndChar

StartChar: afii10077
Encoding: 1083 1083 372
Width: 570
Flags: W
LayerCount: 2
Fore
SplineSet
415 471 m 1,0,-1
 282 471 l 1,1,2
 268 415 268 415 249.5 348 c 128,-1,3
 231 281 231 281 205.5 215.5 c 128,-1,4
 180 150 180 150 148 93 c 128,-1,5
 116 36 116 36 76 0 c 1,6,-1
 -25 0 l 1,7,-1
 -25 96 l 1,8,-1
 79 96 l 1,9,10
 104 126 104 126 125.5 170 c 128,-1,11
 147 214 147 214 165 264 c 128,-1,12
 183 314 183 314 197.5 367.5 c 128,-1,13
 212 421 212 421 223 471 c 1,14,-1
 145 471 l 1,15,-1
 145 525 l 1,16,-1
 519 525 l 1,17,-1
 419 54 l 1,18,-1
 504 54 l 1,19,-1
 504 0 l 1,20,-1
 407 0 l 1,21,-1
 314 0 l 1,22,-1
 415 471 l 1,0,-1
EndSplineSet
EndChar
